<?xml version="1.0" encoding="utf-8"?>
<!-- Generator: Adobe Illustrator 16.0.0, SVG Export Plug-In . SVG Version: 6.00 Build 0)  -->
<!DOCTYPE svg PUBLIC "-//W3C//DTD SVG 1.1//EN" "http://www.w3.org/Graphics/SVG/1.1/DTD/svg11.dtd">
<svg version="1.1"
	 id="svg3076" sodipodi:docname="New document 3" inkscape:version="0.48.5 r10040" xmlns:dc="http://purl.org/dc/elements/1.1/" xmlns:cc="http://creativecommons.org/ns#" xmlns:rdf="http://www.w3.org/1999/02/22-rdf-syntax-ns#" xmlns:svg="http://www.w3.org/2000/svg" xmlns:sodipodi="http://sodipodi.sourceforge.net/DTD/sodipodi-0.dtd" xmlns:inkscape="http://www.inkscape.org/namespaces/inkscape"
	 xmlns="http://www.w3.org/2000/svg" xmlns:xlink="http://www.w3.org/1999/xlink" x="0px" y="0px" width="253px" height="399.27px"
	 viewBox="0 0 253 399.27" enable-background="new 0 0 253 399.27" xml:space="preserve">
<sodipodi:namedview  inkscape:window-maximized="0" inkscape:window-y="20" inkscape:window-x="24" inkscape:window-height="919" inkscape:window-width="861" fit-margin-bottom="0" inkscape:current-layer="layer1" inkscape:document-units="px" inkscape:pageopacity="0.0" fit-margin-right="0" inkscape:pageshadow="2" fit-margin-left="0" fit-margin-top="0" showgrid="false" inkscape:cy="453.21147" inkscape:cx="-45.32518" inkscape:zoom="0.35431298" borderopacity="1.0" bordercolor="#666666" pagecolor="#ffffff" id="base">
	</sodipodi:namedview>
<g id="layer1" transform="translate(-420.32518,-586.30482)" inkscape:groupmode="layer" inkscape:label="Layer 1">
	<path id="path4498" inkscape:connector-curvature="0" fill="#0E0E0E" d="M420.325,979.231c0-7.976,2.928-13.942,8.911-18.157
		c4.187-2.95,4.514-3.009,19.696-3.5l15.439-0.5l10.227-21.807c13.915-29.671,15.616-31.22,34.227-31.164
		c10.805,0.032,15.486,1.581,20.264,6.702l22.898,46.269l53.419,0.5c58.542,0.548,56.056,0.281,62.116,6.66
		c3.83,4.032,5.803,9.406,5.803,15.808v5.532h-253V979.231z"/>
	<path id="path4500" inkscape:connector-curvature="0" fill="#0E0E0E" d="M546.531,926.036l-3.224-6.538l6.259-2.851
		c3.443-1.567,10.242-4.7,15.109-6.962s9.896-4.111,11.178-4.111c4.777,0,8.748,9.866,5.166,12.839
		c-1.474,1.223-29.352,14.161-30.514,14.161C550.093,932.574,548.304,929.632,546.531,926.036z"/>
	<path id="path4502" inkscape:connector-curvature="0" fill="#0E0E0E" d="M570.769,931.155c-2.367-1.73-2.586-1.524,6.378-6.013
		c5.997-3.003,7.594-4.317,8.827-7.271c1.358-3.251,1.344-4.03-0.149-7.94c-3.364-8.81-8.963-10.31-19.999-5.357
		c-3.678,1.649-6.869,3-7.094,3c-1.394,0-0.023-5.155,1.844-6.936c3.101-2.956,52.613-25.998,55.944-26.035
		c1.481-0.017,3.793,0.982,5.136,2.221c2.534,2.335,11.67,21.136,11.67,24.016c0,3.176-2.311,6.653-5.389,8.109
		C574.386,934.28,574.813,934.113,570.769,931.155z"/>
	<path id="path4504" sodipodi:nodetypes="csssssssssscsssssssscc" inkscape:connector-curvature="0" fill="#0E0E0E" d="
		M507.322,776.058c-1.722,1.713-5.883,9.823-10.439,18.577c-7.155,13.744-9.833,24.132-9.913,38.438
		c-0.079,14.293,1.45,21.001,7.75,34c6.366,13.132,9.207,15.52,18.42,15.479c6.857-0.031,13.205-2.627,60.811-24.872
		c48.318-22.578,46.651-22.119,50.397-13.864c2.426,5.343,2.478,8.348,0.18,10.315c-1.702,1.457-14.032,7.319-61.203,29.095
		c-11.275,5.205-21.622,10.569-22.993,11.921c-1.977,1.949-2.494,3.466-2.5,7.327l-0.007,4.869l-3.877-3.498
		c-7.217-6.509-11.46-7.771-26.123-7.771c-12.157,0-13.324,0.172-18,2.66c-2.75,1.464-6.551,4.276-8.446,6.25
		c-1.896,1.975-3.723,3.59-4.062,3.59s-3.844-4.873-7.789-10.829c-11.63-17.558-17.18-32.064-19.325-50.521
		c-2.609-22.447,3.841-46.629,18.376-68.889c8.133-12.455,10.713-15.085,26.224-29.761L507.322,776.058z"/>
	<path id="path4506" inkscape:connector-curvature="0" stroke="#000000" stroke-width="1.5" d="M437.092,619.555
		c-5.61-11.548-2.284-15.969,19.568-26.01c16.687-7.667,20.601-8.192,25.728-3.452c2.339,2.163,7.066,11.094,6.285,11.875
		c-0.168,0.168-4.98,2.496-10.694,5.174c-26.67,12.498-36.899,17.124-37.861,17.124
		C439.712,624.266,438.351,622.145,437.092,619.555z"/>
	<g id="g4524" transform="translate(-261.17482,-100.16855)">
		<g id="g4512" transform="translate(151.471,178.10198)">
			
				<path id="path4516" inkscape:connector-curvature="0" stroke="#FFFFFF" stroke-width="1.5" stroke-linecap="round" stroke-linejoin="round" d="
				M585.938,535.264l-19.562,9l35.312,76.688c7.147,6.267,11.694,15.432,11.812,25.656l30.844,67
				c2.78,6.038,9.365,8.869,14.781,6.375s7.562-9.368,4.781-15.406L585.938,535.264z M564.125,545.326l-12.281,5.625l28.281,61.438
				c6.396,0.228,12.317,2.197,17.375,5.438L564.125,545.326z M613.188,651.889c-0.879,6.243-3.443,11.944-7.188,16.656
				l25.688,55.812c1.742,3.783,5.888,5.562,9.281,4c3.393-1.562,4.71-5.873,2.969-9.656L613.188,651.889z M600.45,528.589
				l-12.262,5.646l79.833,173.378c1.742,3.783,5.888,5.58,9.281,4.018c3.393-1.562,4.723-5.881,2.98-9.664L600.45,528.589z"/>
			<path id="path4518" sodipodi:nodetypes="cczc" inkscape:connector-curvature="0" stroke="#FFFFFF" d="M650.177,743.819
				c3.196-10.286,19.401-17.722,30.543-14.064c1.167,8.277-3.93,28.262-5.277,28.82C674.093,759.135,657.4,753.127,650.177,743.819z
				"/>
		</g>
	</g>
	
		<path id="path4530" sodipodi:ry="36.416" sodipodi:rx="36.416" sodipodi:cy="162.29167" sodipodi:cx="57.629204" sodipodi:type="arc" d="
		M501.244,725.105c0,17.769-14.404,32.173-32.173,32.173c-17.769,0-32.173-14.404-32.173-32.173s14.405-32.174,32.173-32.174
		C486.839,692.932,501.244,707.337,501.244,725.105z"/>
</g>
</svg>
