<?xml version="1.0" encoding="UTF-8" standalone="no"?>
<svg
   xmlns:dc="http://purl.org/dc/elements/1.1/"
   xmlns:cc="http://creativecommons.org/ns#"
   xmlns:rdf="http://www.w3.org/1999/02/22-rdf-syntax-ns#"
   xmlns:svg="http://www.w3.org/2000/svg"
   xmlns="http://www.w3.org/2000/svg"
   xmlns:sodipodi="http://sodipodi.sourceforge.net/DTD/sodipodi-0.dtd"
   xmlns:inkscape="http://www.inkscape.org/namespaces/inkscape"
   sodipodi:docname="addPoint.svg"
   inkscape:version="1.1-dev (bc69992, 2020-04-15)"
   version="1.1"
   width="44"
   height="44"
   id="svg7111">
  <sodipodi:namedview
     fit-margin-bottom="0"
     fit-margin-right="0"
     fit-margin-left="0"
     fit-margin-top="0"
     inkscape:current-layer="svg7111"
     inkscape:window-maximized="0"
     inkscape:window-y="23"
     inkscape:window-x="0"
     inkscape:cy="29.140123"
     inkscape:cx="36.182785"
     inkscape:zoom="6.3250428"
     showgrid="false"
     id="namedview17"
     inkscape:window-height="969"
     inkscape:window-width="1217"
     inkscape:pageshadow="2"
     inkscape:pageopacity="0"
     guidetolerance="10"
     gridtolerance="10"
     objecttolerance="10"
     borderopacity="1"
     bordercolor="#666666"
     pagecolor="#171113" />
  <defs
     id="defs7113">
    <linearGradient
       x1="-313.01999"
       y1="184.71001"
       gradientTransform="translate(331.34707,-150.96123)"
       x2="-312.37"
       gradientUnits="userSpaceOnUse"
       y2="112.47"
       id="linearGradient6889">
      <stop
         offset="0"
         stop-color="#FFF"
         id="stop22496-54-8" />
      <stop
         offset="1"
         stop-opacity="0"
         stop-color="#FFF"
         id="stop22498-4-61" />
    </linearGradient>
  </defs>
  <metadata
     id="metadata7116">
    <rdf:RDF>
      <cc:Work
         rdf:about="">
        <dc:format>image/svg+xml</dc:format>
        <dc:type
           rdf:resource="http://purl.org/dc/dcmitype/StillImage" />
        <dc:title />
      </cc:Work>
    </rdf:RDF>
  </metadata>
  <g
     id="g852">
    <g
       transform="matrix(1.5222969,0,0,1.5222969,-8.2143505,-7.6146399)"
       id="g1072">
      <path
         id="path13071-0"
         d="m 9.35834,12.33267 c 1.78,-2.53 4.93,-3.56 7.86,-3.98 3.98,-0.72 8.33,0.08 11.52,2.67 2.62,1.98 4.71,5.1 4.53,8.49 -0.29,2.27 -2.5,3.81 -4.66,4.01 -2.75,0.43 -5.54,0.07 -8.28,-0.26 -3.99,-0.68 -8.05,-2.16 -10.93,-5.12 -1.32,-1.63 -1.39,-4.17 -0.04,-5.81 z"
         stroke-miterlimit="10"
         inkscape:connector-curvature="0"
         style="opacity:1;fill:#ffffff;fill-opacity:0.4;stroke:#ffffff;stroke-width:1.50102125;stroke-miterlimit:10;stroke-dasharray:none;stroke-opacity:1" />
      <path
         id="path25248"
         style="color:#000000;fill:#ffffff;fill-opacity:1;fill-rule:nonzero;stroke:none;stroke-width:1.07603;enable-background:accumulate"
         d="m 10.921602,15.24835 c 0,1.445185 -1.182423,2.627608 -2.6276077,2.627608 -1.4451847,0 -2.6276085,-1.182423 -2.6276085,-2.627608 0,-1.445185 1.1824238,-2.627609 2.6276085,-2.627609 1.4451847,0 2.6276077,1.182424 2.6276077,2.627609 z"
         inkscape:connector-curvature="0" />
      <path
         id="path25248-6"
         style="color:#000000;fill:#ffffff;fill-opacity:1;fill-rule:nonzero;stroke:none;stroke-width:1.07603;enable-background:accumulate"
         d="m 22.408573,8.2865834 c 0,1.4451847 -1.182423,2.6276076 -2.627608,2.6276076 -1.445185,0 -2.627609,-1.1824229 -2.627609,-2.6276076 0,-1.4451847 1.182424,-2.6276085 2.627609,-2.6276085 1.445185,0 2.627608,1.1824238 2.627608,2.6276085 z"
         inkscape:connector-curvature="0" />
      <path
         id="path25248-8"
         style="color:#000000;fill:#ffffff;fill-opacity:1;fill-rule:nonzero;stroke:none;stroke-width:1.07603;enable-background:accumulate"
         d="m 27.671613,23.74834 c 0,1.445185 -1.182423,2.627608 -2.627608,2.627608 -1.445185,0 -2.627609,-1.182423 -2.627609,-2.627608 0,-1.445185 1.182424,-2.627609 2.627609,-2.627609 1.445185,0 2.627608,1.182424 2.627608,2.627609 z"
         inkscape:connector-curvature="0" />
    </g>
    <path
       id="path25226"
       d="M 9.2779826,29.362972 H 6.2333888 v 5.191032 H 0.75311996 v 3.044594 H 6.2333888 v 5.175809 H 9.2779826 V 37.598598 H 14.743028 V 34.554004 H 9.2779826 Z"
       style="color:#000000;text-indent:0;text-align:start;text-transform:none;direction:ltr;baseline-shift:baseline;fill:#ffffff;fill-opacity:1;stroke:none;stroke-width:1.5223;enable-background:accumulate"
       inkscape:connector-curvature="0" />
  </g>
</svg>
