<?xml version="1.0" encoding="UTF-8" standalone="no"?>
<svg
   xmlns:dc="http://purl.org/dc/elements/1.1/"
   xmlns:cc="http://creativecommons.org/ns#"
   xmlns:rdf="http://www.w3.org/1999/02/22-rdf-syntax-ns#"
   xmlns:svg="http://www.w3.org/2000/svg"
   xmlns="http://www.w3.org/2000/svg"
   xmlns:sodipodi="http://sodipodi.sourceforge.net/DTD/sodipodi-0.dtd"
   xmlns:inkscape="http://www.inkscape.org/namespaces/inkscape"
   height="44"
   width="44"
   sodipodi:docname="copy.svg"
   inkscape:version="1.1-dev (bc69992, 2020-04-15)"
   version="1.1"
   id="svg2">
  <metadata
     id="metadata10">
    <rdf:RDF>
      <cc:Work
         rdf:about="">
        <dc:format>image/svg+xml</dc:format>
        <dc:type
           rdf:resource="http://purl.org/dc/dcmitype/StillImage" />
        <dc:title />
      </cc:Work>
    </rdf:RDF>
  </metadata>
  <defs
     id="defs8">
    <linearGradient
       x1="-313.01999"
       y1="184.71001"
       gradientTransform="translate(331.34653,-150.95999)"
       x2="-312.37"
       gradientUnits="userSpaceOnUse"
       y2="112.47"
       id="linearGradient25035">
      <stop
         offset="0"
         stop-color="#FFF"
         id="stop22496-54-6-4" />
      <stop
         offset="1"
         stop-opacity="0"
         stop-color="#FFF"
         id="stop22498-4-8-1" />
    </linearGradient>
  </defs>
  <sodipodi:namedview
     fit-margin-bottom="0"
     fit-margin-right="0"
     fit-margin-left="0"
     fit-margin-top="0"
     inkscape:current-layer="g850"
     inkscape:window-maximized="0"
     inkscape:window-y="81"
     inkscape:window-x="521"
     inkscape:cy="23.25217"
     inkscape:cx="22.592428"
     inkscape:zoom="4.2265625"
     showgrid="false"
     id="namedview6"
     inkscape:window-height="723"
     inkscape:window-width="1112"
     inkscape:pageshadow="2"
     inkscape:pageopacity="0"
     guidetolerance="10"
     gridtolerance="10"
     objecttolerance="10"
     borderopacity="1"
     bordercolor="#666666"
     pagecolor="#151517"
     width="44px" />
  <g
     id="g850">
    <g
       transform="matrix(1.022972,0,0,1.022972,-0.5053842,-0.50538385)"
       id="g859">
      <path
         sodipodi:nodetypes="cscccsscc"
         id="path5833-9"
         d="m 17.75086,26.948084 c -1.111256,-0.60614 2.431484,-2.828913 1.168692,-3.384542 -1.262791,-0.555628 -2.559258,-1.02707 -3.838887,-1.21228 -3.266421,-0.488279 -6.9537733,-0.319907 -10.2201948,0.218884 -1.0270707,0.151535 -2.0709785,0.454605 -3.1990726,0.774513 v 7.004285 c 0,1.128094 0.8083461,1.851958 1.6837224,1.835257 l 14.764951,-0.281688 c 0,0 1.572639,-3.875401 -0.359211,-4.954429 z"
         inkscape:connector-curvature="0"
         style="fill:#ffffff;fill-opacity:0.5;stroke-width:1.68372" />
      <path
         id="path5833"
         d="m 42.367045,38.570003 c -1.650048,-1.868932 -3.283258,-3.468468 -5.320562,-4.579725 -1.111257,-0.60614 -2.357212,-1.279629 -3.620004,-1.835257 -1.262791,-0.555629 -2.559258,-1.027071 -3.838887,-1.212281 -3.266421,-0.488279 -6.953773,-0.319907 -10.220195,0.218884 -1.02707,0.151535 -2.070978,0.454605 -3.199072,0.774513 v 7.004285 c 0,1.128094 0.808187,1.835257 1.683722,1.835257 h 22.511369 c 1.666885,0 2.003629,-0.993396 2.003629,-2.205676 z"
         inkscape:connector-curvature="0"
         style="fill:#ffffff;fill-opacity:0.5;stroke-width:1.68372" />
      <path
         style="fill:#ffffff;fill-opacity:1;stroke:none;stroke-width:1.13386;stroke-miterlimit:4;stroke-dasharray:none;stroke-opacity:1"
         id="path4-9"
         d="m 40.391899,10.229185 q 0.919595,0 1.563313,0.643717 0.643716,0.643714 0.643716,1.563311 v 27.955689 q 0,0.919595 -0.643716,1.563311 -0.643718,0.643715 -1.563313,0.643715 H 18.32162 q -0.919595,0 -1.563312,-0.643715 -0.643716,-0.643716 -0.643716,-1.563311 V 33.770818 H 3.6080991 q -0.9195953,0 -1.5633093,-0.643717 Q 1.4010724,32.483385 1.4010724,31.563788 V 16.114593 q 0,-0.919594 0.459796,-2.023109 0.4597993,-1.103515 1.1035133,-1.74723 L 12.344253,2.9643827 q 0.643715,-0.6437157 1.74723,-1.103515 1.103516,-0.459796 2.023109,-0.459796 h 9.563787 q 0.919596,0 1.563313,0.6437157 0.643716,0.6437174 0.643716,1.5633127 V 11.14878 q 1.563311,-0.919595 2.942702,-0.919595 z m -12.506491,4.896844 -6.873974,6.873972 h 6.873974 z M 13.171888,6.2979165 6.2979147,13.171891 h 6.8739733 z m 4.506017,14.8744485 7.264799,-7.2648 V 4.343774 h -8.828112 v 9.563791 q 0,0.919595 -0.643717,1.563312 -0.643716,0.643716 -1.563311,0.643716 H 4.3437764 v 14.71352 H 16.114592 v -5.885408 q 0,-0.919596 0.459798,-2.023109 0.459797,-1.103513 1.103515,-1.747231 z m 21.97832,18.483859 V 13.171891 H 30.82811 v 9.563787 q 0,0.919594 -0.643714,1.563309 -0.643717,0.643718 -1.563313,0.643718 h -9.563787 v 14.713519 z"
         inkscape:connector-curvature="0" />
    </g>
  </g>
</svg>
