<?xml version="1.0" encoding="UTF-8" standalone="no"?>
<svg
   xmlns:dc="http://purl.org/dc/elements/1.1/"
   xmlns:cc="http://creativecommons.org/ns#"
   xmlns:rdf="http://www.w3.org/1999/02/22-rdf-syntax-ns#"
   xmlns:svg="http://www.w3.org/2000/svg"
   xmlns="http://www.w3.org/2000/svg"
   xmlns:sodipodi="http://sodipodi.sourceforge.net/DTD/sodipodi-0.dtd"
   xmlns:inkscape="http://www.inkscape.org/namespaces/inkscape"
   id="svg7198"
   height="44"
   width="44"
   version="1.1"
   inkscape:version="1.1-dev (bc69992, 2020-04-15)"
   sodipodi:docname="deletePoint.svg">
  <sodipodi:namedview
     width="44px"
     pagecolor="#242121"
     bordercolor="#666666"
     borderopacity="1"
     objecttolerance="10"
     gridtolerance="10"
     guidetolerance="10"
     inkscape:pageopacity="0"
     inkscape:pageshadow="2"
     inkscape:window-width="1680"
     inkscape:window-height="1005"
     id="namedview17"
     showgrid="false"
     inkscape:zoom="4.4724807"
     inkscape:cx="47.722643"
     inkscape:cy="-11.305001"
     inkscape:window-x="0"
     inkscape:window-y="23"
     inkscape:window-maximized="0"
     inkscape:current-layer="svg7198" />
  <defs
     id="defs7200">
    <linearGradient
       id="linearGradient6903"
       y2="112.47"
       gradientUnits="userSpaceOnUse"
       x2="-312.37"
       gradientTransform="translate(331.34706,-150.96123)"
       y1="184.71001"
       x1="-313.01999">
      <stop
         id="stop22496-54-8"
         stop-color="#FFF"
         offset="0" />
      <stop
         id="stop22498-4-61"
         stop-color="#FFF"
         stop-opacity="0"
         offset="1" />
    </linearGradient>
  </defs>
  <metadata
     id="metadata7203">
    <rdf:RDF>
      <cc:Work
         rdf:about="">
        <dc:format>image/svg+xml</dc:format>
        <dc:type
           rdf:resource="http://purl.org/dc/dcmitype/StillImage" />
        <dc:title></dc:title>
      </cc:Work>
    </rdf:RDF>
  </metadata>
  <g
     transform="matrix(1.5,0,0,1.5,-7.7707207,-4.9260431)"
     id="g1412">
    <path
       id="path13071-0-9"
       d="m 9.35686,12.33223 c 1.78,-2.53 4.93,-3.56 7.86,-3.98 3.98,-0.72 8.33,0.08 11.52,2.67 2.63,1.98 4.71,5.1 4.53,8.5 -0.29,2.26 -2.5,3.8 -4.66,4 -2.75,0.43 -5.54,0.07 -8.28,-0.26 -3.99,-0.68 -8.05,-2.16 -10.93,-5.12 -1.31,-1.63 -1.39,-4.17 -0.04,-5.81 z"
       stroke-miterlimit="10"
       inkscape:connector-curvature="0"
       style="opacity:1;fill:#ffffff;fill-opacity:0.4;stroke:#000000;stroke-width:1.5;stroke-miterlimit:10;stroke-dasharray:none" />
    <path
       id="path25248-1"
       style="color:#000000;fill:#ffffff;fill-opacity:1;fill-rule:nonzero;stroke:none;enable-background:accumulate"
       d="m 10.550269,15.062683 c 0,1.343068 -1.0988734,2.441941 -2.4419414,2.441941 -1.343068,0 -2.4419418,-1.098873 -2.4419418,-2.441941 0,-1.343068 1.0988738,-2.441942 2.4419418,-2.441942 1.343068,0 2.4419414,1.098874 2.4419414,2.441942 z"
       inkscape:connector-curvature="0" />
    <path
       id="path25248-6-0"
       style="color:#000000;fill:#ffffff;fill-opacity:1;fill-rule:nonzero;stroke:none;enable-background:accumulate"
       d="m 22.037239,8.6431126 c 0,1.343068 -1.098873,2.4419414 -2.441941,2.4419414 -1.343068,0 -2.441942,-1.0988734 -2.441942,-2.4419414 0,-1.343068 1.098874,-2.4419418 2.441942,-2.4419418 1.343068,0 2.441941,1.0988738 2.441941,2.4419418 z"
       inkscape:connector-curvature="0" />
    <path
       id="path25248-8-8"
       style="color:#000000;fill:#ffffff;fill-opacity:1;fill-rule:nonzero;stroke:none;enable-background:accumulate"
       d="m 27.300279,23.562673 c 0,1.343068 -1.098873,2.441941 -2.441941,2.441941 -1.343068,0 -2.441942,-1.098873 -2.441942,-2.441941 0,-1.343068 1.098874,-2.441942 2.441942,-2.441942 1.343068,0 2.441941,1.098874 2.441941,2.441942 z"
       inkscape:connector-curvature="0" />
    <path
       inkscape:connector-curvature="0"
       style="color:#000000;text-indent:0;text-align:start;text-transform:none;direction:ltr;baseline-shift:baseline;fill:#ffffff;fill-opacity:1;enable-background:accumulate"
       d="m 5.88927,27.70022 v 2 h 9.19 v -2 z"
       id="path25214" />
    <path
       id="path13071-0-9-7"
       d="m 9.35686,12.33223 c 1.78,-2.5300003 4.93,-3.5600003 7.86,-3.9800003 3.98,-0.72 8.33,0.08 11.52,2.6700003 2.63,1.98 4.71,5.1 4.53,8.499999 -0.29,2.26 -2.5,3.8 -4.66,4 -2.75,0.43 -5.54,0.07 -8.28,-0.26 -3.99,-0.68 -8.05,-2.16 -10.93,-5.12 -1.31,-1.629999 -1.39,-4.169999 -0.04,-5.809999 z"
       stroke-miterlimit="10"
       inkscape:connector-curvature="0"
       style="opacity:1;fill:none;fill-opacity:1;stroke:#ffffff;stroke-width:1.5;stroke-miterlimit:10;stroke-dasharray:none;stroke-opacity:1" />
  </g>
</svg>
