<?xml version="1.0" encoding="UTF-8" standalone="no"?>
<svg
   xmlns:dc="http://purl.org/dc/elements/1.1/"
   xmlns:cc="http://creativecommons.org/ns#"
   xmlns:rdf="http://www.w3.org/1999/02/22-rdf-syntax-ns#"
   xmlns:svg="http://www.w3.org/2000/svg"
   xmlns="http://www.w3.org/2000/svg"
   xmlns:sodipodi="http://sodipodi.sourceforge.net/DTD/sodipodi-0.dtd"
   xmlns:inkscape="http://www.inkscape.org/namespaces/inkscape"
   sodipodi:docname="delete.svg"
   inkscape:version="1.1-dev (bc69992, 2020-04-15)"
   version="1.1"
   width="44"
   height="44"
   id="svg7275">
  <sodipodi:namedview
     inkscape:current-layer="svg7275"
     inkscape:window-maximized="0"
     inkscape:window-y="23"
     inkscape:window-x="0"
     inkscape:cy="19.604411"
     inkscape:cx="14.308203"
     inkscape:zoom="6.3250428"
     showgrid="false"
     id="namedview16"
     inkscape:window-height="753"
     inkscape:window-width="1131"
     inkscape:pageshadow="2"
     inkscape:pageopacity="0"
     guidetolerance="10"
     gridtolerance="10"
     objecttolerance="10"
     borderopacity="1"
     bordercolor="#666666"
     pagecolor="#1f1919"
     width="44px" />
  <defs
     id="defs7277">
    <linearGradient
       x1="-313.01999"
       y1="184.71001"
       gradientTransform="translate(331.34708,-150.96124)"
       x2="-312.37"
       gradientUnits="userSpaceOnUse"
       y2="112.47"
       id="linearGradient25035">
      <stop
         offset="0"
         stop-color="#FFF"
         id="stop22496-54-6-4" />
      <stop
         offset="1"
         stop-opacity="0"
         stop-color="#FFF"
         id="stop22498-4-8-1" />
    </linearGradient>
    <linearGradient
       x1="-313.01999"
       y1="184.71001"
       gradientTransform="translate(368.81765,-122.34258)"
       x2="-312.37"
       gradientUnits="userSpaceOnUse"
       y2="112.47"
       id="linearGradient25035-6">
      <stop
         offset="0"
         stop-color="#FFF"
         id="stop22496-54-6-4-8" />
      <stop
         offset="1"
         stop-opacity="0"
         stop-color="#FFF"
         id="stop22498-4-8-1-4" />
    </linearGradient>
  </defs>
  <metadata
     id="metadata7280">
    <rdf:RDF>
      <cc:Work
         rdf:about="">
        <dc:format>image/svg+xml</dc:format>
        <dc:type
           rdf:resource="http://purl.org/dc/dcmitype/StillImage" />
        <dc:title />
      </cc:Work>
    </rdf:RDF>
  </metadata>
  <g
     id="g853">
    <path
       id="path24987"
       d="m 11.596377,42.788005 h 20.85719 v -7.742051 c -1.201649,-1.184482 -2.368965,-2.1973 -3.776611,-2.935456 -1.922638,-1.012818 -4.171438,-2.214467 -6.368738,-2.540629 -2.798125,-0.394827 -5.956745,-0.257496 -8.75487,0.188831 -0.635157,0.102998 -1.304647,0.223163 -2.00847,0.394827 0.0515,3.656446 0.06867,8.634705 0.0515,12.634478 z"
       stroke-miterlimit="10"
       inkscape:connector-curvature="0"
       style="fill:#ffffff;fill-opacity:0.4;stroke-width:1.71664;stroke-miterlimit:10" />
    <path
       inkscape:connector-curvature="0"
       d="m 11.480573,15.424317 c -0.326162,0 -1.012819,0.360495 -1.012819,1.235982 v 25.474954 c 0,0.66949 0.308996,1.544977 1.287481,1.544977 h 20.548194 c 0.995652,0 1.287481,-0.806822 1.287481,-1.544977 V 16.660299 c 0,-0.841154 -0.652324,-1.235982 -1.287481,-1.235982 z m 1.510644,2.574962 h 4.291603 v 10.076683 c -1.33898,0.0515 -2.660794,0.188831 -3.913942,0.377661 v 0.0515 c -0.120165,0.01717 -0.257496,0.03433 -0.377661,0.0515 z m 6.866564,0 h 4.06844 v 10.608842 c -0.463493,-0.120165 -0.961319,-0.24033 -1.441979,-0.308996 -0.85832,-0.137331 -1.733807,-0.18883 -2.626461,-0.223163 z m 6.643401,0 h 4.514766 v 14.042124 c -0.549325,-0.394827 -1.09865,-0.738156 -1.716641,-1.064317 -0.85832,-0.463494 -1.785306,-0.995652 -2.798125,-1.441979 z m -6.643401,12.651645 c 0.772489,0.03433 1.527811,0.120165 2.2488,0.223163 0.583658,0.08583 1.201649,0.257496 1.81964,0.48066 v 9.750521 h -4.06844 z m -2.574961,0.0515 v 10.402845 h -4.291603 v -9.922186 c 0.24033,-0.03433 0.514992,-0.120164 0.755322,-0.154497 1.115817,-0.171664 2.334632,-0.257496 3.536281,-0.326162 z m 9.218362,1.76814 c 0.532159,0.257496 1.064318,0.497826 1.562144,0.755322 1.047151,0.549326 1.974137,1.33898 2.952622,2.2488 v 5.630583 h -4.514766 z"
       style="color:#000000;text-indent:0;text-align:start;text-transform:none;direction:ltr;baseline-shift:baseline;opacity:0.97;fill:#ffffff;fill-opacity:1;stroke-width:1.71664;enable-background:accumulate"
       id="path10209-6" />
    <path
       inkscape:connector-curvature="0"
       d="M 12.613556,14.960824 C 16.750661,10.823719 20.904932,6.6694476 25.059204,2.5151761 26.22652,1.3478602 24.40688,-0.4717794 23.239564,0.69553654 19.085293,4.849808 14.931021,8.9869131 10.793916,13.141185 c -1.1844821,1.184482 0.635157,3.004121 1.81964,1.819639 z"
       id="path10205-6"
       style="fill:#ffffff;fill-opacity:1;fill-rule:evenodd;stroke-width:1.71664" />
  </g>
</svg>
