<?xml version="1.0" encoding="UTF-8" standalone="no"?>
<svg
   xmlns:dc="http://purl.org/dc/elements/1.1/"
   xmlns:cc="http://creativecommons.org/ns#"
   xmlns:rdf="http://www.w3.org/1999/02/22-rdf-syntax-ns#"
   xmlns:svg="http://www.w3.org/2000/svg"
   xmlns="http://www.w3.org/2000/svg"
   xmlns:sodipodi="http://sodipodi.sourceforge.net/DTD/sodipodi-0.dtd"
   xmlns:inkscape="http://www.inkscape.org/namespaces/inkscape"
   id="svg7024"
   height="44"
   width="44"
   version="1.1"
   inkscape:version="1.1-dev (bc69992, 2020-04-15)"
   sodipodi:docname="drawPolygon.svg">
  <sodipodi:namedview
     width="44px"
     pagecolor="#1f1f21"
     bordercolor="#666666"
     borderopacity="1"
     objecttolerance="10"
     gridtolerance="10"
     guidetolerance="10"
     inkscape:pageopacity="0"
     inkscape:pageshadow="2"
     inkscape:window-width="1554"
     inkscape:window-height="934"
     id="namedview17"
     showgrid="false"
     inkscape:zoom="7.4368672"
     inkscape:cx="-1.0953039"
     inkscape:cy="44.803349"
     inkscape:window-x="4"
     inkscape:window-y="23"
     inkscape:window-maximized="0"
     inkscape:current-layer="svg7024" />
  <defs
     id="defs7026">
    <linearGradient
       id="linearGradient25259"
       y2="112.47"
       gradientUnits="userSpaceOnUse"
       x2="-312.37"
       gradientTransform="translate(331.34707,-150.96124)"
       y1="184.71001"
       x1="-313.01999">
      <stop
         id="stop22496-54-6"
         stop-color="#FFF"
         offset="0" />
      <stop
         id="stop22498-4-8"
         stop-color="#FFF"
         stop-opacity="0"
         offset="1" />
    </linearGradient>
  </defs>
  <metadata
     id="metadata7029">
    <rdf:RDF>
      <cc:Work
         rdf:about="">
        <dc:format>image/svg+xml</dc:format>
        <dc:type
           rdf:resource="http://purl.org/dc/dcmitype/StillImage" />
        <dc:title></dc:title>
      </cc:Work>
    </rdf:RDF>
  </metadata>
  <g
     transform="matrix(1.4740709,0,0,1.4740709,-6.0268793,-6.8086826)"
     id="g1934">
    <path
       sodipodi:nodetypes="cccc"
       style="opacity:1;fill:#ffffff;fill-opacity:0.4;stroke:#000000;stroke-width:1.5;stroke-miterlimit:10;stroke-dasharray:none"
       inkscape:connector-curvature="0"
       stroke-miterlimit="10"
       d="m 23.87697,16.62688 -9.22,-5.86 -9.4066043,10.784532 7.5066043,7.845468"
       id="path24498-4" />
    <path
       id="path24741"
       d="M 28.544679,9.7772685 27.62544,10.696507 c -1.180868,1.180869 -7.672109,7.841815 -11.151074,11.193501 -0.961665,1.470782 -1.668772,5.105311 -1.046518,5.727565 0.622254,0.622254 4.207285,-0.162635 5.69221,-1.081874 3.139554,-3.139554 9.680291,-9.637865 11.1935,-11.151074 l 0.919239,-0.919238 z"
       inkscape:connector-curvature="0"
       style="fill:#000000;fill-opacity:1" />
    <path
       id="path24743"
       d="m 26.140516,12.181432 -9.751003,9.751002 c 0.494975,0.494975 1.152584,0.502046 2.71529,2.064752 1.555635,1.555635 1.541493,2.192031 2.001112,2.65165 l 9.751003,-9.751002 z"
       inkscape:connector-curvature="0"
       style="fill:#ffffff;fill-opacity:1" />
    <path
       id="path24745"
       d="M 30.567004,9.5509944 C 29.881111,8.8651008 29.117435,9.1762278 28.325476,9.9540452 l -0.0495,0.049498 -1.463711,1.463711 4.723473,4.723473 1.463711,-1.463711 0.0495,-0.0495 c 0.770746,-0.799031 1.032376,-1.612204 0.346482,-2.298098 z"
       inkscape:connector-curvature="0"
       style="fill:#ffffff;fill-opacity:1" />
    <path
       id="path24747"
       d="m 17.153188,25.906374 c -0.445477,-0.445477 -1.576848,-1.477853 -1.994041,-0.494975 -0.296984,0.692965 -0.346482,1.393001 -0.296984,2.05061 0.01414,0.226274 0.155563,0.410122 0.240416,0.494975 0.08485,0.08485 0.2687,0.226274 0.494975,0.240416 0.657609,0.0495 1.364716,0.0071 2.05768,-0.289914 0.975808,-0.424264 -0.05657,-1.555635 -0.502046,-2.001112 z"
       inkscape:connector-curvature="0"
       style="fill:#ffffff;fill-opacity:1" />
    <path
       sodipodi:nodetypes="cccc"
       style="fill:none;fill-opacity:1;stroke:#ffffff;stroke-width:1.5;stroke-miterlimit:10;stroke-dasharray:none;stroke-opacity:1"
       inkscape:connector-curvature="0"
       stroke-miterlimit="10"
       d="m 23.87697,16.62688 -9.22,-5.86 -9.4066043,10.784532 7.5066043,7.845468"
       id="path24498-4-0" />
  </g>
</svg>
