<?xml version="1.0" encoding="UTF-8" standalone="no"?>
<!-- Created with Inkscape (http://www.inkscape.org/) -->

<svg
   xmlns:dc="http://purl.org/dc/elements/1.1/"
   xmlns:cc="http://creativecommons.org/ns#"
   xmlns:rdf="http://www.w3.org/1999/02/22-rdf-syntax-ns#"
   xmlns:svg="http://www.w3.org/2000/svg"
   xmlns="http://www.w3.org/2000/svg"
   xmlns:sodipodi="http://sodipodi.sourceforge.net/DTD/sodipodi-0.dtd"
   xmlns:inkscape="http://www.inkscape.org/namespaces/inkscape"
   id="svg7024"
   height="37.312"
   width="37.312"
   version="1.1"
   inkscape:version="0.91 r13725"
   sodipodi:docname="draw-polygon.svg">
  <sodipodi:namedview
     pagecolor="#ffffff"
     bordercolor="#666666"
     borderopacity="1"
     objecttolerance="10"
     gridtolerance="10"
     guidetolerance="10"
     inkscape:pageopacity="0"
     inkscape:pageshadow="2"
     inkscape:window-width="1371"
     inkscape:window-height="784"
     id="namedview17"
     showgrid="false"
     inkscape:zoom="10.517318"
     inkscape:cx="2.7554871"
     inkscape:cy="18.656"
     inkscape:window-x="4"
     inkscape:window-y="23"
     inkscape:window-maximized="0"
     inkscape:current-layer="svg7024" />
  <defs
     id="defs7026">
    <linearGradient
       id="linearGradient25259"
       y2="112.47"
       gradientUnits="userSpaceOnUse"
       x2="-312.37"
       gradientTransform="translate(331.34707,-150.96124)"
       y1="184.71"
       x1="-313.02">
      <stop
         id="stop22496-54-6"
         stop-color="#FFF"
         offset="0" />
      <stop
         id="stop22498-4-8"
         stop-color="#FFF"
         stop-opacity="0"
         offset="1" />
    </linearGradient>
  </defs>
  <metadata
     id="metadata7029">
    <rdf:RDF>
      <cc:Work
         rdf:about="">
        <dc:format>image/svg+xml</dc:format>
        <dc:type
           rdf:resource="http://purl.org/dc/dcmitype/StillImage" />
        <dc:title />
      </cc:Work>
    </rdf:RDF>
  </metadata>
  <g
     id="g4157">
    <path
       inkscape:connector-curvature="0"
       style="fill:url(#linearGradient25259);stroke-miterlimit:10"
       stroke-miterlimit="10"
       d="m 18.65697,-0.00312 c -10.31,0 -18.66,8.36 -18.66,18.66 0,10.3 8.36,18.66 18.66,18.66 10.3,0 18.66,-8.36 18.66,-18.66 0,-10.3 -8.36,-18.66 -18.66,-18.66"
       id="path24366-1" />
    <path
       sodipodi:nodetypes="cccc"
       style="fill:#ea503c;stroke:#000000;stroke-width:1.5;stroke-miterlimit:10;stroke-dasharray:none;fill-opacity:1;opacity:0.4"
       inkscape:connector-curvature="0"
       stroke-miterlimit="10"
       d="m 23.87697,16.62688 -9.22,-5.86 -9.4066043,10.784532 7.5066043,7.845468"
       id="path24498-4" />
    <g
       transform="matrix(0.70710678,0.70710678,-0.70710678,0.70710678,317.51801,-29.67222)"
       id="g24749">
      <path
         style="fill:#ffffff"
         inkscape:connector-curvature="0"
         d="m -176.44,232.23 0,1.3 c 0,1.67 0.12,10.97 0.03,15.8 0.36,1.72 2.43,4.79 3.31,4.79 0.88,0 2.86,-3.09 3.26,-4.79 0,-4.44 0.03,-13.66 0.03,-15.8 l 0,-1.3 z"
         id="path24741" />
      <path
         inkscape:connector-curvature="0"
         d="m -176.44,235.63 0,13.79 c 0.7,0 1.17,-0.46 3.38,-0.46 2.2,0 2.64,0.46 3.29,0.46 l 0,-13.79 z"
         id="path24743" />
      <path
         inkscape:connector-curvature="0"
         d="m -175.17,230.64 c -0.97,0 -1.29,0.76 -1.3,1.87 l 0,0.07 0,2.07 6.68,0 0,-2.07 0,-0.07 c -0.02,-1.11 -0.41,-1.87 -1.38,-1.87 z"
         id="path24745" />
      <path
         inkscape:connector-curvature="0"
         d="m -173.09,251.69 c -0.63,0 -2.16,0.07 -1.76,1.06 0.28,0.7 0.74,1.23 1.24,1.66 0.17,0.15 0.4,0.18 0.52,0.18 0.12,0 0.35,-0.03 0.52,-0.18 0.5,-0.43 0.97,-0.96 1.25,-1.66 0.39,-0.99 -1.14,-1.06 -1.77,-1.06 z"
         id="path24747" />
    </g>
    <path
       sodipodi:nodetypes="cccc"
       style="opacity:1;fill:none;fill-opacity:1;stroke:#000000;stroke-width:1.5;stroke-miterlimit:10;stroke-dasharray:none"
       inkscape:connector-curvature="0"
       stroke-miterlimit="10"
       d="m 23.87697,16.62688 -9.22,-5.86 -9.4066043,10.784532 7.5066043,7.845468"
       id="path24498-4-0" />
  </g>
</svg>
