<?xml version="1.0" encoding="UTF-8"?>
<svg width="38px" height="38px" viewBox="0 0 38 38" version="1.1" xmlns="http://www.w3.org/2000/svg" xmlns:xlink="http://www.w3.org/1999/xlink">
    <!-- Generator: Sketch 41.2 (35397) - http://www.bohemiancoding.com/sketch -->
    <title>drawLine</title>
    <desc>Created with Sketch.</desc>
    <defs>
        <linearGradient x1="49.1160236%" y1="90.4391211%" x2="50.857717%" y2="-103.130011%" id="linearGradient-1">
            <stop stop-color="#FFFFFF" offset="0%"></stop>
            <stop stop-color="#FFFFFF" stop-opacity="0" offset="100%"></stop>
        </linearGradient>
    </defs>
    <g id="Page-1" stroke="none" stroke-width="1" fill="none" fill-rule="evenodd">
        <g id="drawLine" transform="translate(-1.000000, -1.000000)">
            <g id="g4157">
                <path d="M19.65697,0.99688 C9.34697,0.99688 0.99697,9.35688 0.99697,19.65688 C0.99697,29.95688 9.35697,38.31688 19.65697,38.31688 C29.95697,38.31688 38.31697,29.95688 38.31697,19.65688 C38.31697,9.35688 29.95697,0.99688 19.65697,0.99688" id="path24366-1" fill="url(#linearGradient-1)"></path>
                <g id="g24749" transform="translate(24.715143, 20.471701) rotate(45.000000) translate(-24.715143, -20.471701) translate(20.715143, 7.971701)">
                    <path d="M0.559999999,2.23 L0.559999999,3.52999999 C0.559999999,5.19999999 0.679999999,14.5 0.589999999,19.33 C0.949999998,21.05 3.01999999,24.12 3.89999999,24.12 C4.77999999,24.12 6.75999999,21.03 7.15999999,19.33 C7.15999999,14.89 7.18999999,5.66999999 7.18999999,3.52999999 L7.18999999,2.23 L0.559999999,2.23 Z" id="path24741" fill="#FFFFFF"></path>
                    <path d="M0.559999999,5.62999999 L0.559999999,19.42 C1.26,19.42 1.73,18.96 3.93999999,18.96 C6.13999999,18.96 6.57999999,19.42 7.22999999,19.42 L7.22999999,5.62999999 L0.559999999,5.62999999 Z" id="path24743" fill="#000000"></path>
                    <path d="M1.83,0.639999999 C0.859999999,0.639999999 0.539999999,1.4 0.529999999,2.51 L0.529999999,2.58 L0.529999999,4.64999999 L7.20999999,4.64999999 L7.20999999,2.58 L7.20999999,2.51 C7.18999999,1.4 6.79999999,0.639999999 5.82999999,0.639999999 L1.83,0.639999999 Z" id="path24745" fill="#000000"></path>
                    <path d="M3.90999999,21.69 C3.27999999,21.69 1.75,21.76 2.15,22.75 C2.43,23.45 2.89,23.98 3.38999999,24.41 C3.55999999,24.56 3.78999999,24.59 3.90999999,24.59 C4.02999999,24.59 4.25999999,24.56 4.42999999,24.41 C4.92999999,23.98 5.39999999,23.45 5.67999999,22.75 C6.06999999,21.76 4.53999999,21.69 3.90999999,21.69 L3.90999999,21.69 Z" id="path24747" fill="#000000"></path>
                </g>
                <path d="M16,28 L6,16" id="Line" stroke="#000000" stroke-width="2" stroke-linecap="square"></path>
            </g>
        </g>
    </g>
</svg>