<?xml version="1.0" encoding="UTF-8" standalone="no"?>
<svg
   xmlns:dc="http://purl.org/dc/elements/1.1/"
   xmlns:cc="http://creativecommons.org/ns#"
   xmlns:rdf="http://www.w3.org/1999/02/22-rdf-syntax-ns#"
   xmlns:svg="http://www.w3.org/2000/svg"
   xmlns="http://www.w3.org/2000/svg"
   xmlns:sodipodi="http://sodipodi.sourceforge.net/DTD/sodipodi-0.dtd"
   xmlns:inkscape="http://www.inkscape.org/namespaces/inkscape"
   sodipodi:docname="findContours.svg"
   inkscape:version="1.0beta1 (32d4812, 2019-09-19)"
   version="1.1"
   width="37.310001"
   height="37.310001"
   id="svg7275">
  <sodipodi:namedview
     inkscape:snap-global="true"
     inkscape:document-rotation="0"
     fit-margin-bottom="0"
     fit-margin-right="0"
     fit-margin-left="0"
     fit-margin-top="0"
     inkscape:current-layer="svg7275"
     inkscape:window-maximized="0"
     inkscape:window-y="23"
     inkscape:window-x="8"
     inkscape:cy="16.870705"
     inkscape:cx="25.995176"
     inkscape:zoom="8.9449614"
     showgrid="false"
     id="namedview16"
     inkscape:window-height="937"
     inkscape:window-width="1642"
     inkscape:pageshadow="2"
     inkscape:pageopacity="0"
     guidetolerance="10"
     gridtolerance="10"
     objecttolerance="10"
     borderopacity="1"
     bordercolor="#666666"
     pagecolor="#7f7f7f" />
  <defs
     id="defs7277">
    <linearGradient
       x1="-313.01999"
       y1="184.71001"
       gradientTransform="translate(331.34653,-150.95999)"
       x2="-312.37"
       gradientUnits="userSpaceOnUse"
       y2="112.47"
       id="linearGradient25035">
      <stop
         offset="0"
         stop-color="#FFF"
         id="stop22496-54-6-4" />
      <stop
         offset="1"
         stop-opacity="0"
         stop-color="#FFF"
         id="stop22498-4-8-1" />
    </linearGradient>
  </defs>
  <metadata
     id="metadata7280">
    <rdf:RDF>
      <cc:Work
         rdf:about="">
        <dc:format>image/svg+xml</dc:format>
        <dc:type
           rdf:resource="http://purl.org/dc/dcmitype/StillImage" />
        <dc:title></dc:title>
      </cc:Work>
    </rdf:RDF>
  </metadata>
  <g
     id="g4139">
    <path
       id="path24366-1-4"
       d="M 18.66,0 C 8.3500001,0 0,8.35 0,18.66 c 0,10.3 8.3500001,18.65 18.66,18.65 10.3,0 18.65,-8.35 18.65,-18.65 C 37.31,8.35 28.96,0 18.66,0"
       stroke-miterlimit="10"
       style="fill:url(#linearGradient25035);stroke-miterlimit:10"
       inkscape:connector-curvature="0" />
  </g>
  <path
     id="path899"
     d="m 10.128618,30.465965 c -0.05793,-0.01562 -0.1512596,-0.05568 -0.2074036,-0.08902 -0.0568,-0.03372 -0.751994,-0.712861 -1.56757,-1.531344 -1.614613,-1.62038 -1.553865,-1.54851 -1.580791,-1.870277 -0.01588,-0.189864 0.03563,-0.408395 0.131108,-0.556054 0.03715,-0.05746 4.0941496,-4.129352 9.0155606,-9.048655 7.168862,-7.165795 8.969786,-8.954364 9.057517,-8.9953936 0.254023,-0.1187927 0.557599,-0.1153863 0.810841,0.00911 0.166349,0.081773 3.023783,2.9450186 3.099134,3.1054346 0.113858,0.242403 0.11398,0.542016 3.25e-4,0.792872 -0.04253,0.09391 -1.561003,1.623492 -8.995089,9.06101 -4.919143,4.921416 -8.990665,8.978265 -9.047829,9.015215 -0.193523,0.125107 -0.486471,0.168944 -0.715794,0.107111 z"
     style="fill:#000000;stroke-width:0.02304502" />
  <path
     id="path895"
     d="m 27.497562,19.985505 c -0.04444,-0.143871 -0.136302,-0.442408 -0.20415,-0.663417 L 27.170063,18.92025 26.521071,18.722041 c -0.356947,-0.109016 -0.654026,-0.203252 -0.660184,-0.209405 -0.0062,-0.0062 0.27415,-0.09852 0.622908,-0.205257 0.348753,-0.106733 0.648345,-0.205005 0.665755,-0.218379 0.0174,-0.01337 0.119908,-0.313396 0.227774,-0.666714 0.107871,-0.353324 0.199884,-0.646163 0.204476,-0.650755 0.0046,-0.0046 0.09971,0.29113 0.21137,0.657164 l 0.203022,0.665513 0.664345,0.203946 c 0.365387,0.11217 0.656986,0.210177 0.647995,0.217784 -0.009,0.0076 -0.301532,0.09961 -0.650086,0.204436 -0.348559,0.104824 -0.64175,0.197966 -0.65154,0.206975 -0.0098,0.009 -0.106,0.30542 -0.213796,0.658683 -0.107797,0.353266 -0.200214,0.646518 -0.20537,0.651678 -0.0052,0.0052 -0.04574,-0.108335 -0.09018,-0.252205 z"
     style="fill:#000000;stroke-width:0.02304502" />
  <path
     id="path893"
     d="M 13.923231,14.495949 13.511434,13.153962 12.275981,12.776755 C 11.596478,12.569289 10.99142,12.383048 10.931397,12.362883 l -0.109129,-0.03667 1.34494,-0.4127 1.344946,-0.4127 0.411906,-1.344794 c 0.276194,-0.9017315 0.417634,-1.3313597 0.429294,-1.3040255 0.0095,0.022435 0.194551,0.6215019 0.411086,1.3312905 0.216531,0.709783 0.400558,1.29768 0.408942,1.306437 0.0084,0.0088 0.614003,0.199863 1.345819,0.424686 0.731815,0.224827 1.326685,0.412661 1.321934,0.417413 -0.0047,0.0048 -0.608406,0.19216 -1.341453,0.416458 l -1.332813,0.407809 -0.408339,1.333343 c -0.224585,0.733334 -0.411754,1.336749 -0.415924,1.340919 -0.0043,0.0043 -0.192889,-0.596311 -0.419375,-1.334406 z"
     style="fill:#000000;stroke-width:0.02304502" />
  <path
     id="path891"
     d="m 9.9138674,11.393152 c -0.0079,-0.01901 -0.101483,-0.317943 -0.20799,-0.664284 -0.106504,-0.346346 -0.197181,-0.632742 -0.201503,-0.636434 -0.0043,-0.0039 -0.30772,-0.098267 -0.674209,-0.2101605 -0.366489,-0.111893 -0.656856,-0.2064194 -0.64526,-0.2100516 0.01159,-0.00347 0.311108,-0.095121 0.665586,-0.2033037 0.354473,-0.1081827 0.650724,-0.2042974 0.658331,-0.2135882 0.0076,-0.00929 0.100176,-0.3020698 0.205712,-0.6506283 0.10554,-0.3485541 0.197142,-0.6430472 0.203568,-0.6544296 0.0064,-0.011369 0.1028236,0.2774998 0.2142306,0.641958 0.111407,0.3644582 0.20592,0.666016 0.210034,0.6701255 0.0039,0.00391 0.305832,0.098315 0.670499,0.2093399 0.364662,0.1110207 0.649693,0.2084763 0.633403,0.2165607 -0.01627,0.00807 -0.3148,0.1013525 -0.663354,0.207257 -0.348554,0.1059048 -0.636308,0.1940778 -0.639446,0.1959398 -0.003,0.0017 -0.09407,0.292913 -0.202062,0.646779 -0.2334546,0.764951 -0.2099516,0.697308 -0.2275396,0.65492 z"
     style="fill:#000000;stroke-width:0.02304502" />
  <path
     id="path887"
     d="m 18.734764,11.380612 c -0.0069,-0.02478 -0.09784,-0.324704 -0.202154,-0.666467 L 18.34295,10.092755 17.699113,9.8944153 C 17.345004,9.78533 17.042314,9.691628 17.026479,9.686182 c -0.01584,-0.00542 0.243418,-0.091853 0.576124,-0.1920255 0.332707,-0.1001721 0.636096,-0.1945076 0.674196,-0.2096393 0.06701,-0.026601 0.07558,-0.048433 0.263202,-0.6705334 0.106659,-0.353666 0.200209,-0.6505675 0.20789,-0.6597802 0.01128,-0.013539 0.176972,0.5042409 0.385821,1.2056713 l 0.0315,0.1058047 0.66878,0.2037507 c 0.367835,0.1120622 0.655311,0.2107719 0.638838,0.2193554 -0.01649,0.00859 -0.313283,0.1021075 -0.659589,0.2078297 -0.389566,0.1189356 -0.636851,0.2058376 -0.648541,0.2279216 -0.01041,0.01961 -0.104178,0.315691 -0.208411,0.65791 -0.10423,0.342218 -0.193905,0.626948 -0.199273,0.632732 -0.0054,0.0058 -0.0154,-0.0098 -0.02226,-0.03459 z"
     style="fill:#000000;stroke-width:0.02304502" />
  <path
     inkscape:connector-curvature="0"
     id="path897"
     d="m 27.508618,11.815277 c 0,-0.04357 -2.073364,-2.1166811 -2.116934,-2.1166811 -0.0182,0 -1.341911,1.3087791 -2.941615,2.9083961 l -2.908541,2.908402 1.07488,1.075262 1.074884,1.075266 2.908666,-2.908521 c 1.599761,-1.599685 2.90866,-2.923644 2.90866,-2.942124 z"
     style="fill:#ffffff;stroke-width:0.0333356" />
  <path
     sodipodi:nodetypes="ccccc"
     id="path13071-0-9"
     d="m 19.541528,15.515394 c 1.962534,-2.175891 3.054906,-2.929982 5.877458,-5.7981771 1.481402,0.5157471 0.07334,0.2156996 2.089632,2.0980601 -4.531963,4.617792 -4.238568,4.035718 -5.817326,5.850645 -1.273194,-0.537533 -0.682042,-0.796187 -2.149764,-2.150528 z"
     stroke-miterlimit="10"
     inkscape:connector-curvature="0"
     style="opacity:0.4;fill:#ea503c;fill-opacity:1;stroke:none;stroke-width:1.21564;stroke-miterlimit:10;stroke-dasharray:none" />
</svg>
