<?xml version="1.0" encoding="UTF-8" standalone="no"?>
<svg
   xmlns:dc="http://purl.org/dc/elements/1.1/"
   xmlns:cc="http://creativecommons.org/ns#"
   xmlns:rdf="http://www.w3.org/1999/02/22-rdf-syntax-ns#"
   xmlns:svg="http://www.w3.org/2000/svg"
   xmlns="http://www.w3.org/2000/svg"
   xmlns:sodipodi="http://sodipodi.sourceforge.net/DTD/sodipodi-0.dtd"
   xmlns:inkscape="http://www.inkscape.org/namespaces/inkscape"
   id="svg7275"
   height="44"
   width="44"
   version="1.1"
   inkscape:version="1.1-dev (bc69992, 2020-04-15)"
   sodipodi:docname="findContours.svg">
  <sodipodi:namedview
     pagecolor="#7f7f7f"
     bordercolor="#666666"
     borderopacity="1"
     objecttolerance="10"
     gridtolerance="10"
     guidetolerance="10"
     inkscape:pageopacity="0"
     inkscape:pageshadow="2"
     inkscape:window-width="1642"
     inkscape:window-height="937"
     id="namedview16"
     showgrid="false"
     inkscape:zoom="5.8577369"
     inkscape:cx="-10.862521"
     inkscape:cy="22"
     inkscape:window-x="8"
     inkscape:window-y="23"
     inkscape:window-maximized="0"
     inkscape:current-layer="svg7275"
     fit-margin-top="0"
     fit-margin-left="0"
     fit-margin-right="0"
     fit-margin-bottom="0"
     inkscape:document-rotation="0"
     inkscape:snap-global="true"
     width="44px" />
  <defs
     id="defs7277">
    <linearGradient
       id="linearGradient25035"
       y2="112.47"
       gradientUnits="userSpaceOnUse"
       x2="-312.37"
       gradientTransform="translate(331.34653,-150.95999)"
       y1="184.71001"
       x1="-313.01999">
      <stop
         id="stop22496-54-6-4"
         stop-color="#FFF"
         offset="0" />
      <stop
         id="stop22498-4-8-1"
         stop-color="#FFF"
         stop-opacity="0"
         offset="1" />
    </linearGradient>
  </defs>
  <metadata
     id="metadata7280">
    <rdf:RDF>
      <cc:Work
         rdf:about="">
        <dc:format>image/svg+xml</dc:format>
        <dc:type
           rdf:resource="http://purl.org/dc/dcmitype/StillImage" />
        <dc:title />
      </cc:Work>
    </rdf:RDF>
  </metadata>
  <path
     style="fill:#ffffff;fill-opacity:1;stroke-width:0.0408513"
     d="M 7.9768163,41.932145 C 7.8741254,41.904456 7.7086824,41.833442 7.6091574,41.774341 7.5084696,41.714567 6.2761175,40.510672 4.8303673,39.059768 1.9681853,36.187363 2.0758717,36.314765 2.0281407,35.744377 1.9999906,35.40781 2.0913011,35.020426 2.2605524,34.758675 2.3264072,34.656817 9.5181437,27.438681 18.2422,18.718362 30.950253,6.015746 34.142703,2.8451968 34.298222,2.7724647 c 0.4503,-0.2105807 0.988441,-0.2045423 1.437356,0.016149 0.294883,0.1449568 5.360181,5.220557 5.493754,5.5049222 0.201833,0.4297014 0.202049,0.9608175 5.76e-4,1.4055033 C 41.154516,9.8655111 38.462759,12.576961 25.28455,25.761253 16.564515,34.485318 9.3470346,41.676788 9.2457015,41.742288 8.9026484,41.964062 8.3833472,42.041771 7.9768323,41.932161 Z"
     id="path899" />
  <path
     style="fill:#ffffff;fill-opacity:1;stroke-width:0.0490216"
     d="m 38.735372,23.878713 c -0.09454,-0.306043 -0.289943,-0.941094 -0.43427,-1.411226 l -0.262389,-0.854793 -1.380541,-0.421632 c -0.759301,-0.2319 -1.39125,-0.43236 -1.404349,-0.445448 -0.01319,-0.01319 0.583174,-0.209573 1.325054,-0.436625 0.741872,-0.227043 1.379166,-0.436088 1.416201,-0.464537 0.03701,-0.02844 0.255069,-0.666658 0.484523,-1.41824 0.229464,-0.751594 0.425194,-1.374523 0.434962,-1.384291 0.0098,-0.0098 0.212104,0.619293 0.449628,1.397924 l 0.431871,1.415686 1.4132,0.433835 c 0.777255,0.238609 1.397547,0.447091 1.37842,0.463272 -0.01914,0.01616 -0.641421,0.211891 -1.382868,0.434878 -0.741457,0.222982 -1.365136,0.421115 -1.385962,0.440279 -0.02084,0.01914 -0.225483,0.649692 -0.454788,1.401156 -0.229307,0.75147 -0.425897,1.375278 -0.436865,1.386255 -0.01104,0.01104 -0.0973,-0.230451 -0.191832,-0.536493 z"
     id="path895" />
  <path
     style="fill:#ffffff;fill-opacity:1;stroke-width:0.0490216"
     d="M 12.558605,17.581676 11.682627,14.726989 9.054561,13.924592 C 7.6091162,13.483268 6.322032,13.087095 6.1943506,13.0442 l -0.2321402,-0.07801 2.8609676,-0.877899 2.860981,-0.877899 0.87621,-2.8606577 c 0.587521,-1.9181708 0.888394,-2.8320795 0.913198,-2.773934 0.02021,0.047724 0.41385,1.322064 0.874465,2.8319323 0.460607,1.5098562 0.852071,2.7604364 0.869905,2.7790644 0.01787,0.01872 1.306112,0.42515 2.862838,0.903395 1.556722,0.478254 2.822134,0.877816 2.812028,0.887925 -0.01,0.01021 -1.294206,0.408764 -2.85355,0.885893 l -2.835171,0.867494 -0.868621,2.836299 c -0.47774,1.559954 -0.875888,2.843544 -0.884758,2.852414 -0.0091,0.0091 -0.410315,-1.268477 -0.892098,-2.838559 z"
     id="path893" />
  <path
     style="fill:#ffffff;fill-opacity:1;stroke-width:0.0490216"
     d="M 7.5954655,8.7285385 C 7.5786606,8.6881003 7.3795901,8.0522074 7.1530274,7.3154679 6.9264713,6.5787178 6.7335823,5.9694938 6.7243885,5.9616401 6.7152415,5.9533441 6.069804,5.7526058 5.2902055,5.5145849 4.510607,5.2765653 3.8929358,5.0754879 3.9176029,5.0677615 3.9422573,5.06038 4.5793945,4.8654193 5.3334431,4.6352921 6.0874811,4.4051649 6.7176688,4.2007089 6.7338504,4.1809455 6.7500172,4.1611837 6.9469456,3.5383801 7.1714426,2.7969235 7.3959482,2.0554762 7.5908048,1.429028 7.6044743,1.4048153 c 0.013614,-0.024185 0.2187272,0.5903 0.4557131,1.3655784 0.2369859,0.7752786 0.4380348,1.416755 0.4467861,1.4254967 0.00829,0.00832 0.6505684,0.2091365 1.4262911,0.4453096 C 10.708976,4.8773642 11.315297,5.0846726 11.280644,5.1018698 11.246035,5.1190363 10.611,5.3174677 9.8695526,5.5427486 9.1281056,5.7680302 8.5159928,5.9555925 8.5093177,5.9595533 8.502936,5.9631697 8.3092111,6.5826404 8.0794897,7.3353872 7.582883,8.9625974 7.6328789,8.8187066 7.5954655,8.7285385 Z"
     id="path891" />
  <path
     style="fill:#ffffff;fill-opacity:1;stroke-width:0.0490216"
     d="M 23.227428,8.7011357 C 23.212751,8.6484234 23.019303,8.0104225 22.797405,7.2834215 L 22.393959,5.9615953 21.024383,5.5396855 C 20.271119,5.3076383 19.627234,5.1083147 19.59355,5.0967299 c -0.0337,-0.011532 0.517801,-0.1953905 1.225536,-0.4084783 0.707737,-0.2130869 1.353109,-0.4137582 1.434156,-0.4459464 0.142543,-0.056586 0.160774,-0.1030272 0.559885,-1.4263644 0.226885,-0.7523213 0.425886,-1.3838927 0.442225,-1.40349 0.024,-0.0288 0.376457,1.0726255 0.820722,2.5647141 l 0.06701,0.2250687 1.422635,0.4334202 c 0.782461,0.2383797 1.393983,0.4483559 1.358941,0.4666147 -0.03508,0.018272 -0.666418,0.217204 -1.403083,0.442097 -0.828689,0.2530008 -1.354715,0.4378595 -1.379582,0.4848369 -0.02214,0.041714 -0.221608,0.6715405 -0.443333,1.3995116 -0.221719,0.7279691 -0.412477,1.3336491 -0.423895,1.3459529 -0.01152,0.012337 -0.03276,-0.020846 -0.04735,-0.07358 z"
     id="path887" />
  <path
     style="fill:#ffffff;stroke-width:0.0590931"
     d="m 38.785885,8.8705608 c 0,-0.077235 -3.675398,-3.7521849 -3.752633,-3.7521849 -0.03226,0 -2.37877,2.3200383 -5.214524,5.1556371 l -5.155894,5.155648 1.905412,1.906089 1.905418,1.906095 5.156116,-5.155858 c 2.835854,-2.83572 5.156105,-5.1826672 5.156105,-5.2154262 z"
     id="path897"
     inkscape:connector-curvature="0" />
  <path
     style="fill:#000000;fill-opacity:0.4;stroke:none;stroke-width:2.15493;stroke-miterlimit:10;stroke-dasharray:none"
     inkscape:connector-curvature="0"
     stroke-miterlimit="10"
     d="m 24.662834,15.429661 c 3.478933,-3.857145 5.415352,-5.193902 10.418816,-10.2782762 2.626042,0.9142514 0.130007,0.382365 3.704235,3.719176 -8.033691,8.1858382 -7.513598,7.1540112 -10.312221,10.3712842 -2.256957,-0.95287 -1.209037,-1.411379 -3.81083,-3.812184 z"
     id="path13071-0-9"
     sodipodi:nodetypes="ccccc" />
</svg>
