<?xml version="1.0" encoding="UTF-8" standalone="no"?>
<svg
   xmlns:dc="http://purl.org/dc/elements/1.1/"
   xmlns:cc="http://creativecommons.org/ns#"
   xmlns:rdf="http://www.w3.org/1999/02/22-rdf-syntax-ns#"
   xmlns:svg="http://www.w3.org/2000/svg"
   xmlns="http://www.w3.org/2000/svg"
   xmlns:sodipodi="http://sodipodi.sourceforge.net/DTD/sodipodi-0.dtd"
   xmlns:inkscape="http://www.inkscape.org/namespaces/inkscape"
   sodipodi:docname="flipRegion.svg"
   inkscape:version="1.1-dev (bc69992, 2020-04-15)"
   version="1.1"
   id="svg23607"
   height="44"
   width="44">
  <defs
     id="defs23609" />
  <sodipodi:namedview
     width="44px"
     inkscape:window-maximized="0"
     inkscape:window-y="23"
     inkscape:window-x="55"
     inkscape:window-height="851"
     inkscape:window-width="1440"
     fit-margin-bottom="0"
     fit-margin-right="0"
     fit-margin-left="0"
     fit-margin-top="0"
     showgrid="false"
     inkscape:current-layer="layer1"
     inkscape:document-units="px"
     inkscape:cy="20.723438"
     inkscape:cx="8.1445548"
     inkscape:zoom="3.6782655"
     inkscape:pageshadow="2"
     inkscape:pageopacity="0"
     borderopacity="1.0"
     bordercolor="#666666"
     pagecolor="#191317"
     id="base" />
  <metadata
     id="metadata23612">
    <rdf:RDF>
      <cc:Work
         rdf:about="">
        <dc:format>image/svg+xml</dc:format>
        <dc:type
           rdf:resource="http://purl.org/dc/dcmitype/StillImage" />
        <dc:title></dc:title>
      </cc:Work>
    </rdf:RDF>
  </metadata>
  <g
     transform="translate(-356.344,-513.70618)"
     id="layer1"
     inkscape:groupmode="layer"
     inkscape:label="Layer 1">
    <g
       transform="matrix(1.5,0,0,1.5,-184.31185,-265.52556)"
       id="g2195">
      <path
         style="fill:#ffffff;fill-opacity:0.4;stroke:none;stroke-width:1.21564;stroke-miterlimit:10;stroke-dasharray:none"
         inkscape:connector-curvature="0"
         stroke-miterlimit="10"
         d="m 377.28448,542.77077 c -1.76798,-1.77704 -2.14631,-4.43686 -2.06895,-6.8352 -0.0142,-3.27886 1.23648,-6.63927 3.752,-8.82172 1.95001,-1.82121 4.73212,-3.04292 7.41947,-2.42089 1.76232,0.54949 2.67992,2.53056 2.53538,4.28322 -0.0441,2.25606 -0.72407,4.43289 -1.37308,6.57402 -1.10429,3.08988 -2.85662,6.12312 -5.62369,8.00603 -1.48494,0.81656 -3.52275,0.52306 -4.64114,-0.78546 z"
         id="path13071-0-9" />
      <path
         style="fill:#ffffff;fill-opacity:0.4;stroke:none;stroke-width:1.21564;stroke-miterlimit:10;stroke-dasharray:none"
         inkscape:connector-curvature="0"
         stroke-miterlimit="10"
         d="m 372.31518,542.77077 c 1.76798,-1.77704 2.14631,-4.43686 2.06895,-6.8352 0.0142,-3.27886 -1.23648,-6.63927 -3.752,-8.82172 -1.95001,-1.82121 -4.73212,-3.04292 -7.41947,-2.42089 -1.76232,0.54949 -2.67992,2.53056 -2.53538,4.28322 0.0441,2.25606 0.72407,4.43289 1.37308,6.57402 1.10429,3.08988 2.85662,6.12312 5.62369,8.00603 1.48494,0.81656 3.52275,0.52306 4.64114,-0.78546 z"
         id="path13071-0-9-6" />
      <path
         style="fill:none;fill-opacity:1;stroke:#ffffff;stroke-width:1.21564;stroke-miterlimit:10;stroke-dasharray:none;stroke-opacity:1"
         inkscape:connector-curvature="0"
         stroke-miterlimit="10"
         d="m 377.28448,542.77077 c -1.76798,-1.77704 -2.14631,-4.43686 -2.06895,-6.8352 -0.0142,-3.27886 1.23648,-6.63927 3.752,-8.82172 1.95001,-1.82121 4.73212,-3.04292 7.41947,-2.42089 1.76232,0.54949 2.67992,2.53056 2.53538,4.28322 -0.0441,2.25606 -0.72407,4.43289 -1.37308,6.57402 -1.10429,3.08988 -2.85662,6.12312 -5.62369,8.00603 -1.48494,0.81656 -3.52275,0.52306 -4.64114,-0.78546 z"
         id="path13071-0-9-73" />
      <path
         style="fill:none;fill-rule:evenodd;stroke:#e6e6e6;stroke-width:0.799;stroke-linecap:butt;stroke-linejoin:miter;stroke-miterlimit:4;stroke-dasharray:2.397, 2.397;stroke-dashoffset:3.2759;stroke-opacity:1"
         d="m 374.56146,519.51596 c 0,9.75902 0,19.51805 0,29.27707"
         id="path4198"
         inkscape:connector-curvature="0" />
    </g>
  </g>
</svg>
