<?xml version="1.0" encoding="UTF-8" standalone="no"?>
<svg
   xmlns:dc="http://purl.org/dc/elements/1.1/"
   xmlns:cc="http://creativecommons.org/ns#"
   xmlns:rdf="http://www.w3.org/1999/02/22-rdf-syntax-ns#"
   xmlns:svg="http://www.w3.org/2000/svg"
   xmlns="http://www.w3.org/2000/svg"
   xmlns:sodipodi="http://sodipodi.sourceforge.net/DTD/sodipodi-0.dtd"
   xmlns:inkscape="http://www.inkscape.org/namespaces/inkscape"
   sodipodi:docname="home.svg"
   inkscape:version="1.1-dev (bc69992, 2020-04-15)"
   version="1.1"
   id="svg23751"
   height="44"
   width="44">
  <defs
     id="defs23753" />
  <sodipodi:namedview
     inkscape:window-maximized="0"
     inkscape:window-y="23"
     inkscape:window-x="20"
     inkscape:window-height="985"
     inkscape:window-width="1522"
     fit-margin-bottom="0"
     fit-margin-right="0"
     fit-margin-left="0"
     fit-margin-top="0"
     showgrid="false"
     inkscape:current-layer="layer1"
     inkscape:document-units="px"
     inkscape:cy="64.663917"
     inkscape:cx="80.409031"
     inkscape:zoom="1.4"
     inkscape:pageshadow="2"
     inkscape:pageopacity="0"
     borderopacity="1.0"
     bordercolor="#666666"
     pagecolor="#1f1b1d"
     id="base"
     width="44px" />
  <metadata
     id="metadata23756">
    <rdf:RDF>
      <cc:Work
         rdf:about="">
        <dc:format>image/svg+xml</dc:format>
        <dc:type
           rdf:resource="http://purl.org/dc/dcmitype/StillImage" />
        <dc:title />
      </cc:Work>
    </rdf:RDF>
  </metadata>
  <g
     transform="translate(-356.344,-513.70618)"
     id="layer1"
     inkscape:groupmode="layer"
     inkscape:label="Layer 1">
    <g
       id="g2195">
      <g
         transform="matrix(1.191835,0,0,1.191835,-68.398886,-97.501816)"
         id="g2119">
        <path
           style="fill:#ffffff;fill-opacity:1;stroke-width:1.5"
           id="path22598"
           d="m 374.6014,515.24439 c -0.29217,0.0399 -0.5833,0.1329 -0.89063,0.32812 -5.4105,3.4335 -10.42537,7.4355 -15.42187,11.4375 -2.2635,1.8135 0.9465,4.9845 3.1875,3.1875 4.3146,-3.45664 8.65017,-6.85054 13.26562,-9.89062 4.68891,3.0685 9.0796,6.5274 13.45313,10.03125 2.2425,1.797 5.4525,-1.3725 3.1875,-3.1875 -4.87315,-3.90438 -9.78525,-7.77965 -15.04688,-11.15625 -0.44218,-0.50189 -1.03207,-0.84581 -1.73437,-0.75 z"
           inkscape:connector-curvature="0" />
        <path
           style="fill:#ffffff;fill-opacity:1;stroke-width:1.5"
           inkscape:connector-curvature="0"
           id="path22614"
           d="m 374.50652,524.23888 c -0.0438,0.006 -0.0963,0.0371 -0.14055,0.0468 -0.0743,0.0135 -0.16306,0.0238 -0.23437,0.0468 -0.0313,0.0105 -0.0621,0.0345 -0.0937,0.0468 -0.089,0.0349 -0.15119,0.0462 -0.23438,0.0937 -0.0727,0.0383 -0.1143,0.0927 -0.1875,0.14056 -0.0797,0.057 -0.16217,0.12 -0.23437,0.1875 -4.42872,2.92773 -8.56932,6.27747 -12.65625,9.65625 -0.73578,0.60904 -0.75,1.28668 -0.75,2.01562 0.002,0.17429 -2e-5,0.5492 0,0.65625 v 6.46875 c 2.4e-4,2.0618 1.6882,3.75 3.75,3.75 h 2.0625 v -5.0625 -3 c -0.0226,-0.57345 0.32283,-1.1485 0.9375,-1.54687 1.24575,-0.80775 2.66418,-1.25251 4.125,-1.3125 1.46082,-0.06 2.92425,0.24262 4.21875,0.98437 0.68334,0.39157 0.99412,0.99453 0.9375,1.59375 v 3 5.34375 h 9.75 c 2.06179,0 3.75,-1.6882 3.75,-3.75 v -6.46875 -0.75 c 0,-0.64387 -0.003,-1.26506 -0.79688,-1.92187 -4.11901,-3.4095 -8.23225,-6.80718 -12.70312,-9.75 -0.0473,-0.0311 -0.0933,-0.0629 -0.14055,-0.0937 -0.1455,-0.10635 -0.30203,-0.17021 -0.46875,-0.23438 -0.0997,-0.039 -0.18342,-0.0715 -0.28125,-0.0937 -0.0511,-0.0105 -0.0882,-0.0409 -0.14055,-0.0468 -0.0161,-0.003 -0.0309,10e-4 -0.0468,0 -0.138,-0.012 -0.27695,-0.0214 -0.42188,0 z m -3.60937,15.79688 c -0.46041,0.005 -0.92714,0.11775 -1.35938,0.28125 v 7.03125 h 2.71875 v -7.03125 c -0.44488,-0.18092 -0.89896,-0.2856 -1.35937,-0.28125 z" />
      </g>
    </g>
  </g>
</svg>
