<?xml version="1.0" encoding="UTF-8" standalone="no"?>
<!-- Created with Inkscape (http://www.inkscape.org/) -->

<svg
   xmlns:dc="http://purl.org/dc/elements/1.1/"
   xmlns:cc="http://creativecommons.org/ns#"
   xmlns:rdf="http://www.w3.org/1999/02/22-rdf-syntax-ns#"
   xmlns:svg="http://www.w3.org/2000/svg"
   xmlns="http://www.w3.org/2000/svg"
   xmlns:sodipodi="http://sodipodi.sourceforge.net/DTD/sodipodi-0.dtd"
   xmlns:inkscape="http://www.inkscape.org/namespaces/inkscape"
   width="628.51434"
   height="587.91016"
   id="svg3076"
   version="1.1"
   inkscape:version="0.92.2 5c3e80d, 2017-08-06"
   sodipodi:docname="microdraw-logo-white.svg">
  <defs
     id="defs3078" />
  <sodipodi:namedview
     id="base"
     pagecolor="#ffffff"
     bordercolor="#666666"
     borderopacity="1.0"
     inkscape:pageopacity="0.0"
     inkscape:pageshadow="2"
     inkscape:zoom="3.1401803"
     inkscape:cx="284.29496"
     inkscape:cy="307.59808"
     inkscape:document-units="px"
     inkscape:current-layer="layer1"
     showgrid="false"
     fit-margin-top="0"
     fit-margin-left="0"
     fit-margin-right="0"
     fit-margin-bottom="0"
     inkscape:window-width="1680"
     inkscape:window-height="1006"
     inkscape:window-x="15"
     inkscape:window-y="17"
     inkscape:window-maximized="0" />
  <metadata
     id="metadata3081">
    <rdf:RDF>
      <cc:Work
         rdf:about="">
        <dc:format>image/svg+xml</dc:format>
        <dc:type
           rdf:resource="http://purl.org/dc/dcmitype/StillImage" />
        <dc:title />
      </cc:Work>
    </rdf:RDF>
  </metadata>
  <g
     inkscape:label="Layer 1"
     inkscape:groupmode="layer"
     id="layer1"
     transform="translate(-256.19884,-585.94553)">
    <g
       id="g4164"
       transform="translate(23.630828,-1.1)">
      <path
         inkscape:connector-curvature="0"
         style="fill:#ffffff;fill-opacity:1"
         d="m 420.32518,979.23095 c 0,-7.9747 2.92829,-13.9415 8.91093,-18.1573 4.18659,-2.9501 4.51409,-3.0083 19.69657,-3.5 l 15.4392,-0.5 10.22665,-21.8061 c 13.915,-29.6707 15.61627,-31.2197 34.22665,-31.1639 10.80455,0.0324 15.48593,1.5807 20.26346,6.7015 l 22.89817,46.2685 53.41919,0.5 c 58.5429,0.548 56.05653,0.2814 62.11613,6.6608 3.83004,4.0321 5.80305,9.4065 5.80305,15.8071 l 0,5.5321 -253,0 z"
         id="path4498" />
      <path
         inkscape:connector-curvature="0"
         style="fill:#ffffff;fill-opacity:1"
         d="m 546.53057,926.03605 -3.22388,-6.5377 6.25925,-2.8506 c 3.44258,-1.5678 10.24155,-4.7008 15.10881,-6.9623 4.86726,-2.2615 9.8971,-4.1118 11.17742,-4.1118 4.77808,0 8.74872,9.8665 5.16693,12.8391 -1.474,1.2233 -29.35184,14.1609 -30.51381,14.1609 -0.41297,0 -2.20159,-2.9419 -3.97472,-6.5376 z"
         id="path4500" />
      <path
         inkscape:connector-curvature="0"
         style="fill:#ffffff;fill-opacity:1"
         d="m 570.76788,931.15545 c -2.36708,-1.7309 -2.58589,-1.5246 6.37858,-6.013 5.99686,-3.0026 7.59373,-4.3178 8.82739,-7.2703 1.35825,-3.2508 1.34354,-4.0303 -0.14988,-7.9408 -3.36432,-8.8093 -8.96281,-10.30918 -19.99879,-5.3577 -3.67754,1.65 -6.86949,3 -7.09322,3 -1.39414,0 -0.0241,-5.1549 1.84322,-6.9353 3.10053,-2.95617 52.61269,-25.99755 55.94424,-26.03466 1.48183,-0.0165 3.79304,0.98249 5.13603,2.21999 2.53424,2.33518 11.66973,21.13601 11.66973,24.01627 0,3.1756 -2.31098,6.6534 -5.38856,8.1091 -53.55151,25.331 -53.12312,25.1646 -57.16874,22.2064 z"
         id="path4502" />
      <path
         style="fill:#ffffff;fill-opacity:1"
         d="m 507.3219,776.05896 c -1.72252,1.71241 -5.88327,9.82263 -10.43978,18.57635 -7.15449,13.74481 -9.83317,24.13215 -9.91246,38.43836 -0.0792,14.29311 1.44991,21.00127 7.75028,34.00001 6.36531,13.13271 9.20672,15.52039 18.42034,15.47891 6.85688,-0.0309 13.20442,-2.62707 60.81093,-24.87217 48.31851,-22.57781 46.65067,-22.11899 50.39758,-13.86417 2.425,5.34254 2.47746,8.34797 0.18005,10.31508 -1.70245,1.45769 -14.03273,7.31929 -61.20366,29.09517 -11.275,5.20497 -21.62184,10.56946 -22.99297,11.92108 -1.97664,1.94852 -2.49443,3.46601 -2.5,7.32677 l -0.007,4.8694 -3.8776,-3.4977 c -7.21677,-6.50971 -11.46051,-7.77237 -26.12243,-7.77237 -12.15659,0 -13.32439,0.17262 -18,2.66071 -2.75,1.46336 -6.55078,4.27586 -8.44617,6.24996 -1.89539,1.9742 -3.72313,3.5893 -4.06165,3.5893 -0.33851,0 -3.84354,-4.8729 -7.78894,-10.82882 -11.63069,-17.55735 -17.17988,-32.06423 -19.32531,-50.5209 -2.60935,-22.44776 3.8411,-46.62973 18.37599,-68.88942 8.13262,-12.45482 10.71324,-15.08416 26.2241,-29.76084 z"
         id="path4504"
         inkscape:connector-curvature="0"
         sodipodi:nodetypes="csssssssssscsssssssscc" />
      <path
         id="path4506"
         d="m 437.09215,619.55424 c -5.61024,-11.54755 -2.28385,-15.9688 19.56847,-26.00939 16.68717,-7.66733 20.60077,-8.19238 25.72823,-3.45169 2.3386,2.16219 7.06558,11.09335 6.28466,11.87426 -0.16793,0.16792 -4.98055,2.4962 -10.69472,5.17395 -26.67023,12.49807 -36.89893,17.12447 -37.86116,17.12447 -0.40503,0 -1.76649,-2.12022 -3.02548,-4.7116 z"
         style="fill:#ffffff;fill-opacity:1;stroke:none;stroke-width:1.5;stroke-miterlimit:4;stroke-dasharray:none;stroke-opacity:1"
         inkscape:connector-curvature="0" />
      <path
         inkscape:connector-curvature="0"
         id="path4516"
         style="color:#000000;display:inline;overflow:visible;visibility:visible;fill:#ffffff;fill-opacity:1;fill-rule:nonzero;stroke:none;stroke-width:1.5;stroke-linecap:round;stroke-linejoin:round;stroke-miterlimit:4;stroke-dasharray:none;stroke-dashoffset:0;stroke-opacity:1;marker:none;enable-background:accumulate"
         d="m 476.23368,613.19689 -19.5625,9 35.3125,76.6875 c 7.1473,6.26719 11.69438,15.43142 11.8125,25.65625 l 30.84375,67 c 2.78051,6.0386 9.36504,8.86893 14.78125,6.375 5.41621,-2.49392 7.56176,-9.36765 4.78125,-15.40625 z m -21.8125,10.0625 -12.28125,5.625 28.28125,61.4375 c 6.39688,0.22752 12.31713,2.19759 17.375,5.4375 z m 49.0625,106.5625 c -0.87923,6.24391 -3.44277,11.94427 -7.1875,16.65625 l 25.6875,55.8125 c 1.74202,3.78325 7.88793,7.56247 11.28125,6 3.3933,-1.56247 2.71077,-7.873 0.96875,-11.65625 z m -12.73705,-123.29966 -12.2625,5.64634 79.83295,173.3781 c 1.74202,3.78324 7.88786,7.58019 11.28118,6.01772 3.3933,-1.56247 2.72334,-7.88081 0.98132,-11.66406 z"
         sodipodi:nodetypes="cccccccccccccccccccccccsc" />
      <path
         sodipodi:nodetypes="cczc"
         inkscape:connector-curvature="0"
         id="path4518"
         d="m 540.47312,821.75279 c 3.19648,-10.28598 19.40022,-17.72154 30.54351,-14.06394 1.16688,8.27683 -3.92941,28.26166 -5.27797,28.82035 -1.34856,0.55868 -18.04186,-5.44903 -25.26554,-14.75641 z"
         style="fill:#ffffff;fill-opacity:1;stroke:#ffffff;stroke-width:1px;stroke-linecap:butt;stroke-linejoin:miter;stroke-opacity:1" />
      <circle
         r="36.416"
         cy="162.29167"
         cx="57.629204"
         transform="matrix(0.88349515,0,0,0.88349515,418.15538,581.72143)"
         id="path4530"
         style="color:#000000;display:inline;overflow:visible;visibility:visible;fill:#ffffff;fill-opacity:1;fill-rule:nonzero;stroke:none;stroke-width:1;marker:none;enable-background:accumulate" />
    </g>
    <g
       style="font-style:normal;font-variant:normal;font-weight:500;font-stretch:normal;font-size:40px;line-height:125%;font-family:Futura;-inkscape-font-specification:'Futura Medium';letter-spacing:0px;word-spacing:0px;fill:#ffffff;fill-opacity:1;stroke:none;stroke-width:1px;stroke-linecap:butt;stroke-linejoin:miter;stroke-opacity:1"
       id="text4141"
       transform="matrix(3.4461919,0,0,3.4461919,-332.63233,-2389.647)">
      <g
         style="font-style:normal;font-variant:normal;font-weight:500;font-stretch:normal;font-size:41.48125076px;line-height:125%;font-family:Futura;-inkscape-font-specification:'Futura Medium';letter-spacing:0px;word-spacing:0px;fill:#ffffff;fill-opacity:1;stroke:none;stroke-width:1px;stroke-linecap:butt;stroke-linejoin:miter;stroke-opacity:1"
         id="text4152">
        <path
           d="m 171.46705,1003.9254 2.61332,0 11.57327,27.585 0.083,0 11.44882,-27.585 2.61332,0 0,29.6176 -1.82517,0 0,-27.3777 -0.083,0 -11.2829,27.3777 -1.82517,0 -11.40734,-27.3777 -0.083,0 0,27.3777 -1.82517,0 0,-29.6176 z"
           style="font-style:normal;font-variant:normal;font-weight:200;font-stretch:normal;font-family:'Helvetica Neue';-inkscape-font-specification:'Helvetica Neue Ultra-Light';fill:#ffffff;fill-opacity:1"
           id="path4157" />
        <path
           d="m 205.09149,1008.1979 0,-4.2725 1.57629,0 0,4.2725 -1.57629,0 z m 0,25.3451 0,-21.3214 1.57629,0 0,21.3214 -1.57629,0 z"
           style="font-style:normal;font-variant:normal;font-weight:200;font-stretch:normal;font-family:'Helvetica Neue';-inkscape-font-specification:'Helvetica Neue Ultra-Light';fill:#ffffff;fill-opacity:1"
           id="path4159" />
        <path
           d="m 227.73896,1018.8171 q -0.12445,-1.4103 -0.74667,-2.4889 -0.58073,-1.0785 -1.5348,-1.7836 -0.95407,-0.7052 -2.23999,-1.0786 -1.24444,-0.3733 -2.69628,-0.3733 -1.9911,0 -3.52591,0.8296 -1.5348,0.7882 -2.57183,2.1571 -1.03704,1.3274 -1.57629,3.0696 -0.53926,1.7007 -0.53926,3.5259 0,2.157 0.49778,3.9822 0.49777,1.8252 1.5348,3.194 1.03703,1.3274 2.57184,2.0741 1.53481,0.7467 3.60887,0.7467 1.49332,0 2.73776,-0.4978 1.28592,-0.4978 2.23999,-1.3689 0.99555,-0.8711 1.61777,-2.0741 0.62222,-1.2444 0.82962,-2.6962 l 1.57629,0 q -0.24889,1.9081 -1.03703,3.4014 -0.78814,1.4933 -1.9911,2.5304 -1.20296,0.9955 -2.73776,1.5348 -1.53481,0.5392 -3.23554,0.5392 -2.61332,0 -4.47998,-0.9125 -1.82517,-0.9541 -3.02813,-2.5304 -1.16147,-1.5763 -1.74221,-3.6089 -0.53926,-2.074 -0.53926,-4.314 0,-2.24 0.62222,-4.2311 0.6637,-1.9911 1.90814,-3.4844 1.24444,-1.4934 3.06961,-2.3645 1.82518,-0.8711 4.18961,-0.8711 1.74221,0 3.23554,0.4563 1.5348,0.4148 2.69628,1.2859 1.20295,0.8711 1.94962,2.24 0.74666,1.3274 0.91258,3.1111 l -1.57628,0 z"
           style="font-style:normal;font-variant:normal;font-weight:200;font-stretch:normal;font-family:'Helvetica Neue';-inkscape-font-specification:'Helvetica Neue Ultra-Light';fill:#ffffff;fill-opacity:1"
           id="path4161" />
        <path
           d="m 234.81281,1016.9505 0.12444,0 q 0.29037,-1.0371 1.03703,-1.9497 0.78815,-0.9125 1.86666,-1.5762 1.11999,-0.6637 2.44739,-0.9956 1.36888,-0.3733 2.82073,-0.3318 l 0,1.5762 q -1.24444,-0.1659 -2.86221,0.2489 -1.57629,0.4148 -3.02813,1.8252 -0.58074,0.6222 -1.03703,1.203 -0.41481,0.5807 -0.70518,1.2859 -0.29037,0.7052 -0.4563,1.5763 -0.16592,0.8711 -0.2074,2.074 l 0,11.6563 -1.57629,0 0,-21.3214 1.57629,0 0,4.7289 z"
           style="font-style:normal;font-variant:normal;font-weight:200;font-stretch:normal;font-family:'Helvetica Neue';-inkscape-font-specification:'Helvetica Neue Ultra-Light';fill:#ffffff;fill-opacity:1"
           id="path4163" />
        <path
           d="m 243.34045,1022.8823 q 0,-2.2815 0.62222,-4.2726 0.6637,-2.0326 1.90813,-3.5674 1.24444,-1.5348 3.06962,-2.4059 1.82517,-0.9126 4.1896,-0.9126 2.36443,0 4.18961,0.9126 1.82517,0.8711 3.06961,2.4059 1.24444,1.5348 1.86666,3.5674 0.6637,1.9911 0.6637,4.2726 0,2.2815 -0.6637,4.314 -0.62222,2.0326 -1.86666,3.5674 -1.24444,1.4933 -3.06961,2.4059 -1.82518,0.8711 -4.18961,0.8711 -2.36443,0 -4.1896,-0.8711 -1.82518,-0.9126 -3.06962,-2.4059 -1.24443,-1.5348 -1.90813,-3.5674 -0.62222,-2.0325 -0.62222,-4.314 z m 1.57628,0 q 0,1.9081 0.53926,3.6918 0.53926,1.7422 1.57629,3.1111 1.03703,1.3689 2.57184,2.1985 1.5348,0.7882 3.5259,0.7882 1.9911,0 3.52591,-0.7882 1.5348,-0.8296 2.57184,-2.1985 1.03703,-1.3689 1.57628,-3.1111 0.53926,-1.7837 0.53926,-3.6918 0,-1.9082 -0.53926,-3.6504 -0.53925,-1.7837 -1.57628,-3.1525 -1.03704,-1.3689 -2.57184,-2.1571 -1.53481,-0.8296 -3.52591,-0.8296 -1.9911,0 -3.5259,0.8296 -1.53481,0.7882 -2.57184,2.1571 -1.03703,1.3688 -1.57629,3.1525 -0.53926,1.7422 -0.53926,3.6504 z"
           style="font-style:normal;font-variant:normal;font-weight:200;font-stretch:normal;font-family:'Helvetica Neue';-inkscape-font-specification:'Helvetica Neue Ultra-Light';fill:#ffffff;fill-opacity:1"
           id="path4165" />
        <path
           d="m 266.82532,1003.9254 9.70661,0 q 3.9822,0 6.59552,1.2444 2.6548,1.2444 4.23109,3.3185 1.57628,2.0741 2.1985,4.7289 0.6637,2.6548 0.6637,5.4755 0,3.1526 -0.82962,5.8903 -0.78815,2.6963 -2.48888,4.6874 -1.70073,1.9911 -4.31405,3.1526 -2.57184,1.12 -6.13922,1.12 l -9.62365,0 0,-29.6176 z m 9.78957,28.0413 q 2.07406,0 4.14813,-0.6222 2.11554,-0.6637 3.81627,-2.1571 1.70073,-1.5348 2.73776,-4.0651 1.07852,-2.5719 1.07852,-6.4296 0,-3.0282 -0.62222,-5.1852 -0.58074,-2.157 -1.57629,-3.6088 -0.95407,-1.4934 -2.23999,-2.323 -1.24443,-0.8711 -2.61332,-1.3274 -1.3274,-0.4563 -2.69628,-0.5807 -1.3274,-0.166 -2.40591,-0.166 l -7.59107,0 0,26.4651 7.9644,0 z"
           style="font-style:normal;font-variant:normal;font-weight:200;font-stretch:normal;font-family:'Helvetica Neue';-inkscape-font-specification:'Helvetica Neue Ultra-Light';fill:#ffffff;fill-opacity:1"
           id="path4167" />
        <path
           d="m 295.73839,1016.9505 0.12445,0 q 0.29037,-1.0371 1.03703,-1.9497 0.78814,-0.9125 1.86666,-1.5762 1.11999,-0.6637 2.44739,-0.9956 1.36888,-0.3733 2.82072,-0.3318 l 0,1.5762 q -1.24443,-0.1659 -2.8622,0.2489 -1.57629,0.4148 -3.02813,1.8252 -0.58074,0.6222 -1.03703,1.203 -0.41482,0.5807 -0.70519,1.2859 -0.29036,0.7052 -0.45629,1.5763 -0.16592,0.8711 -0.20741,2.074 l 0,11.6563 -1.57628,0 0,-21.3214 1.57628,0 0,4.7289 z"
           style="font-style:normal;font-variant:normal;font-weight:200;font-stretch:normal;font-family:'Helvetica Neue';-inkscape-font-specification:'Helvetica Neue Ultra-Light';fill:#ffffff;fill-opacity:1"
           id="path4169" />
        <path
           d="m 319.08262,1029.3119 -0.083,0 q -0.37333,0.954 -1.07852,1.8252 -0.70518,0.8296 -1.74221,1.4933 -0.99555,0.6637 -2.28147,1.037 -1.28592,0.3733 -2.82072,0.3733 -3.40146,0 -5.26812,-1.4518 -1.86666,-1.4933 -1.86666,-4.5629 0,-1.8667 0.74667,-3.0282 0.74666,-1.2029 1.86665,-1.8666 1.16148,-0.7052 2.53036,-0.9956 1.41036,-0.2903 2.69628,-0.4148 l 2.44739,-0.2074 q 1.70073,-0.1244 2.6548,-0.3733 0.99555,-0.2904 1.49333,-0.7467 0.49777,-0.4978 0.62222,-1.2444 0.12444,-0.7467 0.12444,-1.8667 0,-0.8711 -0.33185,-1.6178 -0.33185,-0.7466 -1.03703,-1.3274 -0.70518,-0.5807 -1.82518,-0.9125 -1.11999,-0.3319 -2.73776,-0.3319 -2.8622,0 -4.6459,1.4104 -1.74221,1.4103 -1.90814,4.2725 l -1.57628,0 q 0.16592,-3.5259 2.23998,-5.2681 2.11555,-1.7837 5.9733,-1.7837 3.85776,0 5.59997,1.5348 1.7837,1.4934 1.7837,3.9408 l 0,12.4028 q 0,0.4563 0,0.9126 0.0415,0.4563 0.16592,0.8297 0.12445,0.3733 0.41481,0.6222 0.29037,0.2074 0.82963,0.2074 0.41481,0 1.16147,-0.1245 l 0,1.3274 q -0.62221,0.166 -1.28591,0.166 -0.95407,0 -1.53481,-0.2489 -0.53926,-0.2489 -0.82963,-0.6637 -0.29036,-0.4148 -0.41481,-0.9541 -0.083,-0.5807 -0.083,-1.2444 l 0,-1.12 z m 0,-7.8815 q -0.58074,0.7052 -1.78369,0.9541 -1.16148,0.2489 -2.61332,0.3733 l -2.6548,0.2489 q -1.16148,0.1245 -2.32295,0.3734 -1.16148,0.2074 -2.11555,0.7466 -0.91258,0.5393 -1.49332,1.4933 -0.58074,0.9126 -0.58074,2.406 0,2.3644 1.49333,3.5259 1.49332,1.12 4.10664,1.12 2.69628,0 4.27257,-0.9541 1.57629,-0.9956 2.40591,-2.24 0.82963,-1.2859 1.03703,-2.4474 0.24889,-1.2029 0.24889,-1.6178 l 0,-3.9822 z"
           style="font-style:normal;font-variant:normal;font-weight:200;font-stretch:normal;font-family:'Helvetica Neue';-inkscape-font-specification:'Helvetica Neue Ultra-Light';fill:#ffffff;fill-opacity:1"
           id="path4171" />
        <path
           d="m 330.98773,1031.7178 0.083,0 5.80738,-19.4962 2.11554,0 5.84886,19.4962 0.083,0 5.9733,-19.4962 1.74221,0 -6.8444,21.3214 -1.94962,0 -5.84886,-19.3303 -0.083,0 -5.89034,19.3303 -1.9911,0 -6.76144,-21.3214 1.70073,0 6.01478,19.4962 z"
           style="font-style:normal;font-variant:normal;font-weight:200;font-stretch:normal;font-family:'Helvetica Neue';-inkscape-font-specification:'Helvetica Neue Ultra-Light';fill:#ffffff;fill-opacity:1"
           id="path4173" />
      </g>
    </g>
  </g>
</svg>
