<?xml version="1.0" encoding="UTF-8" standalone="no"?>
<!-- Created with Inkscape (http://www.inkscape.org/) -->

<svg
   xmlns:dc="http://purl.org/dc/elements/1.1/"
   xmlns:cc="http://creativecommons.org/ns#"
   xmlns:rdf="http://www.w3.org/1999/02/22-rdf-syntax-ns#"
   xmlns:svg="http://www.w3.org/2000/svg"
   xmlns="http://www.w3.org/2000/svg"
   xmlns:sodipodi="http://sodipodi.sourceforge.net/DTD/sodipodi-0.dtd"
   xmlns:inkscape="http://www.inkscape.org/namespaces/inkscape"
   width="253"
   height="399.26883"
   id="svg3076"
   version="1.1"
   inkscape:version="0.48.5 r10040"
   sodipodi:docname="New document 3">
  <defs
     id="defs3078" />
  <sodipodi:namedview
     id="base"
     pagecolor="#ffffff"
     bordercolor="#666666"
     borderopacity="1.0"
     inkscape:pageopacity="0.0"
     inkscape:pageshadow="2"
     inkscape:zoom="0.35431298"
     inkscape:cx="-45.32518"
     inkscape:cy="453.21147"
     inkscape:document-units="px"
     inkscape:current-layer="layer1"
     showgrid="false"
     fit-margin-top="0"
     fit-margin-left="0"
     fit-margin-right="0"
     fit-margin-bottom="0"
     inkscape:window-width="861"
     inkscape:window-height="919"
     inkscape:window-x="24"
     inkscape:window-y="20"
     inkscape:window-maximized="0" />
  <metadata
     id="metadata3081">
    <rdf:RDF>
      <cc:Work
         rdf:about="">
        <dc:format>image/svg+xml</dc:format>
        <dc:type
           rdf:resource="http://purl.org/dc/dcmitype/StillImage" />
        <dc:title></dc:title>
      </cc:Work>
    </rdf:RDF>
  </metadata>
  <g
     inkscape:label="Layer 1"
     inkscape:groupmode="layer"
     id="layer1"
     transform="translate(-420.32518,-586.30482)">
    <path
       id="path4498"
       d="M 420.32518,979.23095 C 420.32518,971.25625 423.25347,965.28945 429.23611,961.07365 433.4227,958.12355 433.7502,958.06535 448.93268,957.57365 L 464.37188,957.07365 474.59853,935.26755 C 488.51353,905.59685 490.2148,904.04785 508.82518,904.10365 519.62973,904.13605 524.31111,905.68435 529.08864,910.80515 L 551.98681,957.07365 605.406,957.57365 C 663.9489,958.12165 661.46253,957.85505 667.52213,964.23445 671.35217,968.26655 673.32518,973.64095 673.32518,980.04155 L 673.32518,985.57365 420.32518,985.57365 z"
       style="fill:#0e0e0e"
       inkscape:connector-curvature="0" />
    <path
       id="path4500"
       d="M 546.53057,926.03605 543.30669,919.49835 549.56594,916.64775 C 553.00852,915.07995 559.80749,911.94695 564.67475,909.68545 569.54201,907.42395 574.57185,905.57365 575.85217,905.57365 580.63025,905.57365 584.60089,915.44015 581.0191,918.41275 579.5451,919.63605 551.66726,932.57365 550.50529,932.57365 550.09232,932.57365 548.3037,929.63175 546.53057,926.03605 z"
       style="fill:#0e0e0e"
       inkscape:connector-curvature="0" />
    <path
       id="path4502"
       d="M 570.76788,931.15545 C 568.4008,929.42455 568.18199,929.63085 577.14646,925.14245 583.14332,922.13985 584.74019,920.82465 585.97385,917.87215 587.3321,914.62135 587.31739,913.84185 585.82397,909.93135 582.45965,901.12205 576.86116,899.62217 565.82518,904.57365 562.14764,906.22365 558.95569,907.57365 558.73196,907.57365 557.33782,907.57365 558.70786,902.41875 560.57518,900.63835 563.67571,897.68218 613.18787,874.6408 616.51942,874.60369 618.00125,874.58719 620.31246,875.58618 621.65545,876.82368 624.18969,879.15886 633.32518,897.95969 633.32518,900.83995 633.32518,904.01555 631.0142,907.49335 627.93662,908.94905 574.38511,934.28005 574.8135,934.11365 570.76788,931.15545 z"
       style="fill:#0e0e0e"
       inkscape:connector-curvature="0" />
    <path
       sodipodi:nodetypes="csssssssssscsssssssscc"
       inkscape:connector-curvature="0"
       id="path4504"
       d="M 507.3219,776.05896 C 505.59938,777.77137 501.43863,785.88159 496.88212,794.63531 489.72763,808.38012 487.04895,818.76746 486.96966,833.07367 486.89046,847.36678 488.41957,854.07494 494.71994,867.07368 501.08525,880.20639 503.92666,882.59407 513.14028,882.55259 519.99716,882.52169 526.3447,879.92552 573.95121,857.68042 622.26972,835.10261 620.60188,835.56143 624.34879,843.81625 626.77379,849.15879 626.82625,852.16422 624.52884,854.13133 622.82639,855.58902 610.49611,861.45062 563.32518,883.2265 552.05018,888.43147 541.70334,893.79596 540.33221,895.14758 538.35557,897.0961 537.83778,898.61359 537.83221,902.47435 L 537.82521,907.34375 533.94761,903.84605 C 526.73084,897.33634 522.4871,896.07368 507.82518,896.07368 495.66859,896.07368 494.50079,896.2463 489.82518,898.73439 487.07518,900.19775 483.2744,903.01025 481.37901,904.98435 479.48362,906.95855 477.65588,908.57365 477.31736,908.57365 476.97885,908.57365 473.47382,903.70075 469.52842,897.74483 457.89773,880.18748 452.34854,865.6806 450.20311,847.22393 447.59376,824.77617 454.04421,800.5942 468.5791,778.33451 476.71172,765.87969 479.29234,763.25035 494.8032,748.57367 z"
       style="fill:#0e0e0e" />
    <path
       inkscape:connector-curvature="0"
       style="fill:#000000;fill-opacity:1;stroke:#000000;stroke-width:1.5;stroke-miterlimit:4;stroke-opacity:1;stroke-dasharray:none"
       d="M 437.09215,619.55424 C 431.48191,608.00669 434.8083,603.58544 456.66062,593.54485 473.34779,585.87752 477.26139,585.35247 482.38885,590.09316 484.72745,592.25535 489.45443,601.18651 488.67351,601.96742 488.50558,602.13534 483.69296,604.46362 477.97879,607.14137 451.30856,619.63944 441.07986,624.26584 440.11763,624.26584 439.7126,624.26584 438.35114,622.14562 437.09215,619.55424 z"
       id="path4506" />
    <g
       id="g4524"
       transform="translate(-261.17482,-100.16855)">
      <g
         style="fill:#000000;fill-opacity:1;stroke:#ffffff;stroke-opacity:1"
         id="g4512"
         transform="translate(151.471,178.10198)">
        <path
           d="M 337.4375,229.28125 317.875,238.28125 353.1875,314.96875 C 360.3348,321.23594 364.88188,330.40017 365,340.625 L 395.84375,407.625 C 398.62426,413.6636 405.20879,416.49393 410.625,414 416.04121,411.50608 418.18676,404.63235 415.40625,398.59375 L 337.4375,229.28125 z M 315.625,239.34375 303.34375,244.96875 331.625,306.40625 C 338.02188,306.63377 343.94213,308.60384 349,311.84375 L 315.625,239.34375 z M 364.6875,345.90625 C 363.80827,352.15016 361.24473,357.85052 357.5,362.5625 L 383.1875,418.375 C 384.92952,422.15825 389.07543,423.93747 392.46875,422.375 395.86205,420.81253 397.17952,416.502 395.4375,412.71875 L 364.6875,345.90625 z M 351.95045,222.60659 339.68795,228.25293 419.5209,401.63103 C 421.26292,405.41427 425.40876,407.21122 428.80208,405.64875 432.19538,404.08628 433.52542,399.76794 431.7834,395.98469 z"
           style="color:#000000;fill:#000000;fill-opacity:1;fill-rule:nonzero;stroke:#ffffff;stroke-width:1.5;stroke-linecap:round;stroke-linejoin:round;stroke-miterlimit:4;stroke-opacity:1;stroke-dasharray:none;stroke-dashoffset:0;marker:none;visibility:visible;display:inline;overflow:visible;enable-background:accumulate"
           transform="translate(248.5,305.98221)"
           id="path4516"
           inkscape:connector-curvature="0" />
        <path
           style="fill:#000000;fill-opacity:1;stroke:#ffffff;stroke-width:1px;stroke-linecap:butt;stroke-linejoin:miter;stroke-opacity:1"
           d="M 650.17694,743.81936 C 653.37342,733.53338 669.57716,726.09782 680.72045,729.75542 681.88733,738.03225 676.79104,758.01708 675.44248,758.57577 674.09392,759.13445 657.40062,753.12674 650.17694,743.81936 z"
           id="path4518"
           inkscape:connector-curvature="0"
           sodipodi:nodetypes="cczc" />
      </g>
    </g>
    <path
       sodipodi:type="arc"
       style="color:#000000;fill:#000000;fill-opacity:1;fill-rule:nonzero;stroke:none;stroke-width:1;marker:none;visibility:visible;display:inline;overflow:visible;enable-background:accumulate"
       id="path4530"
       sodipodi:cx="57.629204"
       sodipodi:cy="162.29167"
       sodipodi:rx="36.416"
       sodipodi:ry="36.416"
       d="M 94.045204,162.29167 C 94.045204,182.40367 77.741205,198.70767 57.629204,198.70767 37.517202,198.70767 21.213203,182.40367 21.213203,162.29167 21.213203,142.17967 37.517202,125.87567 57.629204,125.87567 77.741205,125.87567 94.045204,142.17967 94.045204,162.29167 z"
       transform="matrix(0.88349515,0,0,0.88349515,418.15538,581.72143)" />
  </g>
</svg>
