<?xml version="1.0" encoding="UTF-8" standalone="no"?>
<svg
   xmlns:dc="http://purl.org/dc/elements/1.1/"
   xmlns:cc="http://creativecommons.org/ns#"
   xmlns:rdf="http://www.w3.org/1999/02/22-rdf-syntax-ns#"
   xmlns:svg="http://www.w3.org/2000/svg"
   xmlns="http://www.w3.org/2000/svg"
   xmlns:sodipodi="http://sodipodi.sourceforge.net/DTD/sodipodi-0.dtd"
   xmlns:inkscape="http://www.inkscape.org/namespaces/inkscape"
   height="1536"
   width="1536"
   version="1.1"
   id="svg986"
   sodipodi:docname="navigate.svg"
   inkscape:version="1.1-dev (bc69992, 2020-04-15)">
  <metadata
     id="metadata992">
    <rdf:RDF>
      <cc:Work
         rdf:about="">
        <dc:format>image/svg+xml</dc:format>
        <dc:type
           rdf:resource="http://purl.org/dc/dcmitype/StillImage" />
        <dc:title></dc:title>
      </cc:Work>
    </rdf:RDF>
  </metadata>
  <defs
     id="defs990" />
  <sodipodi:namedview
     pagecolor="#191519"
     bordercolor="#666666"
     borderopacity="1"
     objecttolerance="10"
     gridtolerance="10"
     guidetolerance="10"
     inkscape:pageopacity="0"
     inkscape:pageshadow="2"
     inkscape:window-width="1355"
     inkscape:window-height="975"
     id="namedview988"
     showgrid="false"
     inkscape:zoom="0.014142136"
     inkscape:cx="189.17648"
     inkscape:cy="931.76471"
     inkscape:window-x="0"
     inkscape:window-y="23"
     inkscape:window-maximized="0"
     inkscape:current-layer="svg986" />
  <path
     d="m 842.43434,1172.7368 4e-5,-330.30233 330.30232,-3e-5 v 133.98179 q -0.9306,27.91287 26.0521,39.07807 26.0519,10.2346 45.591,-9.3043 l 208.416,-208.41611 q 12.0956,-12.09557 12.0955,-29.77379 10e-5,-17.67812 -12.0955,-29.77372 L 1244.3797,529.81031 q -19.539,-19.53902 -46.0561,-8.83909 -26.0521,10.23472 -25.5869,38.61281 v 133.98179 l -330.30232,-10e-6 v -330.3023 h 133.98183 q 28.37809,0.46521 38.61259,-25.58681 10.7001,-26.51722 -8.8389,-46.05622 L 797.77377,83.20437 Q 785.6782,71.108782 768.00003,71.108782 q -17.67813,0 -29.77372,12.095588 L 529.81022,291.62048 q -19.53903,19.539 -8.83908,46.05622 10.23472,26.05202 38.6128,25.58681 h 133.98178 v 330.3023 l -330.30232,10e-6 1e-5,-133.98179 q 0,-17.67814 -12.09559,-29.77373 -5.58255,-5.58257 -13.4912,-8.83908 -26.51724,-10.69993 -46.05625,8.83909 L 83.204243,738.22643 q -12.095586,12.0956 -12.095556,29.77371 -2e-5,17.67818 12.095556,29.77374 L 291.62036,1006.19 q 19.539,19.5389 46.05624,8.839 26.05198,-10.2347 25.58677,-38.61277 V 842.4345 l 330.30235,-3e-5 -2e-5,330.30233 H 559.5839 q -28.37809,-0.4652 -38.61277,25.5867 -10.69995,26.5172 8.83907,46.0561 l 208.41612,208.4162 q 12.09559,12.0956 29.77371,12.0954 17.67821,2e-4 29.77374,-12.0954 l 208.41613,-208.4162 q 19.539,-19.5389 9.3043,-45.5908 -3.7216,-8.3739 -9.3043,-13.9564 -12.09559,-12.0956 -29.77359,-12.0956 z"
     fill="#ffffff"
     id="path984"
     style="stroke-width:0.759864" />
</svg>
