<?xml version="1.0" encoding="UTF-8" standalone="no"?>
<!-- Created with Inkscape (http://www.inkscape.org/) -->

<svg
   xmlns:dc="http://purl.org/dc/elements/1.1/"
   xmlns:cc="http://creativecommons.org/ns#"
   xmlns:rdf="http://www.w3.org/1999/02/22-rdf-syntax-ns#"
   xmlns:svg="http://www.w3.org/2000/svg"
   xmlns="http://www.w3.org/2000/svg"
   xmlns:xlink="http://www.w3.org/1999/xlink"
   version="1.1"
   width="37.312"
   height="37.312"
   id="svg23517">
  <defs
     id="defs23519">
    <linearGradient
       x1="-313.01569"
       y1="184.71365"
       x2="-312.36646"
       y2="112.46646"
       id="linearGradient23497"
       xlink:href="#linearGradient22494"
       gradientUnits="userSpaceOnUse" />
    <linearGradient
       id="linearGradient22494">
      <stop
         id="stop22496"
         style="stop-color:#ffffff;stop-opacity:1"
         offset="0" />
      <stop
         id="stop22498"
         style="stop-color:#ffffff;stop-opacity:0"
         offset="1" />
    </linearGradient>
  </defs>
  <metadata
     id="metadata23522">
    <rdf:RDF>
      <cc:Work
         rdf:about="">
        <dc:format>image/svg+xml</dc:format>
        <dc:type
           rdf:resource="http://purl.org/dc/dcmitype/StillImage" />
        <dc:title></dc:title>
      </cc:Work>
    </rdf:RDF>
  </metadata>
  <g
     transform="translate(-356.344,-513.70618)"
     id="layer1">
    <g
       transform="translate(687.69107,362.74494)"
       id="g23492">
      <path
         d="M -312.69107,150.96124 C -322.99607,150.96124 -331.34707,159.31424 -331.34707,169.61724 -331.34707,179.92024 -322.99507,188.27324 -312.69107,188.27324 -302.38807,188.27324 -294.03507,179.92024 -294.03507,169.61724 -294.03507,159.31424 -302.38907,150.96124 -312.69107,150.96124"
         id="path21404"
         style="opacity:0.4;fill:none" />
      <path
         d="M -312.69107,150.96124 C -322.99607,150.96124 -331.34707,159.31424 -331.34707,169.61724 -331.34707,179.92024 -322.99507,188.27324 -312.69107,188.27324 -302.38807,188.27324 -294.03507,179.92024 -294.03507,169.61724 -294.03507,159.31424 -302.38907,150.96124 -312.69107,150.96124"
         id="path21406"
         style="fill:url(#linearGradient23497);fill-opacity:1;stroke:none" />
      <path
         d="M -313.125,155.96875 C -313.14902,155.97001 -313.16463,155.99227 -313.1875,156 -313.24617,156.0072 -313.29292,156.03125 -313.34375,156.09375 -314.91875,158.03175 -316.42225,160.0535 -317.90625,162.0625 -318.05345,162.26218 -317.88158,162.40422 -317.6875,162.4375 -317.67359,162.44119 -317.67141,162.46781 -317.65625,162.46875 -317.63468,162.47013 -317.61536,162.47165 -317.59375,162.46875 -317.57298,162.46512 -317.55369,162.47775 -317.53125,162.46875 -317.51132,162.46231 -317.48756,162.44842 -317.46875,162.4375 -316.32717,161.97727 -315.1817,161.42865 -314.0625,160.90625 L -314.0625,169.28125 -321.9375,169.28125 C -321.48354,168.12495 -321.02174,166.95854 -320.625,165.78125 -320.40225,165.59525 -320.58216,165.30764 -320.8125,165.28125 -320.88928,165.27245 -320.98875,165.31325 -321.0625,165.375 -321.0743,165.38432 -321.08326,165.39473 -321.09375,165.40625 -322.97758,166.98469 -324.87632,168.52543 -326.6875,170.1875 -326.759,170.253 -326.78533,170.33383 -326.78125,170.40625 -326.80692,170.49343 -326.81703,170.57866 -326.71875,170.65625 -324.82875,172.15425 -322.6265,173.45975 -320.4375,174.46875 -320.20405,174.57645 -319.97965,174.37736 -319.96875,174.1875 -319.96206,174.16514 -319.96803,174.14926 -319.96875,174.125 -319.97052,174.11707 -319.96613,174.1015 -319.96875,174.09375 -319.97607,174.05632 -320.0025,174.00775 -320.03125,173.96875 -320.61648,173.17628 -321.14531,172.34074 -321.59375,171.46875 L -314.0625,171.46875 -314.0625,179.3125 C -315.17704,178.80154 -316.30192,178.2646 -317.4375,177.8125 -317.45641,177.80164 -317.47998,177.78763 -317.5,177.78125 -317.59025,177.74575 -317.65902,177.77589 -317.71875,177.8125 -317.88239,177.87205 -317.97542,178.0108 -317.84375,178.1875 -316.34675,180.1875 -314.86825,182.195 -313.28125,184.125 -313.2195,184.1995 -313.16423,184.2215 -313.09375,184.21875 -313.00249,184.24956 -312.92942,184.25325 -312.84375,184.15625 -311.24475,182.34925 -309.8155,180.22375 -308.6875,178.09375 -308.56374,177.86119 -308.77092,177.6622 -308.96875,177.65625 -309.00315,177.64523 -309.02382,177.61918 -309.0625,177.625 -309.10118,177.63082 -309.14688,177.66075 -309.1875,177.6875 -310.05171,178.2556 -310.92801,178.7816 -311.875,179.1875 L -311.875,171.46875 -303.4375,171.46875 C -303.88592,172.34804 -304.41609,173.17624 -305,173.96875 -305.02887,174.00775 -305.05511,174.02507 -305.0625,174.0625 -305.06513,174.07024 -305.06073,174.08582 -305.0625,174.09375 -305.06449,174.12126 -305.07,174.16234 -305.0625,174.1875 -305.0382,174.37062 -304.81885,174.54135 -304.59375,174.4375 -302.40475,173.4295 -300.2025,172.15325 -298.3125,170.65625 -298.2216,170.58425 -298.23264,170.48818 -298.25,170.40625 -298.24904,170.38921 -298.24734,170.36097 -298.25,170.34375 -298.25976,170.32209 -298.26621,170.30067 -298.28125,170.28125 -298.29644,170.24512 -298.308,170.22025 -298.34375,170.1875 -300.16575,168.5155 -302.07475,166.93175 -303.96875,165.34375 -304.04225,165.282 -304.11077,165.27245 -304.1875,165.28125 -304.4177,165.30764 -304.629,165.59525 -304.40625,165.78125 -304.00875,166.95806 -303.54671,168.12529 -303.09375,169.28125 L -311.875,169.28125 -311.875,161.03125 C -310.94443,161.43213 -310.06779,161.95105 -309.21875,162.5 -309.17813,162.5265 -309.13243,162.55684 -309.09375,162.5625 -309.08567,162.56498 -309.07073,162.56085 -309.0625,162.5625 -309.03616,162.56264 -309.02407,162.53902 -309,162.53125 -308.80372,162.52181 -308.59599,162.32376 -308.71875,162.09375 -309.60919,160.43112 -310.67685,158.78417 -311.875,157.28125 -311.88415,157.26977 -311.89708,157.26146 -311.90625,157.25 -312.22936,156.84596 -312.56696,156.44143 -312.90625,156.0625 -312.971,155.99025 -313.05295,155.96497 -313.125,155.96875 z"
         id="rect21408" />
    </g>
  </g>
</svg>
