<?xml version="1.0" encoding="UTF-8" standalone="no"?>
<svg
   xmlns:dc="http://purl.org/dc/elements/1.1/"
   xmlns:cc="http://creativecommons.org/ns#"
   xmlns:rdf="http://www.w3.org/1999/02/22-rdf-syntax-ns#"
   xmlns:svg="http://www.w3.org/2000/svg"
   xmlns="http://www.w3.org/2000/svg"
   xmlns:sodipodi="http://sodipodi.sourceforge.net/DTD/sodipodi-0.dtd"
   xmlns:inkscape="http://www.inkscape.org/namespaces/inkscape"
   height="44"
   width="44"
   sodipodi:docname="paste.svg"
   inkscape:version="1.1-dev (bc69992, 2020-04-15)"
   version="1.1"
   id="svg2">
  <metadata
     id="metadata10">
    <rdf:RDF>
      <cc:Work
         rdf:about="">
        <dc:format>image/svg+xml</dc:format>
        <dc:type
           rdf:resource="http://purl.org/dc/dcmitype/StillImage" />
        <dc:title></dc:title>
      </cc:Work>
    </rdf:RDF>
  </metadata>
  <defs
     id="defs8">
    <linearGradient
       x1="-313.01999"
       y1="184.71001"
       gradientTransform="translate(331.34653,-150.95999)"
       x2="-312.37"
       gradientUnits="userSpaceOnUse"
       y2="112.47"
       id="linearGradient25035">
      <stop
         offset="0"
         stop-color="#FFF"
         id="stop22496-54-6-4" />
      <stop
         offset="1"
         stop-opacity="0"
         stop-color="#FFF"
         id="stop22498-4-8-1" />
    </linearGradient>
  </defs>
  <sodipodi:namedview
     width="44px"
     fit-margin-bottom="0"
     fit-margin-right="0"
     fit-margin-left="0"
     fit-margin-top="0"
     inkscape:current-layer="svg2"
     inkscape:window-maximized="0"
     inkscape:window-y="23"
     inkscape:window-x="68"
     inkscape:cy="22"
     inkscape:cx="22"
     inkscape:zoom="4.8131473"
     showgrid="false"
     id="namedview6"
     inkscape:window-height="807"
     inkscape:window-width="1440"
     inkscape:pageshadow="2"
     inkscape:pageopacity="0"
     guidetolerance="10"
     gridtolerance="10"
     objecttolerance="10"
     borderopacity="1"
     bordercolor="#666666"
     pagecolor="#1b191d" />
  <g
     id="g2511">
    <g
       id="g2416"
       transform="matrix(1.6657989,0,0,1.6657989,-9.0754789,-9.0754786)">
      <path
         id="path5833"
         d="m 30.9224,28.407473 c -0.98,-1.11 -1.95,-2.06 -3.16,-2.72 -0.66,-0.36 -1.4,-0.76 -2.15,-1.09 -0.75,-0.33 -1.52,-0.61 -2.28,-0.72 -1.94,-0.29 -4.13,-0.19 -6.07,0.13 -0.61,0.09 -1.23,0.27 -1.9,0.46 v 4.16 c 0,0.67 0.48,1.09 1,1.09 h 13.37 c 0.99,0 1.19,-0.59 1.19,-1.31 z"
         inkscape:connector-curvature="0"
         style="opacity:1;fill:#ffffff;fill-opacity:0.5" />
      <path
         inkscape:connector-curvature="0"
         id="path4"
         style="fill:#ffffff;fill-opacity:1"
         d="m 16.864843,28.967364 h 12.531102 v -8.593641 h -5.818011 q -0.559425,0 -0.951022,-0.375971 -0.391597,-0.375977 -0.391597,-0.913065 V 13.498818 H 16.864843 Z M 20.445158,9.6316722 V 8.7723105 q 0,-0.1745579 -0.132862,-0.3021257 -0.132865,-0.1275551 -0.314678,-0.1275551 h -9.845866 q -0.1818125,0 -0.3146745,0.1275551 -0.132863,0.1275678 -0.132863,0.3021257 v 0.8593617 q 0,0.174558 0.132863,0.302125 0.132862,0.1275558 0.3146745,0.1275558 h 9.845866 q 0.181813,0 0.314678,-0.1275558 0.132862,-0.127567 0.132862,-0.302125 z m 3.580314,9.0233218 h 4.181698 l -4.181698,-4.01483 z m 7.160631,1.718729 v 9.023322 q 0,0.537107 -0.391597,0.913084 Q 30.402909,30.6861 29.843485,30.6861 H 16.417303 q -0.559424,0 -0.95102,-0.375971 -0.391597,-0.375977 -0.391597,-0.913084 V 27.248647 H 7.4665155 q -0.559422,0 -0.95102,-0.375977 -0.391598,-0.37597 -0.391598,-0.913078 V 7.9129362 q 0,-0.5370946 0.391598,-0.9130653 0.391598,-0.3759707 0.95102,-0.3759707 H 22.682855 q 0.559424,0 0.951021,0.3759707 0.391596,0.3759707 0.391596,0.9130653 v 4.4042528 q 0.293698,0.174558 0.503483,0.375965 l 5.706127,5.478449 q 0.391597,0.375977 0.671308,1.020498 0.279713,0.644515 0.279713,1.181622 z" />
    </g>
  </g>
</svg>
