<?xml version="1.0" encoding="UTF-8" standalone="no"?>
<svg
   xmlns:dc="http://purl.org/dc/elements/1.1/"
   xmlns:cc="http://creativecommons.org/ns#"
   xmlns:rdf="http://www.w3.org/1999/02/22-rdf-syntax-ns#"
   xmlns:svg="http://www.w3.org/2000/svg"
   xmlns="http://www.w3.org/2000/svg"
   xmlns:sodipodi="http://sodipodi.sourceforge.net/DTD/sodipodi-0.dtd"
   xmlns:inkscape="http://www.inkscape.org/namespaces/inkscape"
   inkscape:version="1.1-dev (bc69992, 2020-04-15)"
   sodipodi:docname="redo.svg"
   id="svg2416"
   version="1.1"
   width="438.536"
   viewBox="0 0 438.536 438.536"
   height="438.536"
   enable-background="new 0 0 438.536 438.536">
  <metadata
     id="metadata2422">
    <rdf:RDF>
      <cc:Work
         rdf:about="">
        <dc:format>image/svg+xml</dc:format>
        <dc:type
           rdf:resource="http://purl.org/dc/dcmitype/StillImage" />
        <dc:title></dc:title>
      </cc:Work>
    </rdf:RDF>
  </metadata>
  <defs
     id="defs2420" />
  <sodipodi:namedview
     inkscape:current-layer="svg2416"
     inkscape:window-maximized="0"
     inkscape:window-y="66"
     inkscape:window-x="891"
     inkscape:cy="237.00292"
     inkscape:cx="222.49253"
     inkscape:zoom="0.62024553"
     showgrid="false"
     id="namedview2418"
     inkscape:window-height="697"
     inkscape:window-width="789"
     inkscape:pageshadow="2"
     inkscape:pageopacity="0"
     guidetolerance="10"
     gridtolerance="10"
     objecttolerance="10"
     borderopacity="1"
     bordercolor="#666666"
     pagecolor="#1f2126" />
  <path
     style="stroke-width:0.779661"
     id="path2414"
     fill="#ffffff"
     d="m 87.289697,163.64238 c 7.589535,-17.67274 17.795003,-32.91784 30.611163,-45.734 12.81878,-12.81682 28.06323,-23.020321 45.73662,-30.613122 17.67142,-7.592802 36.21112,-11.386262 55.62562,-11.386262 18.29255,0 35.99405,3.450204 53.10777,10.358458 17.10979,6.906946 32.32352,16.644276 45.63985,29.214606 l 24.26977,-24.083433 c 3.73396,-3.858187 8.02563,-4.72842 12.88089,-2.614623 4.97884,2.118374 7.46793,5.790877 7.46793,11.016857 v 83.628049 c 0,3.2351 -1.18276,6.0354 -3.54763,8.39961 -2.36617,2.36486 -5.16648,3.54762 -8.40157,3.54762 h -83.62806 c -5.22793,0 -8.89847,-2.48909 -11.01423,-7.46727 -2.11446,-4.8533 -1.24422,-9.14562 2.61462,-12.88088 l 25.57414,-25.75918 c -8.7141,-8.21392 -18.66851,-14.52916 -29.86842,-18.94767 -11.20058,-4.41786 -22.89741,-6.62842 -35.09375,-6.62842 -12.94104,0 -25.2943,2.52243 -37.05455,7.5601 -11.7622,5.04095 -21.93171,11.8544 -30.51963,20.44167 -8.58726,8.58529 -15.4007,18.75807 -20.44165,30.51962 -5.03637,11.76024 -7.55815,24.10958 -7.55815,37.05455 0,12.94431 2.52113,25.29365 7.55815,37.05324 5.04095,11.76024 11.85439,21.93171 20.44165,30.51962 8.58792,8.58726 18.76135,15.40267 30.51963,20.44166 11.76025,5.03898 24.11351,7.55881 37.05455,7.55881 14.80966,0 28.80989,-3.23576 42.002,-9.70464 13.19015,-6.46889 24.32796,-15.61517 33.41277,-27.44276 0.87024,-1.24356 2.3021,-1.99153 4.29363,-2.24194 1.86731,0 3.4234,0.55902 4.66762,1.6777 l 25.57348,25.76178 c 0.99447,1.00034 1.5234,2.27398 1.58617,3.82681 0.0614,1.55935 -0.34456,2.95787 -1.21479,4.20209 -13.5661,16.42721 -29.99135,29.15184 -49.28032,38.17127 -19.28897,9.0214 -39.63779,13.53471 -61.04187,13.53471 -19.4145,0 -37.9542,-3.79738 -55.62562,-11.38691 -17.67339,-7.58888 -32.91326,-17.79696 -45.73401,-30.61247 -12.81812,-12.82074 -23.021619,-28.06257 -30.613118,-45.734 -7.591492,-17.67142 -11.383644,-36.21635 -11.383644,-55.62693 -6.55e-4,-19.41712 3.794116,-37.95225 11.382989,-55.62432 z" />
</svg>
