<?xml version="1.0" encoding="UTF-8" standalone="no"?>
<svg
   xmlns:dc="http://purl.org/dc/elements/1.1/"
   xmlns:cc="http://creativecommons.org/ns#"
   xmlns:rdf="http://www.w3.org/1999/02/22-rdf-syntax-ns#"
   xmlns:svg="http://www.w3.org/2000/svg"
   xmlns="http://www.w3.org/2000/svg"
   xmlns:sodipodi="http://sodipodi.sourceforge.net/DTD/sodipodi-0.dtd"
   xmlns:inkscape="http://www.inkscape.org/namespaces/inkscape"
   width="44"
   height="44"
   id="svg23607"
   version="1.1"
   inkscape:version="1.1-dev (bc69992, 2020-04-15)"
   sodipodi:docname="rotate copy 5.svg">
  <defs
     id="defs23609">
    <clipPath
       clipPathUnits="userSpaceOnUse"
       id="clipPath2874">
      <rect
         style="opacity:1;fill:#ffffff;fill-opacity:0.635628;fill-rule:evenodd;stroke:none;stroke-width:2.25;stroke-miterlimit:10;stroke-dasharray:none;stroke-opacity:1"
         id="rect2876"
         width="26.339727"
         height="26.870058"
         x="344.49997"
         y="554.71838" />
    </clipPath>
    <clipPath
       id="clipPath2885"
       clipPathUnits="userSpaceOnUse">
      <rect
         style="opacity:1;fill:#ffffff;fill-opacity:0.635628;fill-rule:evenodd;stroke:none;stroke-width:2.42112;stroke-miterlimit:10;stroke-dasharray:none;stroke-opacity:1"
         id="rect2887"
         width="26.339727"
         height="31.1127"
         x="344.49997"
         y="554.71838" />
    </clipPath>
  </defs>
  <sodipodi:namedview
     id="base"
     pagecolor="#212123"
     bordercolor="#666666"
     borderopacity="1.0"
     inkscape:pageopacity="0"
     inkscape:pageshadow="2"
     inkscape:zoom="2"
     inkscape:cx="38.826276"
     inkscape:cy="-4.1155002"
     inkscape:document-units="px"
     inkscape:current-layer="layer1"
     showgrid="false"
     fit-margin-top="0"
     fit-margin-left="0"
     fit-margin-right="0"
     fit-margin-bottom="0"
     inkscape:window-width="1440"
     inkscape:window-height="851"
     inkscape:window-x="212"
     inkscape:window-y="52"
     inkscape:window-maximized="0"
     width="44px"
     inkscape:snap-global="false" />
  <metadata
     id="metadata23612">
    <rdf:RDF>
      <cc:Work
         rdf:about="">
        <dc:format>image/svg+xml</dc:format>
        <dc:type
           rdf:resource="http://purl.org/dc/dcmitype/StillImage" />
        <dc:title />
      </cc:Work>
    </rdf:RDF>
  </metadata>
  <g
     inkscape:label="Layer 1"
     inkscape:groupmode="layer"
     id="layer1"
     transform="translate(-356.344,-513.70618)">
    <g
       transform="translate(-0.06829009,0.23630119)"
       id="g876">
      <path
         id="path13071-0-9"
         d="m 357.14493,542.28347 c -0.94036,-3.54567 0.52632,-7.19332 2.3792,-10.17616 2.38112,-4.16571 6.42486,-7.50933 11.20968,-8.43462 3.80381,-0.88124 8.22353,-0.3939 11.1741,2.36069 1.83138,1.98583 1.54474,5.16785 0.0792,7.28329 -1.70658,2.82687 -4.16109,5.08805 -6.55022,7.32668 -3.66031,3.10785 -8.10042,5.66978 -12.98488,6.03138 -2.47934,-0.0517 -4.84716,-1.91458 -5.30706,-4.39128 z"
         stroke-miterlimit="10"
         inkscape:connector-curvature="0"
         style="fill:#ffffff;fill-opacity:0.5;stroke:none;stroke-width:1.779;stroke-miterlimit:10;stroke-dasharray:none" />
      <path
         id="path13071-0-9-7"
         d="m 363.10006,541.03586 c 2.11172,-2.99948 5.84872,-4.2206 9.32473,-4.71854 4.72168,-0.85362 9.88229,0.0948 13.66673,3.16545 3.12012,2.34742 5.58773,6.04638 5.37418,10.0773 -0.34403,2.67935 -2.96588,4.50512 -5.5284,4.74226 -3.26245,0.50978 -6.57238,0.083 -9.82296,-0.30826 -4.73355,-0.80618 -9.55013,-2.56081 -12.96682,-6.07008 -1.55411,-1.93248 -1.64903,-4.94381 -0.0474,-6.88813 z"
         stroke-miterlimit="10"
         inkscape:connector-curvature="0"
         style="fill:#ffffff;fill-opacity:0.5;stroke:none;stroke-width:1.77893;stroke-miterlimit:10;stroke-dasharray:none;stroke-opacity:1" />
      <path
         id="path13071-0-9-7-4"
         d="m 363.10006,541.03586 c 2.11172,-2.99948 5.84872,-4.2206 9.32473,-4.71854 4.72168,-0.85362 9.88227,0.0948 13.66672,3.16545 3.12013,2.34742 5.58772,6.04638 5.37417,10.0773 -0.34401,2.67935 -2.96588,4.50512 -5.5284,4.74226 -3.26243,0.50978 -6.57238,0.083 -9.82294,-0.30826 -4.73355,-0.80618 -9.55013,-2.56081 -12.96682,-6.07008 -1.55411,-1.93248 -1.64903,-4.94381 -0.0474,-6.88813 z"
         stroke-miterlimit="10"
         inkscape:connector-curvature="0"
         style="fill:none;fill-opacity:1;stroke:#ffffff;stroke-width:2.25;stroke-miterlimit:10;stroke-dasharray:none;stroke-opacity:1" />
      <g
         id="g854"
         transform="rotate(17.818607,378.09696,536.76116)">
        <circle
           style="fill:none;fill-opacity:0.4;fill-rule:evenodd;stroke:#ffffff;stroke-width:2.25;stroke-miterlimit:10;stroke-dasharray:none;stroke-opacity:1"
           id="path2828"
           cx="345.84399"
           cy="581.30408"
           r="18.955257"
           clip-path="url(#clipPath2874)"
           transform="translate(34.419748,-43.65957)"
           mask="none" />
        <path
           style="fill:#ffffff;fill-opacity:1;stroke:none;stroke-width:1.32px;stroke-linecap:butt;stroke-linejoin:miter;stroke-opacity:1"
           d="m 373.60626,518.68598 7.57576,-5.48361 v 11.08389 z"
           id="path2830"
           sodipodi:nodetypes="cccc" />
      </g>
    </g>
  </g>
</svg>
