<?xml version="1.0" encoding="UTF-8" standalone="no"?>
<!-- Created with Inkscape (http://www.inkscape.org/) -->

<svg
   xmlns:dc="http://purl.org/dc/elements/1.1/"
   xmlns:cc="http://creativecommons.org/ns#"
   xmlns:rdf="http://www.w3.org/1999/02/22-rdf-syntax-ns#"
   xmlns:svg="http://www.w3.org/2000/svg"
   xmlns="http://www.w3.org/2000/svg"
   xmlns:sodipodi="http://sodipodi.sourceforge.net/DTD/sodipodi-0.dtd"
   xmlns:inkscape="http://www.inkscape.org/namespaces/inkscape"
   id="svg7350"
   height="37.312"
   width="37.312"
   version="1.1"
   inkscape:version="0.92.3 (unknown)"
   sodipodi:docname="saveFzj.svg">
  <sodipodi:namedview
     pagecolor="#ffffff"
     bordercolor="#666666"
     borderopacity="1"
     objecttolerance="10"
     gridtolerance="10"
     guidetolerance="10"
     inkscape:pageopacity="0"
     inkscape:pageshadow="2"
     inkscape:window-width="1077"
     inkscape:window-height="693"
     id="namedview16"
     showgrid="false"
     inkscape:zoom="6.3250428"
     inkscape:cx="26.061348"
     inkscape:cy="18.656"
     inkscape:window-x="213"
     inkscape:window-y="141"
     inkscape:window-maximized="0"
     inkscape:current-layer="svg7350" />
  <defs
     id="defs7352">
    <linearGradient
       id="linearGradient6749"
       y2="112.47"
       gradientUnits="userSpaceOnUse"
       x2="-312.37"
       gradientTransform="translate(331.34708,-150.96124)"
       y1="184.71"
       x1="-313.02">
      <stop
         id="stop22496-54-6-4"
         stop-color="#FFF"
         offset="0" />
      <stop
         id="stop22498-4-8-1"
         stop-color="#FFF"
         stop-opacity="0"
         offset="1" />
    </linearGradient>
  </defs>
  <metadata
     id="metadata7355">
    <rdf:RDF>
      <cc:Work
         rdf:about="">
        <dc:format>image/svg+xml</dc:format>
        <dc:type
           rdf:resource="http://purl.org/dc/dcmitype/StillImage" />
        <dc:title></dc:title>
      </cc:Work>
    </rdf:RDF>
  </metadata>
  <g
     id="g4161">
    <path
       inkscape:connector-curvature="0"
       style="fill:url(#linearGradient6749);stroke-miterlimit:10"
       d="m 18.65759,0.00252 c -10.31,0 -18.66,8.35 -18.66,18.65 0,10.31 8.35,18.66 18.66,18.66 10.3,0 18.65,-8.35 18.65,-18.66 0,-10.3 -8.35,-18.65 -18.65,-18.65"
       stroke-miterlimit="10"
       id="path6632" />
    <path
       id="path9939-7"
       d="m 24.50769,8.36183 -14.77,0 c -0.46,0.45 -0.92,0.91 -1.37,1.37 l 0,19.22 20.58,0 0,-15.09 z"
       inkscape:connector-curvature="0" />
    <path
       id="path6604"
       d="m 11.93769,18.87183 c -0.81,0 -1.25,0.53 -1.25,1.35 l 0,2.37 0,4.16 c 0,0.67 0.48,1.09 1,1.09 l 13.37,0 c 0.95,0 1.19,-0.53 1.19,-1.31 l 0,-6.56 c 0,-0.67 -0.44,-1.1 -1.19,-1.1 z"
       inkscape:connector-curvature="0"
       style="fill:#ffffff" />
    <path
       id="path5833"
       d="m 26.24769,26.53183 c -0.98,-1.11 -1.95,-2.06 -3.16,-2.72 -0.66,-0.36 -1.4,-0.76 -2.15,-1.09 -0.75,-0.33 -1.52,-0.61 -2.28,-0.72 -1.94,-0.29 -4.13,-0.19 -6.07,0.13 -0.61,0.09 -1.23,0.27 -1.9,0.46 l 0,4.16 c 0,0.67 0.48,1.09 1,1.09 l 13.37,0 c 0.99,0 1.19,-0.59 1.19,-1.31 z"
       inkscape:connector-curvature="0"
       style="fill:#ea503c;opacity:0.4;fill-opacity:1" />
    <path
       id="path9951-4"
       d="m 13.24769,9.34183 c -0.42,0 -0.63,0.28 -0.69,0.6 0,0.01 0.01,0.04 0,0.06 0,0.04 -0.03,0.08 -0.03,0.13 -0.01,0.06 -0.03,0.14 -0.03,0.21 l 0,5 c 0,0.06 0.02,0.11 0.03,0.16 0.02,0.09 0.03,0.18 0.06,0.25 0.01,0.01 0,0.02 0,0.03 0.09,0.26 0.3,0.47 0.66,0.47 l 10.13,0 c 0.51,0 0.78,-0.42 0.74,-0.81 0.01,-0.06 0.04,-0.1 0.04,-0.16 l 0,-5.03 c 0,-0.06 -0.03,-0.1 -0.04,-0.16 0,-0.37 -0.26,-0.75 -0.74,-0.75 l -10.13,0 z m 7.03,1.5 2.06,0 0,3.91 -2.06,0 0,-3.91 z"
       inkscape:connector-curvature="0"
       style="fill:#ffffff" />
  </g>
  <text
     xml:space="preserve"
     style="font-style:normal;font-weight:normal;font-size:12.33935356px;line-height:1.25;font-family:sans-serif;letter-spacing:0px;word-spacing:0px;fill:#aa4400;fill-opacity:1;stroke:none;stroke-width:0.30848384"
     x="13.387618"
     y="29.784819"
     id="text3833"><tspan
       sodipodi:role="line"
       id="tspan3831"
       x="13.387618"
       y="29.784819"
       style="fill:#aa4400;stroke-width:0.30848384">FZJ</tspan></text>
</svg>
