<?xml version="1.0" encoding="UTF-8" standalone="no"?>
<svg
   xmlns:dc="http://purl.org/dc/elements/1.1/"
   xmlns:cc="http://creativecommons.org/ns#"
   xmlns:rdf="http://www.w3.org/1999/02/22-rdf-syntax-ns#"
   xmlns:svg="http://www.w3.org/2000/svg"
   xmlns="http://www.w3.org/2000/svg"
   xmlns:sodipodi="http://sodipodi.sourceforge.net/DTD/sodipodi-0.dtd"
   xmlns:inkscape="http://www.inkscape.org/namespaces/inkscape"
   sodipodi:docname="simplify.svg"
   inkscape:version="1.1-dev (bc69992, 2020-04-15)"
   version="1.1"
   width="44"
   height="44"
   id="svg7275">
  <sodipodi:namedview
     width="44px"
     fit-margin-bottom="0"
     fit-margin-right="0"
     fit-margin-left="0"
     fit-margin-top="0"
     inkscape:current-layer="svg7275"
     inkscape:window-maximized="0"
     inkscape:window-y="23"
     inkscape:window-x="73"
     inkscape:cy="-1.7990239"
     inkscape:cx="2.5741695"
     inkscape:zoom="4.4724807"
     showgrid="false"
     id="namedview16"
     inkscape:window-height="820"
     inkscape:window-width="1183"
     inkscape:pageshadow="2"
     inkscape:pageopacity="0"
     guidetolerance="10"
     gridtolerance="10"
     objecttolerance="10"
     borderopacity="1"
     bordercolor="#666666"
     pagecolor="#19191f" />
  <defs
     id="defs7277">
    <linearGradient
       x1="-313.01999"
       y1="184.71001"
       gradientTransform="translate(331.34653,-150.95999)"
       x2="-312.37"
       gradientUnits="userSpaceOnUse"
       y2="112.47"
       id="linearGradient25035">
      <stop
         offset="0"
         stop-color="#FFF"
         id="stop22496-54-6-4" />
      <stop
         offset="1"
         stop-opacity="0"
         stop-color="#FFF"
         id="stop22498-4-8-1" />
    </linearGradient>
  </defs>
  <metadata
     id="metadata7280">
    <rdf:RDF>
      <cc:Work
         rdf:about="">
        <dc:format>image/svg+xml</dc:format>
        <dc:type
           rdf:resource="http://purl.org/dc/dcmitype/StillImage" />
        <dc:title></dc:title>
      </cc:Work>
    </rdf:RDF>
  </metadata>
  <g
     transform="matrix(1.3273034,0,0,1.3273034,-2.7819695,-2.4160885)"
     id="g860">
    <path
       style="fill:#ffffff;fill-opacity:1;stroke:#ffffff;stroke-width:0.58053;stroke-linejoin:round;stroke-miterlimit:4;stroke-dasharray:none;stroke-opacity:1"
       id="path4400"
       d="m 2.756826,13.475694 c 0.041203,-0.464969 0.034566,-0.932069 0.029847,-1.39814 -0.030864,-0.45657 0.077171,-0.900351 0.1919388,-1.340239 0.061329,-0.329759 0.2064087,-0.636653 0.3602268,-0.9367668 0.092948,-0.2186025 0.2456236,-0.393546 0.4282453,-0.5518875 0.9713406,-0.6985005 1.914824,-1.3112205 3.105911,-1.515828 0.2246565,-0.09441 0.4643955,-0.15531 0.7097235,-0.1774575 0.272463,-0.03753 0.496827,0.0582 0.721203,0.1921005 0.2159895,0.1562175 0.389754,0.3518175 0.5541255,0.5530995 0.1513365,0.18741 0.252534,0.4084155 0.333195,0.6292335 0.05484,0.2533965 0.1625535,0.4914045 0.2199075,0.7439985 0.06486,0.3653118 0.1519335,0.7254628 0.2015085,1.0931148 0.04398,0.362571 0.059355,0.727018 0.06264,1.09156 0.02913,0.337203 0.111015,0.667859 0.145365,1.004535 0.01125,0.273449 0.04779,0.53696 0.11286,0.803223 0.047715,0.30708 0.1962241,0.58682 0.3619351,0.852648 0.158179,0.174441 0.363316,0.33726 0.606493,0.392718 0.298745,0.05073 0.603698,0.04861 0.906257,0.04998 0.290497,0.01005 0.561708,0.0053 0.839107,-0.07508 0.885626,-0.480282 -0.891229,0.484026 -2.031354,1.063316 -0.05767,0.02929 0.10515,-0.07347 0.154536,-0.113745 0.167078,-0.1362 0.304109,-0.29274 0.441261,-0.454041 0.295143,-0.355734 0.500241,-0.755267 0.6665,-1.173989 0.20235,-0.565701 0.414117,-1.126164 0.586764,-1.70047 0.168438,-0.574589 0.250801,-1.165812 0.387166,-1.74704 0.118365,-0.647277 0.319274,-1.2733573 0.550611,-1.8925888 0.204617,-0.643539 0.461576,-1.264956 0.760143,-1.8751545 0.271266,-0.5288685 0.523452,-1.0675575 0.806693,-1.5908112 0.249673,-0.3450408 0.537756,-0.6699118 0.83821,-0.9785076 0.935318,-0.7235502 1.998074,-1.3628539 3.164091,-1.7060661 0.253373,-0.05823 0.513744,-0.062853 0.773166,-0.057443 0.343391,-0.00265 0.671033,0.1704923 0.934413,0.3626217 0.301079,0.2257005 0.503183,0.5338203 0.701033,0.8365322 0.214281,0.3483888 0.301659,0.7376254 0.399016,1.1229408 0.122445,0.3780537 0.16037,0.7709556 0.23133,1.1579707 0.09311,0.3359415 0.121575,0.681954 0.182405,1.022808 0.06517,0.381912 0.179373,0.7537755 0.264274,1.1319315 0.03906,0.3773895 0.161417,0.739206 0.268701,1.102872 0.151391,0.4418115 0.269657,0.8886393 0.453173,1.3205523 0.177388,0.417774 0.383415,0.825516 0.678843,1.182411 0.189991,0.207768 0.346191,0.437108 0.647749,0.499448 0.343767,0.04655 0.693071,0.04249 1.039716,0.04386 0.423248,0.01722 0.837897,0.0102 1.236521,-0.13161 0.983746,-0.510599 -1.275701,0.683853 -1.923041,1.009905 -0.06252,0.0315 0.11361,-0.08004 0.164334,-0.1263 0.177462,-0.161769 0.293549,-0.358017 0.41547,-0.556202 0.202487,-0.323887 0.442775,-0.627841 0.712616,-0.906115 0.217452,-0.262646 0.412996,-0.53975 0.632269,-0.801257 0.854717,-1.0520943 1.148435,-0.905922 2.965404,-1.8820638 0.291375,-0.149325 0.585386,-0.256092 0.911354,-0.311955 0.261334,-0.021105 0.524536,-0.01905 0.7867,-0.0165 0.282161,0.0042 0.559362,0.094605 0.804861,0.219729 0.247121,0.085035 0.471642,0.2199465 0.70781,0.3282015 0.347247,0.080925 0.538462,0.1491 0.823645,0.360282 0,0 -2.250798,1.3217733 -2.250798,1.3217733 v 0 c -0.249556,-0.156682 -0.530917,-0.214116 -0.805509,-0.322354 -0.234829,-0.115065 -0.46999,-0.230556 -0.715807,-0.324458 -0.225482,-0.09972 -0.477125,-0.136455 -0.725861,-0.12552 -0.252576,0.0039 -0.508564,0.002 -0.75463,0.06254 -0.300873,0.07691 -0.574742,0.220499 -0.852113,0.350123 4.949519,-2.6978048 2.436617,-1.4452268 1.866302,-0.9972608 -0.13563,0.10653 -0.193836,0.2635875 -0.326573,0.3728325 -0.226506,0.2542673 -0.431616,0.5246723 -0.621633,0.8020453 -0.245745,0.296035 -0.549574,0.549925 -0.758625,0.874728 -0.710292,1.217848 -1.263589,1.635864 -3.156466,2.169616 -0.421724,0.08225 -0.845681,0.07242 -1.275135,0.06972 -0.37368,-0.0018 -0.756546,0.0088 -1.116129,-0.10032 C 21.980524,13.64383 21.782845,13.409284 21.58799,13.150666 21.285628,12.771148 21.0812,12.341788 20.897896,11.902927 20.696359,11.469079 20.569556,11.017752 20.402714,10.572694 20.283299,10.204695 20.174255,9.8334897 20.124607,9.4505037 20.049637,9.0701802 19.928666,8.7006822 19.851902,8.3207667 19.775642,7.9819962 19.771607,7.6314237 19.672664,7.2955032 19.590929,6.9139032 19.586624,6.5189262 19.461077,6.1440777 19.360651,5.7840759 19.286191,5.4186799 19.083247,5.0914076 18.910723,4.809431 18.716581,4.542097 18.434963,4.3431892 18.17666,4.1845337 17.900764,4.0918368 17.58718,4.1204131 c -0.244068,0.014175 -0.488822,0.031351 -0.71757,0.1198965 -0.809663,0.3093284 -2.136657,1.1069403 1.848409,-1.0255989 0.05004,-0.026784 -0.09702,0.058219 -0.145515,0.087325 -0.210837,0.1141485 -0.10428,0.053406 -0.319219,0.1829072 -0.334052,0.2739235 -0.581775,0.6265744 -0.885785,0.9279178 -0.351505,0.4845671 -0.547602,1.0655073 -0.846144,1.579667 -0.293986,0.609222 -0.596712,1.2113325 -0.78084,1.8606165 -0.228997,0.6078825 -0.442177,1.220784 -0.54469,1.859292 -0.144255,0.5848048 -0.225326,1.1803088 -0.389123,1.7606968 -0.167329,0.576934 -0.361362,1.141876 -0.560749,1.709539 -0.162297,0.432492 -0.309464,0.859978 -0.610809,1.232618 -0.757397,0.956857 -1.745114,1.724542 -3.113171,1.972635 -0.288831,0.04083 -0.5818181,0.02621 -0.8731136,0.02373 -0.3236595,-0.0084 -0.6534855,-0.02189 -0.963354,-0.116415 -0.277782,-0.12201 -0.522519,-0.309392 -0.693471,-0.54801 -0.165213,-0.288846 -0.350871,-0.580968 -0.409386,-0.90744 -0.069285,-0.2779 -0.128325,-0.549595 -0.117255,-0.837426 -0.03561,-0.343826 -0.09069,-0.684408 -0.152001,-1.025061 -0.00405,-0.357458 -0.0039,-0.715574 -0.040665,-1.071782 C 7.2284334,11.545813 7.1417034,11.195952 7.0627104,10.84249 7.0047354,10.599192 6.8934504,10.373011 6.8509179,10.126518 6.7800129,9.9315897 6.6822294,9.7409202 6.5629524,9.5680482 6.4141824,9.3936942 6.2594004,9.2179362 6.0533469,9.0994107 5.8564089,9.0022707 5.6534206,9.0046407 5.4389034,9.0505857 5.2044145,9.1030407 4.9787805,9.1820007 4.7433145,9.2297622 4.5246136,9.2756172 4.2196599,9.4094067 4.3139964,9.3571122 8.5331199,7.0185657 6.8885859,7.8141342 6.2569809,8.3383452 6.0437844,8.4365052 5.8958904,8.5886412 5.7671034,8.7700947 5.6288709,9.0724392 5.4144895,9.3457107 5.359581,9.6787692 5.243448,10.104726 5.0972908,10.526767 5.1240099,10.972956 c -0.00457,0.45663 -0.012555,0.914493 0.029848,1.369927 0,0 -2.3970342,1.132802 -2.3970342,1.132802 z"
       inkscape:connector-curvature="0" />
    <path
       style="fill:#ffffff;fill-opacity:1;stroke:#ffffff;stroke-width:0.635678;stroke-linejoin:round;stroke-miterlimit:4;stroke-dasharray:none;stroke-opacity:1"
       id="path4402"
       d="m 2.8732729,27.409746 c 0.030558,-0.46805 0.034906,-0.937529 0.035668,-1.406351 0.00279,-0.548874 -0.03697,-1.098897 0.107523,-1.635249 0.1736619,-0.491496 0.450884,-0.932316 0.8392983,-1.301661 1.2337478,-0.916953 2.6584337,-1.578684 4.0238162,-2.302645 0.5451855,-0.16571 1.1119965,-0.264386 1.669875,-0.388449 0.5781956,-0.13686 1.1725316,-0.154746 1.7652726,-0.171957 0.573853,-0.0068 1.147724,-0.01646 1.721641,-0.01365 0.555654,8.79e-4 1.100567,-0.02982 1.641642,0.10059 0.577065,0.162475 1.154253,0.337008 1.712866,0.548494 0.800331,0.268149 1.604888,0.532643 2.385168,0.847563 0.805246,0.362508 1.626622,0.691001 2.432622,1.051871 0.844729,0.393007 1.697776,0.767023 2.570055,1.104018 0.711993,0.290059 1.436841,0.543709 2.201653,0.679455 0.668723,0.09671 1.346712,0.100695 2.021766,0.10599 0.509762,-0.0039 1.019525,-0.0085 1.529291,-0.01275 0.404835,0.0065 0.812221,-0.04706 1.197511,-0.163821 0.265604,-0.100515 0.562217,-0.09996 0.829595,-0.19253 0.136995,-0.04743 0.264492,-0.115845 0.398356,-0.170422 -0.33964,0.103725 0.907512,-0.430388 0.583417,-0.254769 -4.043473,2.19105 -2.832511,1.568731 -2.02528,1.028418 0.253341,-0.180773 0.516784,-0.349926 0.753816,-0.549222 0.20056,-0.13935 0.37459,-0.305564 0.564025,-0.457214 0,0 2.725148,-0.990541 2.725148,-0.990541 v 0 c -0.230781,0.10884 -0.383997,0.283563 -0.575436,0.434821 -0.261027,0.176993 -0.484497,0.398364 -0.755924,0.564852 -1.09384,0.757785 -2.306451,1.363412 -3.546457,1.889702 -0.406297,0.150148 -0.834511,0.224173 -1.254537,0.334092 -0.408198,0.07632 -0.81913,0.13239 -1.237125,0.10677 -0.501902,-4.56e-4 -1.003957,0.0021 -1.505731,-0.0088 -0.681564,-0.01125 -1.364061,-0.04349 -2.035778,-0.15909 -0.768225,-0.159735 -1.492182,-0.440693 -2.210376,-0.736359 -0.867717,-0.348828 -1.712752,-0.742395 -2.568081,-1.11629 -0.814038,-0.341247 -1.622664,-0.693171 -2.434633,-1.038582 -0.789899,-0.299056 -1.589733,-0.576348 -2.40018,-0.823996 -0.569961,-0.175578 -1.137978,-0.362219 -1.720803,-0.497597 -0.531908,-0.08187 -1.072076,-0.04858 -1.609512,-0.0529 -0.566613,0.0013 -1.1335226,-0.01065 -1.6998491,0.01215 -0.582924,0.02516 -1.164654,0.07906 -1.731474,0.214236 -0.5511765,0.12432 -1.120407,0.216336 -1.6357716,0.443751 4.3556421,-2.363941 1.8313671,-1.031571 0.8851206,-0.374761 -0.4191015,0.307186 -0.714393,0.704592 -0.8915077,1.17439 -0.236928,0.489525 -0.1581146,1.041419 -0.167613,1.565489 7.44e-4,0.45757 0.00436,0.915895 0.035668,1.372636 0,0 -2.624747,1.240415 -2.624747,1.240415 z"
       inkscape:connector-curvature="0" />
    <path
       style="fill:#ffffff;fill-opacity:1;stroke:#ffffff;stroke-width:1.01709;stroke-linejoin:round;stroke-miterlimit:4;stroke-dasharray:none;stroke-opacity:1"
       id="path4404"
       d="m 9.8797794,32.244507 c 0.9910546,0.08538 1.9861606,0.11472 2.9799236,0.15544 1.758197,0.08447 3.516531,0.139005 5.276591,0.129855 1.560144,0.0078 3.118062,-0.03289 4.676544,-0.08473 1.129897,-0.0023 2.255512,-0.08648 3.38331,-0.13377 0.860163,-0.01688 1.717972,-0.009 2.571367,-0.11769 0.572471,-0.0673 1.142534,-0.11283 1.688598,-0.289732 0,0 -2.303406,1.553943 -2.303406,1.553943 v 0 c -0.556588,0.13404 -1.126825,0.171585 -1.696912,0.237978 -0.851546,0.07711 -1.705344,0.07099 -2.560311,0.08652 -1.108553,0.03826 -2.216076,0.09603 -3.326051,0.09372 -1.534918,0.03441 -3.069241,0.04763 -4.604887,0.03064 -1.781726,-0.0029 -3.56162,-0.0537 -5.342829,-0.09877 -1.0554781,-0.02334 -2.1113626,-0.0563 -3.1670416,-0.03776 0,0 2.425104,-1.525676 2.425104,-1.525676 z"
       inkscape:connector-curvature="0" />
  </g>
</svg>
