<?xml version="1.0" encoding="UTF-8" standalone="no"?>
<svg
   xmlns:dc="http://purl.org/dc/elements/1.1/"
   xmlns:cc="http://creativecommons.org/ns#"
   xmlns:rdf="http://www.w3.org/1999/02/22-rdf-syntax-ns#"
   xmlns:svg="http://www.w3.org/2000/svg"
   xmlns="http://www.w3.org/2000/svg"
   xmlns:sodipodi="http://sodipodi.sourceforge.net/DTD/sodipodi-0.dtd"
   xmlns:inkscape="http://www.inkscape.org/namespaces/inkscape"
   sodipodi:docname="subtractRegion.svg"
   inkscape:version="1.1-dev (bc69992, 2020-04-15)"
   version="1.1"
   width="44"
   height="44"
   id="svg7537">
  <sodipodi:namedview
     width="44px"
     inkscape:current-layer="svg7537"
     inkscape:window-maximized="0"
     inkscape:window-y="23"
     inkscape:window-x="0"
     inkscape:cy="21.14756"
     inkscape:cx="18.585517"
     inkscape:zoom="1.9365083"
     showgrid="false"
     id="namedview15"
     inkscape:window-height="690"
     inkscape:window-width="1148"
     inkscape:pageshadow="2"
     inkscape:pageopacity="0"
     guidetolerance="10"
     gridtolerance="10"
     objecttolerance="10"
     borderopacity="1"
     bordercolor="#666666"
     pagecolor="#211d1d" />
  <defs
     id="defs7539">
    <linearGradient
       x1="-313.01999"
       y1="184.71001"
       gradientTransform="translate(331.34707,-150.96123)"
       x2="-312.37"
       gradientUnits="userSpaceOnUse"
       y2="112.47"
       id="linearGradient6814">
      <stop
         offset="0"
         stop-color="#FFF"
         id="stop22496-54-8" />
      <stop
         offset="1"
         stop-opacity="0"
         stop-color="#FFF"
         id="stop22498-4-61" />
    </linearGradient>
  </defs>
  <metadata
     id="metadata7542">
    <rdf:RDF>
      <cc:Work
         rdf:about="">
        <dc:format>image/svg+xml</dc:format>
        <dc:type
           rdf:resource="http://purl.org/dc/dcmitype/StillImage" />
        <dc:title></dc:title>
      </cc:Work>
    </rdf:RDF>
  </metadata>
  <g
     transform="translate(-0.02303568,-0.06616966)"
     id="g1025">
    <path
       style="fill:#ffffff;fill-opacity:0.4;stroke-width:1.61648"
       inkscape:connector-curvature="0"
       d="m 35.20629,8.888901 c 0.01616,0.2586365 0.04849,0.5172729 0.04849,0.7597446 0.0485,1.6811374 -0.743579,3.2976144 -2.117585,4.2513364 -2.780342,2.23074 -6.546736,2.036762 -9.90901,1.972103 C 16.875431,15.597284 10.344861,14.174784 5.0428132,10.505379 4.7518471,10.295237 4.4770459,10.052765 4.1860799,9.8102934 2.7797442,11.410606 1.842187,13.382709 1.7613631,15.564955 c 0.2101421,2.586364 1.9236087,4.752444 3.8472173,6.368922 4.9949166,3.960371 11.3153456,5.88398 17.5711146,6.708383 3.895712,0.420285 7.872247,0.74358 11.767959,0.161648 3.200626,-0.533438 6.708383,-2.602529 7.27415,-6.061792 C 42.755242,17.698705 39.894076,12.881601 36.208506,9.6486456 35.885211,9.3900092 35.545751,9.1475375 35.20629,8.888901 Z M 1.7613631,15.564955 c 0,-0.08082 -0.048494,-0.161648 -0.048494,-0.258637 v 0.614262 c 0,-0.129319 0.048494,-0.242472 0.048494,-0.355625 z"
       id="path6681" />
    <path
       style="fill:none;stroke:#ffffff;stroke-width:2.3;stroke-miterlimit:4;stroke-dasharray:none;stroke-opacity:1"
       inkscape:connector-curvature="0"
       d="m 35.20629,8.888901 c 0.01616,0.2586365 0.04849,0.5172729 0.04849,0.7597446 0.0485,1.6811374 -0.743579,3.2976144 -2.117585,4.2513364 -2.780342,2.23074 -6.546736,2.036762 -9.90901,1.972103 C 16.875431,15.597284 10.344861,14.174784 5.0428132,10.505379 4.7518471,10.295237 4.4770459,10.052765 4.1860799,9.8102934 2.7797442,11.410606 1.7021648,13.382015 1.7613631,15.564955 c 0.070344,2.593933 1.9236087,4.752444 3.8472173,6.368922 4.9949166,3.960371 11.3153456,5.88398 17.5711146,6.708383 3.895712,0.420285 7.872247,0.74358 11.767959,0.161648 3.200626,-0.533438 6.708383,-2.602529 7.27415,-6.061792 C 42.755242,17.698705 39.894076,12.881601 36.208506,9.6486456 35.885211,9.3900092 35.545751,9.1475375 35.20629,8.888901 Z"
       id="path6689"
       sodipodi:nodetypes="ccccccscccccc" />
    <path
       id="path6766"
       style="color:#000000;text-indent:0;text-align:start;text-transform:none;direction:ltr;baseline-shift:baseline;fill:#ffffff;fill-opacity:1;stroke-width:1.61648;enable-background:accumulate"
       d="m 1.0964896,34.450281 v 3.232956 H 15.951921 v -3.232956 z"
       inkscape:connector-curvature="0" />
  </g>
</svg>
