<?xml version="1.0" encoding="UTF-8" standalone="no"?>
<svg
   xmlns:dc="http://purl.org/dc/elements/1.1/"
   xmlns:cc="http://creativecommons.org/ns#"
   xmlns:rdf="http://www.w3.org/1999/02/22-rdf-syntax-ns#"
   xmlns:svg="http://www.w3.org/2000/svg"
   xmlns="http://www.w3.org/2000/svg"
   xmlns:sodipodi="http://sodipodi.sourceforge.net/DTD/sodipodi-0.dtd"
   xmlns:inkscape="http://www.inkscape.org/namespaces/inkscape"
   sodipodi:docname="toBezier.svg"
   inkscape:version="1.1-dev (bc69992, 2020-04-15)"
   version="1.1"
   width="44"
   height="44"
   id="svg7024">
  <sodipodi:namedview
     showguides="false"
     width="44px"
     inkscape:current-layer="svg7024"
     inkscape:window-maximized="0"
     inkscape:window-y="23"
     inkscape:window-x="0"
     inkscape:cy="22"
     inkscape:cx="22"
     inkscape:zoom="17.25"
     showgrid="false"
     id="namedview17"
     inkscape:window-height="967"
     inkscape:window-width="1444"
     inkscape:pageshadow="2"
     inkscape:pageopacity="0"
     guidetolerance="10"
     gridtolerance="10"
     objecttolerance="10"
     borderopacity="1"
     bordercolor="#666666"
     pagecolor="#1f2128" />
  <defs
     id="defs7026">
    <linearGradient
       x1="-313.01999"
       y1="184.71001"
       gradientTransform="translate(331.34707,-150.96124)"
       x2="-312.37"
       gradientUnits="userSpaceOnUse"
       y2="112.47"
       id="linearGradient25259">
      <stop
         offset="0"
         stop-color="#FFF"
         id="stop22496-54-6" />
      <stop
         offset="1"
         stop-opacity="0"
         stop-color="#FFF"
         id="stop22498-4-8" />
    </linearGradient>
  </defs>
  <metadata
     id="metadata7029">
    <rdf:RDF>
      <cc:Work
         rdf:about="">
        <dc:format>image/svg+xml</dc:format>
        <dc:type
           rdf:resource="http://purl.org/dc/dcmitype/StillImage" />
        <dc:title></dc:title>
      </cc:Work>
    </rdf:RDF>
  </metadata>
  <path
     sodipodi:nodetypes="cccccccc"
     inkscape:connector-curvature="0"
     id="path24498-4-0"
     d="M 14.82361,3.8560653 1.9174736,15.213777 9.2053277,22.108843 12.445971,22.61484 c 3.195124,-3.705729 8.384048,-4.879395 12.981826,-5.098253 L 29.66616,7.6282476 14.82361,3.8560708 Z"
     style="opacity:1;fill:#ffffff;fill-opacity:0.3;stroke:#c8c8c8;stroke-width:2.25;stroke-miterlimit:10;stroke-dasharray:none;stroke-opacity:1" />
  <path
     id="path13071-0-9-7"
     d="m 11.628818,23.587544 c 2.293644,-3.662879 6.352602,-5.154078 10.128084,-5.762149 5.128461,-1.042406 10.733676,0.115799 14.844164,3.865563 3.388929,2.8666 6.069125,7.383658 5.837178,12.306102 -0.373662,3.27195 -3.221402,5.501529 -6.004689,5.791116 C 32.890037,40.410703 29.294941,39.8895 25.764314,39.41174 20.622962,38.427251 15.391409,36.284557 11.680364,31.999132 9.9923604,29.639244 9.8892692,25.96189 11.628866,23.587544 Z"
     stroke-miterlimit="10"
     inkscape:connector-curvature="0"
     style="opacity:1;fill:#ffffff;fill-opacity:0.40000001;stroke:none;stroke-width:2.04877;stroke-miterlimit:10;stroke-dasharray:none;stroke-opacity:1" />
  <path
     id="path13071-0-9-7-4"
     d="m 11.663948,23.660738 c 2.294048,-3.641014 6.353718,-5.123314 10.129862,-5.727755 5.12936,-1.036184 10.735543,0.115102 14.846752,3.842491 3.389541,2.84949 6.07019,7.339586 5.838203,12.232649 -0.373711,3.252422 -3.221967,5.468693 -6.005743,5.756552 -3.544125,0.618812 -7.139867,0.100716 -10.671099,-0.37419 C 20.659672,38.411872 15.4272,36.281967 11.715503,32.022121 10.027204,29.676319 9.9240939,26.020913 11.663989,23.660738 Z"
     stroke-miterlimit="10"
     inkscape:connector-curvature="0"
     style="fill:none;fill-opacity:1;stroke:#ffffff;stroke-width:2.25;stroke-miterlimit:10;stroke-dasharray:none;stroke-opacity:1" />
</svg>
