<?xml version="1.0" encoding="UTF-8" standalone="no"?>
<svg
   xmlns:dc="http://purl.org/dc/elements/1.1/"
   xmlns:cc="http://creativecommons.org/ns#"
   xmlns:rdf="http://www.w3.org/1999/02/22-rdf-syntax-ns#"
   xmlns:svg="http://www.w3.org/2000/svg"
   xmlns="http://www.w3.org/2000/svg"
   xmlns:sodipodi="http://sodipodi.sourceforge.net/DTD/sodipodi-0.dtd"
   xmlns:inkscape="http://www.inkscape.org/namespaces/inkscape"
   width="44"
   height="44"
   id="svg23607"
   version="1.1"
   inkscape:version="1.1-dev (bc69992, 2020-04-15)"
   sodipodi:docname="zoomOut.svg">
  <defs
     id="defs23609" />
  <sodipodi:namedview
     id="base"
     pagecolor="#2a2a2a"
     bordercolor="#666666"
     borderopacity="1.0"
     inkscape:pageopacity="0"
     inkscape:pageshadow="2"
     inkscape:zoom="29.788666"
     inkscape:cx="17.494905"
     inkscape:cy="24.046436"
     inkscape:document-units="px"
     inkscape:current-layer="layer1"
     showgrid="false"
     fit-margin-top="0"
     fit-margin-left="0"
     fit-margin-right="0"
     fit-margin-bottom="0"
     inkscape:window-width="1509"
     inkscape:window-height="1005"
     inkscape:window-x="171"
     inkscape:window-y="23"
     inkscape:window-maximized="0"
     width="44px" />
  <metadata
     id="metadata23612">
    <rdf:RDF>
      <cc:Work
         rdf:about="">
        <dc:format>image/svg+xml</dc:format>
        <dc:type
           rdf:resource="http://purl.org/dc/dcmitype/StillImage" />
        <dc:title />
      </cc:Work>
    </rdf:RDF>
  </metadata>
  <g
     inkscape:label="Layer 1"
     inkscape:groupmode="layer"
     id="layer1"
     transform="translate(-356.344,-513.70618)">
    <path
       sodipodi:nodetypes="sscsccscsscsccscs"
       d="m 382.95541,531.86239 v 1.5373 c 0,0.20821 -0.0761,0.38836 -0.22823,0.54045 -0.15211,0.15209 -0.33226,0.22813 -0.54045,0.22813 h -5.38052 -3.07461 -5.38053 c -0.20819,0 -0.38834,-0.076 -0.54045,-0.22813 -0.15214,-0.15207 -0.22821,-0.33222 -0.22821,-0.54045 v -1.5373 c 0,-0.20815 0.0761,-0.3883 0.22821,-0.54047 0.15211,-0.15207 0.33226,-0.2281 0.54045,-0.2281 h 5.38053 3.07461 5.38052 c 0.20819,0 0.38836,0.076 0.54049,0.2281 0.15213,0.15209 0.22819,0.33224 0.22819,0.54047 z"
       id="path4143"
       style="fill:#ffffff;fill-opacity:1;stroke-width:1.99849" />
    <path
       d="m 375.26821,515.72132 c -2.28995,0 -4.47949,0.44231 -6.56925,1.33102 -2.08975,0.88883 -3.89278,2.09338 -5.40606,3.60664 -1.51328,1.51322 -2.714,3.31233 -3.60274,5.40216 -0.88875,2.08976 -1.33102,4.27935 -1.33102,6.56925 0,2.28994 0.44227,4.47949 1.33102,6.56924 0.88874,2.08978 2.08946,3.89277 3.60274,5.40606 1.51328,1.51325 3.31631,2.71404 5.40606,3.60274 2.08976,0.88878 4.2793,1.33102 6.56925,1.33102 3.52298,0 6.72008,-0.99254 9.58648,-2.97821 l 8.23595,8.21643 c 0.57649,0.60846 1.2977,0.91337 2.16243,0.91337 0.84872,0 1.57363,-0.30113 2.17413,-0.90166 0.60051,-0.60053 0.90166,-1.32547 0.90166,-2.17413 0,-0.84869 -0.29746,-1.56992 -0.88995,-2.16243 l -8.23985,-8.23595 c 1.98568,-2.86639 2.97821,-6.06353 2.97821,-9.58648 0,-2.2899 -0.44225,-4.47949 -1.33102,-6.56925 -0.88874,-2.08983 -2.08946,-3.88894 -3.60274,-5.40216 -1.51327,-1.51326 -3.3163,-2.71781 -5.40606,-3.60664 -2.08977,-0.88871 -4.27931,-1.33102 -6.56924,-1.33102 z m 0,2.91966 c 3.85124,0 7.14563,1.36879 9.88313,4.10627 2.73754,2.73751 4.10627,6.03186 4.10627,9.88314 0,3.85118 -1.36873,7.14565 -4.10627,9.88313 -2.7375,2.73758 -6.03189,4.10627 -9.88313,4.10627 -3.85126,0 -7.14566,-1.36869 -9.88314,-4.10627 -2.73755,-2.73748 -4.10627,-6.03195 -4.10627,-9.88313 0,-3.85128 1.36872,-7.14563 4.10627,-9.88314 2.73748,-2.73748 6.03188,-4.10627 9.88314,-4.10627 z"
       id="path4141"
       style="fill:#ffffff;fill-opacity:1;stroke-width:1.99849" />
  </g>
</svg>
