<?xml version="1.0" encoding="UTF-8" standalone="no"?>
<svg
   xmlns:dc="http://purl.org/dc/elements/1.1/"
   xmlns:cc="http://creativecommons.org/ns#"
   xmlns:rdf="http://www.w3.org/1999/02/22-rdf-syntax-ns#"
   xmlns:svg="http://www.w3.org/2000/svg"
   xmlns="http://www.w3.org/2000/svg"
   xmlns:sodipodi="http://sodipodi.sourceforge.net/DTD/sodipodi-0.dtd"
   xmlns:inkscape="http://www.inkscape.org/namespaces/inkscape"
   id="svg2"
   version="1.1"
   inkscape:version="0.91 r13725"
   sodipodi:docname="copy.svg"
   width="37.310001"
   height="37.310001">
  <metadata
     id="metadata10">
    <rdf:RDF>
      <cc:Work
         rdf:about="">
        <dc:format>image/svg+xml</dc:format>
        <dc:type
           rdf:resource="http://purl.org/dc/dcmitype/StillImage" />
        <dc:title />
      </cc:Work>
    </rdf:RDF>
  </metadata>
  <defs
     id="defs8">
    <linearGradient
       id="linearGradient25035"
       y2="112.47"
       gradientUnits="userSpaceOnUse"
       x2="-312.37"
       gradientTransform="translate(331.34653,-150.95999)"
       y1="184.71001"
       x1="-313.01999">
      <stop
         id="stop22496-54-6-4"
         stop-color="#FFF"
         offset="0" />
      <stop
         id="stop22498-4-8-1"
         stop-color="#FFF"
         stop-opacity="0"
         offset="1" />
    </linearGradient>
  </defs>
  <sodipodi:namedview
     pagecolor="#ffffff"
     bordercolor="#666666"
     borderopacity="1"
     objecttolerance="10"
     gridtolerance="10"
     guidetolerance="10"
     inkscape:pageopacity="0"
     inkscape:pageshadow="2"
     inkscape:window-width="1112"
     inkscape:window-height="723"
     id="namedview6"
     showgrid="false"
     inkscape:zoom="8.453125"
     inkscape:cx="17.718794"
     inkscape:cy="16.252205"
     inkscape:window-x="203"
     inkscape:window-y="59"
     inkscape:window-maximized="0"
     inkscape:current-layer="svg2"
     fit-margin-top="0"
     fit-margin-left="0"
     fit-margin-right="0"
     fit-margin-bottom="0" />
  <g
     id="g4139">
    <path
       inkscape:connector-curvature="0"
       style="fill:url(#linearGradient25035);stroke-miterlimit:10"
       stroke-miterlimit="10"
       d="M 18.66,0 C 8.35,0 0,8.35 0,18.66 c 0,10.3 8.35,18.65 18.66,18.65 10.3,0 18.65,-8.35 18.65,-18.65 C 37.31,8.35 28.96,0 18.66,0"
       id="path24366-1-4" />
    <path
       sodipodi:nodetypes="cscccsscc"
       id="path5833-9"
       d="m 15.578194,21.563414 c -0.66,-0.36 1.444112,-1.680154 0.694112,-2.010154 -0.75,-0.33 -1.52,-0.61 -2.28,-0.72 -1.94,-0.29 -4.1300001,-0.19 -6.0700001,0.13 -0.61,0.09 -1.23,0.27 -1.9,0.46 l 0,4.16 c 0,0.67 0.4800946,1.099919 1,1.09 l 8.7692311,-0.167301 c 0,0 0.934025,-2.301686 -0.213343,-2.942545 z"
       inkscape:connector-curvature="0"
       style="fill:#ea503c;fill-opacity:1;opacity:0.4" />
    <path
       id="path5833"
       d="m 30.198291,28.465929 c -0.98,-1.11 -1.95,-2.06 -3.16,-2.72 -0.66,-0.36 -1.4,-0.76 -2.15,-1.09 -0.75,-0.33 -1.52,-0.61 -2.28,-0.72 -1.94,-0.29 -4.13,-0.19 -6.07,0.13 -0.61,0.09 -1.23,0.27 -1.9,0.46 l 0,4.16 c 0,0.67 0.48,1.09 1,1.09 l 13.37,0 c 0.99,0 1.19,-0.59 1.19,-1.31 z"
       inkscape:connector-curvature="0"
       style="fill:#ea503c;fill-opacity:1;opacity:0.4" />
    <path
       id="path4-9"
       d="m 29.025208,11.63369 q 0.546168,0 0.928486,0.382318 0.382317,0.382316 0.382317,0.928485 l 0,16.603502 q 0,0.546168 -0.382317,0.928485 -0.382318,0.382317 -0.928486,0.382317 l -13.108027,0 q -0.546168,0 -0.928486,-0.382317 -0.382317,-0.382317 -0.382317,-0.928485 l 0,-3.932408 -7.427883,0 q -0.546168,0 -0.928484,-0.382318 -0.382318,-0.382317 -0.382318,-0.928486 l 0,-9.175619 q 0,-0.546167 0.273083,-1.201569 0.273085,-0.655402 0.655401,-1.037719 L 12.36709,7.3189631 q 0.382317,-0.382317 1.037719,-0.655402 0.655402,-0.273083 1.201569,-0.273083 l 5.680145,0 q 0.546168,0 0.928486,0.382317 0.382317,0.382318 0.382317,0.928486 l 0,4.4785769 q 0.928485,-0.546168 1.747736,-0.546168 l 5.680146,0 z m -7.427882,2.908344 -4.082605,4.082604 4.082605,0 0,-4.082604 z m -8.738685,-5.2432114 -4.082605,4.0826054 4.082605,0 0,-4.0826054 z m 2.676223,8.8342644 4.314725,-4.314726 0,-5.6801469 -5.243211,0 0,5.6801469 q 0,0.546168 -0.382318,0.928486 -0.382317,0.382317 -0.928485,0.382317 l -5.680145,0 0,8.738685 6.990948,0 0,-3.495474 q 0,-0.546168 0.273084,-1.201569 0.273084,-0.655401 0.655402,-1.037719 z m 13.053411,10.977973 0,-15.729632 -5.243213,0 0,5.680145 q 0,0.546167 -0.382316,0.928484 -0.382318,0.382318 -0.928486,0.382318 l -5.680145,0 0,8.738685 12.23416,0 z"
       inkscape:connector-curvature="0" />
  </g>
</svg>
