<?xml version="1.0" encoding="UTF-8" standalone="no"?>
<!-- Created with Inkscape (http://www.inkscape.org/) -->

<svg
   xmlns:dc="http://purl.org/dc/elements/1.1/"
   xmlns:cc="http://creativecommons.org/ns#"
   xmlns:rdf="http://www.w3.org/1999/02/22-rdf-syntax-ns#"
   xmlns:svg="http://www.w3.org/2000/svg"
   xmlns="http://www.w3.org/2000/svg"
   xmlns:sodipodi="http://sodipodi.sourceforge.net/DTD/sodipodi-0.dtd"
   xmlns:inkscape="http://www.inkscape.org/namespaces/inkscape"
   width="628.51434"
   height="587.91016"
   id="svg3076"
   version="1.1"
   inkscape:version="0.91 r13725"
   sodipodi:docname="microdraw-logo-white.svg">
  <defs
     id="defs3078" />
  <sodipodi:namedview
     id="base"
     pagecolor="#ffffff"
     bordercolor="#666666"
     borderopacity="1.0"
     inkscape:pageopacity="0.0"
     inkscape:pageshadow="2"
     inkscape:zoom="0.66795929"
     inkscape:cx="204.19176"
     inkscape:cy="371.81899"
     inkscape:document-units="px"
     inkscape:current-layer="layer1"
     showgrid="false"
     fit-margin-top="0"
     fit-margin-left="0"
     fit-margin-right="0"
     fit-margin-bottom="0"
     inkscape:window-width="1725"
     inkscape:window-height="1033"
     inkscape:window-x="15"
     inkscape:window-y="17"
     inkscape:window-maximized="0" />
  <metadata
     id="metadata3081">
    <rdf:RDF>
      <cc:Work
         rdf:about="">
        <dc:format>image/svg+xml</dc:format>
        <dc:type
           rdf:resource="http://purl.org/dc/dcmitype/StillImage" />
        <dc:title></dc:title>
      </cc:Work>
    </rdf:RDF>
  </metadata>
  <g
     inkscape:label="Layer 1"
     inkscape:groupmode="layer"
     id="layer1"
     transform="translate(-256.19884,-585.94553)">
    <g
       id="g4164"
       transform="translate(23.630828,-1.1)">
      <path
         inkscape:connector-curvature="0"
         style="fill:#ffffff;fill-opacity:1"
         d="m 420.32518,979.23095 c 0,-7.9747 2.92829,-13.9415 8.91093,-18.1573 4.18659,-2.9501 4.51409,-3.0083 19.69657,-3.5 l 15.4392,-0.5 10.22665,-21.8061 c 13.915,-29.6707 15.61627,-31.2197 34.22665,-31.1639 10.80455,0.0324 15.48593,1.5807 20.26346,6.7015 l 22.89817,46.2685 53.41919,0.5 c 58.5429,0.548 56.05653,0.2814 62.11613,6.6608 3.83004,4.0321 5.80305,9.4065 5.80305,15.8071 l 0,5.5321 -253,0 z"
         id="path4498" />
      <path
         inkscape:connector-curvature="0"
         style="fill:#ffffff;fill-opacity:1"
         d="m 546.53057,926.03605 -3.22388,-6.5377 6.25925,-2.8506 c 3.44258,-1.5678 10.24155,-4.7008 15.10881,-6.9623 4.86726,-2.2615 9.8971,-4.1118 11.17742,-4.1118 4.77808,0 8.74872,9.8665 5.16693,12.8391 -1.474,1.2233 -29.35184,14.1609 -30.51381,14.1609 -0.41297,0 -2.20159,-2.9419 -3.97472,-6.5376 z"
         id="path4500" />
      <path
         inkscape:connector-curvature="0"
         style="fill:#ffffff;fill-opacity:1"
         d="m 570.76788,931.15545 c -2.36708,-1.7309 -2.58589,-1.5246 6.37858,-6.013 5.99686,-3.0026 7.59373,-4.3178 8.82739,-7.2703 1.35825,-3.2508 1.34354,-4.0303 -0.14988,-7.9408 -3.36432,-8.8093 -8.96281,-10.30918 -19.99879,-5.3577 -3.67754,1.65 -6.86949,3 -7.09322,3 -1.39414,0 -0.0241,-5.1549 1.84322,-6.9353 3.10053,-2.95617 52.61269,-25.99755 55.94424,-26.03466 1.48183,-0.0165 3.79304,0.98249 5.13603,2.21999 2.53424,2.33518 11.66973,21.13601 11.66973,24.01627 0,3.1756 -2.31098,6.6534 -5.38856,8.1091 -53.55151,25.331 -53.12312,25.1646 -57.16874,22.2064 z"
         id="path4502" />
      <path
         style="fill:#ffffff;fill-opacity:1"
         d="m 507.3219,776.05896 c -1.72252,1.71241 -5.88327,9.82263 -10.43978,18.57635 -7.15449,13.74481 -9.83317,24.13215 -9.91246,38.43836 -0.0792,14.29311 1.44991,21.00127 7.75028,34.00001 6.36531,13.13271 9.20672,15.52039 18.42034,15.47891 6.85688,-0.0309 13.20442,-2.62707 60.81093,-24.87217 48.31851,-22.57781 46.65067,-22.11899 50.39758,-13.86417 2.425,5.34254 2.47746,8.34797 0.18005,10.31508 -1.70245,1.45769 -14.03273,7.31929 -61.20366,29.09517 -11.275,5.20497 -21.62184,10.56946 -22.99297,11.92108 -1.97664,1.94852 -2.49443,3.46601 -2.5,7.32677 l -0.007,4.8694 -3.8776,-3.4977 c -7.21677,-6.50971 -11.46051,-7.77237 -26.12243,-7.77237 -12.15659,0 -13.32439,0.17262 -18,2.66071 -2.75,1.46336 -6.55078,4.27586 -8.44617,6.24996 -1.89539,1.9742 -3.72313,3.5893 -4.06165,3.5893 -0.33851,0 -3.84354,-4.8729 -7.78894,-10.82882 -11.63069,-17.55735 -17.17988,-32.06423 -19.32531,-50.5209 -2.60935,-22.44776 3.8411,-46.62973 18.37599,-68.88942 8.13262,-12.45482 10.71324,-15.08416 26.2241,-29.76084 z"
         id="path4504"
         inkscape:connector-curvature="0"
         sodipodi:nodetypes="csssssssssscsssssssscc" />
      <path
         id="path4506"
         d="m 437.09215,619.55424 c -5.61024,-11.54755 -2.28385,-15.9688 19.56847,-26.00939 16.68717,-7.66733 20.60077,-8.19238 25.72823,-3.45169 2.3386,2.16219 7.06558,11.09335 6.28466,11.87426 -0.16793,0.16792 -4.98055,2.4962 -10.69472,5.17395 -26.67023,12.49807 -36.89893,17.12447 -37.86116,17.12447 -0.40503,0 -1.76649,-2.12022 -3.02548,-4.7116 z"
         style="fill:#ffffff;fill-opacity:1;stroke:none;stroke-width:1.5;stroke-miterlimit:4;stroke-dasharray:none;stroke-opacity:1"
         inkscape:connector-curvature="0" />
      <path
         inkscape:connector-curvature="0"
         id="path4516"
         style="color:#000000;display:inline;overflow:visible;visibility:visible;fill:#ffffff;fill-opacity:1;fill-rule:nonzero;stroke:#000000;stroke-width:1.5;stroke-linecap:round;stroke-linejoin:round;stroke-miterlimit:4;stroke-dasharray:none;stroke-dashoffset:0;stroke-opacity:1;marker:none;enable-background:accumulate"
         d="m 476.23368,613.19689 -19.5625,9 35.3125,76.6875 c 7.1473,6.26719 11.69438,15.43142 11.8125,25.65625 l 30.84375,67 c 2.78051,6.0386 9.36504,8.86893 14.78125,6.375 5.41621,-2.49392 7.56176,-9.36765 4.78125,-15.40625 l -77.96875,-169.3125 z m -21.8125,10.0625 -12.28125,5.625 28.28125,61.4375 c 6.39688,0.22752 12.31713,2.19759 17.375,5.4375 l -33.375,-72.5 z m 49.0625,106.5625 c -0.87923,6.24391 -3.44277,11.94427 -7.1875,16.65625 l 25.6875,55.8125 c 1.74202,3.78325 5.88793,5.56247 9.28125,4 3.3933,-1.56247 4.71077,-5.873 2.96875,-9.65625 l -30.75,-66.8125 z m -12.73705,-123.29966 -12.2625,5.64634 79.83295,173.3781 c 1.74202,3.78324 5.88786,5.58019 9.28118,4.01772 3.3933,-1.56247 4.72334,-5.88081 2.98132,-9.66406 z" />
      <path
         sodipodi:nodetypes="cczc"
         inkscape:connector-curvature="0"
         id="path4518"
         d="m 540.47312,821.75279 c 3.19648,-10.28598 19.40022,-17.72154 30.54351,-14.06394 1.16688,8.27683 -3.92941,28.26166 -5.27797,28.82035 -1.34856,0.55868 -18.04186,-5.44903 -25.26554,-14.75641 z"
         style="fill:#ffffff;fill-opacity:1;stroke:#ffffff;stroke-width:1px;stroke-linecap:butt;stroke-linejoin:miter;stroke-opacity:1" />
      <circle
         r="36.416"
         cy="162.29167"
         cx="57.629204"
         transform="matrix(0.88349515,0,0,0.88349515,418.15538,581.72143)"
         id="path4530"
         style="color:#000000;display:inline;overflow:visible;visibility:visible;fill:#ffffff;fill-opacity:1;fill-rule:nonzero;stroke:none;stroke-width:1;marker:none;enable-background:accumulate" />
    </g>
    <g
       style="font-style:normal;font-variant:normal;font-weight:500;font-stretch:normal;font-size:40px;line-height:125%;font-family:Futura;-inkscape-font-specification:'Futura Medium';letter-spacing:0px;word-spacing:0px;fill:#ffffff;fill-opacity:1;stroke:none;stroke-width:1px;stroke-linecap:butt;stroke-linejoin:miter;stroke-opacity:1"
       id="text4141"
       transform="matrix(3.4461919,0,0,3.4461919,-332.63233,-2389.647)">
      <path
         d="m 174.8643,1004.9207 9.48,25.04 9.84,-25.04 4,0 0,28.56 -2.72,0 0,-24.68 -0.08,0 -9.76,24.68 -2.56,0 -9.4,-24.68 -0.08,0 0,24.68 -2.72,0 0,-28.56 4,0 z"
         style="font-style:normal;font-variant:normal;font-weight:300;font-stretch:normal;font-family:'Helvetica Neue';-inkscape-font-specification:'Helvetica Neue Light';fill:#ffffff;fill-opacity:1"
         id="path4146"
         inkscape:connector-curvature="0" />
      <path
         d="m 203.39493,1004.9207 0,4.04 2.52,0 0,-4.04 -2.52,0 z m 0,7.92 0,20.64 2.52,0 0,-20.64 -2.52,0 z"
         style="font-style:normal;font-variant:normal;font-weight:300;font-stretch:normal;font-family:'Helvetica Neue';-inkscape-font-specification:'Helvetica Neue Light';fill:#ffffff;fill-opacity:1"
         id="path4148"
         inkscape:connector-curvature="0" />
      <path
         d="m 225.25868,1019.3207 2.52,0 q -0.44,-3.56 -2.76,-5.32 -2.28,-1.76 -5.6,-1.76 -2.36,0 -4.2,0.88 -1.8,0.88 -3.04,2.36 -1.24,1.48 -1.88,3.48 -0.64,1.96 -0.64,4.2 0,2.24 0.64,4.24 0.64,1.96 1.88,3.44 1.24,1.48 3.04,2.36 1.84,0.84 4.2,0.84 3.52,0 5.76,-2.08 2.24,-2.12 2.76,-5.88 l -2.52,0 q -0.12,1.28 -0.64,2.36 -0.52,1.08 -1.32,1.88 -0.8,0.76 -1.84,1.2 -1.04,0.44 -2.2,0.44 -1.8,0 -3.16,-0.76 -1.36,-0.76 -2.28,-2 -0.88,-1.24 -1.36,-2.8 -0.44,-1.6 -0.44,-3.24 0,-1.64 0.44,-3.2 0.48,-1.6 1.36,-2.84 0.92,-1.24 2.28,-2 1.36,-0.76 3.16,-0.76 2.52,0 3.92,1.32 1.4,1.32 1.92,3.64 z"
         style="font-style:normal;font-variant:normal;font-weight:300;font-stretch:normal;font-family:'Helvetica Neue';-inkscape-font-specification:'Helvetica Neue Light';fill:#ffffff;fill-opacity:1"
         id="path4150"
         inkscape:connector-curvature="0" />
      <path
         d="m 231.4018,1012.8407 0,20.64 2.52,0 0,-11 q 0,-1.64 0.56,-3 0.56,-1.4 1.56,-2.4 1.04,-1 2.44,-1.52 1.4,-0.56 3.12,-0.48 l 0,-2.52 q -2.8,-0.12 -4.84,1.24 -2,1.36 -2.96,3.88 l -0.08,0 0,-4.84 -2.32,0 z"
         style="font-style:normal;font-variant:normal;font-weight:300;font-stretch:normal;font-family:'Helvetica Neue';-inkscape-font-specification:'Helvetica Neue Light';fill:#ffffff;fill-opacity:1"
         id="path4152"
         inkscape:connector-curvature="0" />
      <path
         d="m 252.11399,1014.3607 q 1.8,0 3.16,0.76 1.36,0.76 2.24,2 0.92,1.24 1.36,2.84 0.48,1.56 0.48,3.2 0,1.64 -0.48,3.24 -0.44,1.56 -1.36,2.8 -0.88,1.24 -2.24,2 -1.36,0.76 -3.16,0.76 -1.8,0 -3.16,-0.76 -1.36,-0.76 -2.28,-2 -0.88,-1.24 -1.36,-2.8 -0.44,-1.6 -0.44,-3.24 0,-1.64 0.44,-3.2 0.48,-1.6 1.36,-2.84 0.92,-1.24 2.28,-2 1.36,-0.76 3.16,-0.76 z m 0,-2.12 q -2.36,0 -4.2,0.88 -1.8,0.88 -3.04,2.36 -1.24,1.48 -1.88,3.48 -0.64,1.96 -0.64,4.2 0,2.24 0.64,4.24 0.64,1.96 1.88,3.44 1.24,1.48 3.04,2.36 1.84,0.84 4.2,0.84 2.36,0 4.16,-0.84 1.84,-0.88 3.08,-2.36 1.24,-1.48 1.88,-3.44 0.64,-2 0.64,-4.24 0,-2.24 -0.64,-4.2 -0.64,-2 -1.88,-3.48 -1.24,-1.48 -3.08,-2.36 -1.8,-0.88 -4.16,-0.88 z"
         style="font-style:normal;font-variant:normal;font-weight:300;font-stretch:normal;font-family:'Helvetica Neue';-inkscape-font-specification:'Helvetica Neue Light';fill:#ffffff;fill-opacity:1"
         id="path4154"
         inkscape:connector-curvature="0" />
      <path
         d="m 266.10055,1004.9207 0,28.56 9.88,0 q 6.52,-0.16 9.8,-3.64 3.32,-3.52 3.32,-10.64 0,-7.12 -3.32,-10.6 -3.28,-3.52 -9.8,-3.68 l -9.88,0 z m 2.72,26.24 0,-23.92 5.8,0 q 3.08,0 5.28,0.68 2.24,0.64 3.68,2.08 1.44,1.44 2.12,3.72 0.68,2.28 0.68,5.48 0,3.2 -0.68,5.48 -0.68,2.28 -2.12,3.72 -1.44,1.44 -3.68,2.12 -2.2,0.64 -5.28,0.64 l -5.8,0 z"
         style="font-style:normal;font-variant:normal;font-weight:300;font-stretch:normal;font-family:'Helvetica Neue';-inkscape-font-specification:'Helvetica Neue Light';fill:#ffffff;fill-opacity:1"
         id="path4156"
         inkscape:connector-curvature="0" />
      <path
         d="m 292.9643,1012.8407 0,20.64 2.52,0 0,-11 q 0,-1.64 0.56,-3 0.56,-1.4 1.56,-2.4 1.04,-1 2.44,-1.52 1.4,-0.56 3.12,-0.48 l 0,-2.52 q -2.8,-0.12 -4.84,1.24 -2,1.36 -2.96,3.88 l -0.08,0 0,-4.84 -2.32,0 z"
         style="font-style:normal;font-variant:normal;font-weight:300;font-stretch:normal;font-family:'Helvetica Neue';-inkscape-font-specification:'Helvetica Neue Light';fill:#ffffff;fill-opacity:1"
         id="path4158"
         inkscape:connector-curvature="0" />
      <path
         d="m 305.38055,1019.1607 2.52,0 q 0.08,-2.52 1.6,-3.64 1.52,-1.16 3.92,-1.16 1.12,0 2.08,0.2 1,0.16 1.72,0.64 0.76,0.48 1.16,1.32 0.44,0.8 0.44,2.08 0,0.84 -0.24,1.36 -0.2,0.52 -0.6,0.84 -0.4,0.28 -1,0.4 -0.6,0.12 -1.4,0.2 -2.04,0.24 -4.04,0.52 -1.96,0.24 -3.56,0.88 -1.56,0.64 -2.52,1.88 -0.96,1.2 -0.96,3.36 0,1.56 0.52,2.72 0.56,1.12 1.48,1.88 0.96,0.72 2.2,1.04 1.28,0.36 2.72,0.36 1.52,0 2.6,-0.28 1.12,-0.28 1.96,-0.8 0.88,-0.52 1.56,-1.28 0.72,-0.8 1.4,-1.8 l 0.08,0 q 0,0.8 0.08,1.48 0.12,0.64 0.44,1.12 0.32,0.48 0.88,0.76 0.6,0.24 1.56,0.24 0.52,0 0.84,-0.04 0.36,-0.04 0.8,-0.12 l 0,-2.12 q -0.36,0.16 -0.8,0.16 -1.48,0 -1.48,-1.52 l 0,-10.96 q 0,-2.08 -0.68,-3.36 -0.68,-1.32 -1.76,-2.04 -1.08,-0.72 -2.44,-0.96 -1.36,-0.28 -2.72,-0.28 -1.8,0 -3.28,0.4 -1.48,0.4 -2.6,1.24 -1.08,0.84 -1.72,2.16 -0.64,1.32 -0.76,3.12 z m 13.44,3.04 0,3.28 q 0,1.52 -0.6,2.72 -0.56,1.2 -1.56,2.04 -0.96,0.84 -2.28,1.28 -1.32,0.44 -2.76,0.44 -0.88,0 -1.72,-0.28 -0.84,-0.28 -1.48,-0.8 -0.64,-0.56 -1.04,-1.28 -0.36,-0.76 -0.36,-1.72 0,-1.52 0.88,-2.32 0.92,-0.84 2.32,-1.28 1.4,-0.44 3.08,-0.64 1.72,-0.24 3.32,-0.52 0.52,-0.08 1.2,-0.28 0.68,-0.2 0.92,-0.64 l 0.08,0 z"
         style="font-style:normal;font-variant:normal;font-weight:300;font-stretch:normal;font-family:'Helvetica Neue';-inkscape-font-specification:'Helvetica Neue Light';fill:#ffffff;fill-opacity:1"
         id="path4160"
         inkscape:connector-curvature="0" />
      <path
         d="m 324.24368,1012.8407 6.64,20.64 2.76,0 5.04,-17.36 0.08,0 5.08,17.36 2.76,0 6.64,-20.64 -2.68,0 -5.28,17.68 -0.08,0 -5.04,-17.68 -2.84,0 -5.04,17.68 -0.08,0 -5.28,-17.68 -2.68,0 z"
         style="font-style:normal;font-variant:normal;font-weight:300;font-stretch:normal;font-family:'Helvetica Neue';-inkscape-font-specification:'Helvetica Neue Light';fill:#ffffff;fill-opacity:1"
         id="path4162"
         inkscape:connector-curvature="0" />
    </g>
  </g>
</svg>
