<?xml version="1.0" encoding="UTF-8" standalone="no"?>
<!-- Created with Inkscape (http://www.inkscape.org/) -->

<svg
   xmlns:dc="http://purl.org/dc/elements/1.1/"
   xmlns:cc="http://creativecommons.org/ns#"
   xmlns:rdf="http://www.w3.org/1999/02/22-rdf-syntax-ns#"
   xmlns:svg="http://www.w3.org/2000/svg"
   xmlns="http://www.w3.org/2000/svg"
   xmlns:sodipodi="http://sodipodi.sourceforge.net/DTD/sodipodi-0.dtd"
   xmlns:inkscape="http://www.inkscape.org/namespaces/inkscape"
   width="253"
   height="399.26883"
   id="svg3076"
   version="1.1"
   inkscape:version="0.91 r13725"
   sodipodi:docname="microdraw-white.svg">
  <defs
     id="defs3078" />
  <sodipodi:namedview
     id="base"
     pagecolor="#ffffff"
     bordercolor="#666666"
     borderopacity="1.0"
     inkscape:pageopacity="0.0"
     inkscape:pageshadow="2"
     inkscape:zoom="1.6074978"
     inkscape:cx="85.820438"
     inkscape:cy="183.53699"
     inkscape:document-units="px"
     inkscape:current-layer="layer1"
     showgrid="false"
     fit-margin-top="0"
     fit-margin-left="0"
     fit-margin-right="0"
     fit-margin-bottom="0"
     inkscape:window-width="1725"
     inkscape:window-height="1033"
     inkscape:window-x="24"
     inkscape:window-y="20"
     inkscape:window-maximized="0" />
  <metadata
     id="metadata3081">
    <rdf:RDF>
      <cc:Work
         rdf:about="">
        <dc:format>image/svg+xml</dc:format>
        <dc:type
           rdf:resource="http://purl.org/dc/dcmitype/StillImage" />
        <dc:title />
      </cc:Work>
    </rdf:RDF>
  </metadata>
  <g
     inkscape:label="Layer 1"
     inkscape:groupmode="layer"
     id="layer1"
     transform="translate(-420.32518,-586.30482)">
    <path
       id="path4498"
       d="M 420.32518,979.23095 C 420.32518,971.25625 423.25347,965.28945 429.23611,961.07365 433.4227,958.12355 433.7502,958.06535 448.93268,957.57365 L 464.37188,957.07365 474.59853,935.26755 C 488.51353,905.59685 490.2148,904.04785 508.82518,904.10365 519.62973,904.13605 524.31111,905.68435 529.08864,910.80515 L 551.98681,957.07365 605.406,957.57365 C 663.9489,958.12165 661.46253,957.85505 667.52213,964.23445 671.35217,968.26655 673.32518,973.64095 673.32518,980.04155 L 673.32518,985.57365 420.32518,985.57365 z"
       style="fill:#ffffff;fill-opacity:1"
       inkscape:connector-curvature="0" />
    <path
       id="path4500"
       d="M 546.53057,926.03605 543.30669,919.49835 549.56594,916.64775 C 553.00852,915.07995 559.80749,911.94695 564.67475,909.68545 569.54201,907.42395 574.57185,905.57365 575.85217,905.57365 580.63025,905.57365 584.60089,915.44015 581.0191,918.41275 579.5451,919.63605 551.66726,932.57365 550.50529,932.57365 550.09232,932.57365 548.3037,929.63175 546.53057,926.03605 z"
       style="fill:#ffffff;fill-opacity:1"
       inkscape:connector-curvature="0" />
    <path
       id="path4502"
       d="M 570.76788,931.15545 C 568.4008,929.42455 568.18199,929.63085 577.14646,925.14245 583.14332,922.13985 584.74019,920.82465 585.97385,917.87215 587.3321,914.62135 587.31739,913.84185 585.82397,909.93135 582.45965,901.12205 576.86116,899.62217 565.82518,904.57365 562.14764,906.22365 558.95569,907.57365 558.73196,907.57365 557.33782,907.57365 558.70786,902.41875 560.57518,900.63835 563.67571,897.68218 613.18787,874.6408 616.51942,874.60369 618.00125,874.58719 620.31246,875.58618 621.65545,876.82368 624.18969,879.15886 633.32518,897.95969 633.32518,900.83995 633.32518,904.01555 631.0142,907.49335 627.93662,908.94905 574.38511,934.28005 574.8135,934.11365 570.76788,931.15545 z"
       style="fill:#ffffff;fill-opacity:1"
       inkscape:connector-curvature="0" />
    <path
       sodipodi:nodetypes="csssssssssscsssssssscc"
       inkscape:connector-curvature="0"
       id="path4504"
       d="M 507.3219,776.05896 C 505.59938,777.77137 501.43863,785.88159 496.88212,794.63531 489.72763,808.38012 487.04895,818.76746 486.96966,833.07367 486.89046,847.36678 488.41957,854.07494 494.71994,867.07368 501.08525,880.20639 503.92666,882.59407 513.14028,882.55259 519.99716,882.52169 526.3447,879.92552 573.95121,857.68042 622.26972,835.10261 620.60188,835.56143 624.34879,843.81625 626.77379,849.15879 626.82625,852.16422 624.52884,854.13133 622.82639,855.58902 610.49611,861.45062 563.32518,883.2265 552.05018,888.43147 541.70334,893.79596 540.33221,895.14758 538.35557,897.0961 537.83778,898.61359 537.83221,902.47435 L 537.82521,907.34375 533.94761,903.84605 C 526.73084,897.33634 522.4871,896.07368 507.82518,896.07368 495.66859,896.07368 494.50079,896.2463 489.82518,898.73439 487.07518,900.19775 483.2744,903.01025 481.37901,904.98435 479.48362,906.95855 477.65588,908.57365 477.31736,908.57365 476.97885,908.57365 473.47382,903.70075 469.52842,897.74483 457.89773,880.18748 452.34854,865.6806 450.20311,847.22393 447.59376,824.77617 454.04421,800.5942 468.5791,778.33451 476.71172,765.87969 479.29234,763.25035 494.8032,748.57367 z"
       style="fill:#ffffff;fill-opacity:1" />
    <path
       inkscape:connector-curvature="0"
       style="fill:#ffffff;fill-opacity:1;stroke:none;stroke-width:1.5;stroke-miterlimit:4;stroke-opacity:1;stroke-dasharray:none"
       d="M 437.09215,619.55424 C 431.48191,608.00669 434.8083,603.58544 456.66062,593.54485 473.34779,585.87752 477.26139,585.35247 482.38885,590.09316 484.72745,592.25535 489.45443,601.18651 488.67351,601.96742 488.50558,602.13534 483.69296,604.46362 477.97879,607.14137 451.30856,619.63944 441.07986,624.26584 440.11763,624.26584 439.7126,624.26584 438.35114,622.14562 437.09215,619.55424 z"
       id="path4506" />
    <path
       d="m 476.23368,613.19689 -19.5625,9 35.3125,76.6875 c 7.1473,6.26719 11.69438,15.43142 11.8125,25.65625 l 30.84375,67 c 2.78051,6.0386 9.36504,8.86893 14.78125,6.375 5.41621,-2.49392 7.56176,-9.36765 4.78125,-15.40625 l -77.96875,-169.3125 z m -21.8125,10.0625 -12.28125,5.625 28.28125,61.4375 c 6.39688,0.22752 12.31713,2.19759 17.375,5.4375 l -33.375,-72.5 z m 49.0625,106.5625 c -0.87923,6.24391 -3.44277,11.94427 -7.1875,16.65625 l 25.6875,55.8125 c 1.74202,3.78325 5.88793,5.56247 9.28125,4 3.3933,-1.56247 4.71077,-5.873 2.96875,-9.65625 l -30.75,-66.8125 z m -12.73705,-123.29966 -12.2625,5.64634 79.83295,173.3781 c 1.74202,3.78324 5.88786,5.58019 9.28118,4.01772 3.3933,-1.56247 4.72334,-5.88081 2.98132,-9.66406 z"
       style="color:#000000;display:inline;overflow:visible;visibility:visible;fill:#ffffff;fill-opacity:1;fill-rule:nonzero;stroke:#000000;stroke-width:1.5;stroke-linecap:round;stroke-linejoin:round;stroke-miterlimit:4;stroke-dasharray:none;stroke-dashoffset:0;stroke-opacity:1;marker:none;enable-background:accumulate"
       id="path4516"
       inkscape:connector-curvature="0" />
    <path
       style="fill:#ffffff;fill-opacity:1;stroke:#ffffff;stroke-width:1px;stroke-linecap:butt;stroke-linejoin:miter;stroke-opacity:1"
       d="m 540.47312,821.75279 c 3.19648,-10.28598 19.40022,-17.72154 30.54351,-14.06394 1.16688,8.27683 -3.92941,28.26166 -5.27797,28.82035 -1.34856,0.55868 -18.04186,-5.44903 -25.26554,-14.75641 z"
       id="path4518"
       inkscape:connector-curvature="0"
       sodipodi:nodetypes="cczc" />
    <path
       sodipodi:type="arc"
       style="color:#000000;fill:#ffffff;fill-opacity:1;fill-rule:nonzero;stroke:none;stroke-width:1;marker:none;visibility:visible;display:inline;overflow:visible;enable-background:accumulate"
       id="path4530"
       sodipodi:cx="57.629204"
       sodipodi:cy="162.29167"
       sodipodi:rx="36.416"
       sodipodi:ry="36.416"
       d="m 94.045204,162.29167 a 36.416,36.416 0 0 1 -36.416,36.416 36.416,36.416 0 0 1 -36.416001,-36.416 36.416,36.416 0 0 1 36.416001,-36.416 36.416,36.416 0 0 1 36.416,36.416 z"
       transform="matrix(0.88349515,0,0,0.88349515,418.15538,581.72143)" />
  </g>
</svg>
