<?xml version="1.0" encoding="UTF-8" standalone="no"?>
<!-- Created with Inkscape (http://www.inkscape.org/) -->

<svg
   xmlns:dc="http://purl.org/dc/elements/1.1/"
   xmlns:cc="http://creativecommons.org/ns#"
   xmlns:rdf="http://www.w3.org/1999/02/22-rdf-syntax-ns#"
   xmlns:svg="http://www.w3.org/2000/svg"
   xmlns="http://www.w3.org/2000/svg"
   xmlns:sodipodi="http://sodipodi.sourceforge.net/DTD/sodipodi-0.dtd"
   xmlns:inkscape="http://www.inkscape.org/namespaces/inkscape"
   id="svg6954"
   height="37.312"
   width="37.312"
   version="1.1"
   inkscape:version="0.91 r13725"
   sodipodi:docname="select.svg">
  <sodipodi:namedview
     pagecolor="#ffffff"
     bordercolor="#666666"
     borderopacity="1"
     objecttolerance="10"
     gridtolerance="10"
     guidetolerance="10"
     inkscape:pageopacity="0"
     inkscape:pageshadow="2"
     inkscape:window-width="1112"
     inkscape:window-height="722"
     id="namedview13"
     showgrid="false"
     inkscape:zoom="6.3250428"
     inkscape:cx="18.656"
     inkscape:cy="18.656"
     inkscape:window-x="0"
     inkscape:window-y="0"
     inkscape:window-maximized="0"
     inkscape:current-layer="svg6954" />
  <defs
     id="defs6956">
    <linearGradient
       id="linearGradient24446"
       y2="112.47"
       gradientUnits="userSpaceOnUse"
       x2="-312.37"
       gradientTransform="translate(331.34707,-150.96123)"
       y1="184.71"
       x1="-313.02">
      <stop
         id="stop22496-54"
         stop-color="#FFF"
         offset="0" />
      <stop
         id="stop22498-4"
         stop-color="#FFF"
         stop-opacity="0"
         offset="1" />
    </linearGradient>
  </defs>
  <metadata
     id="metadata6959">
    <rdf:RDF>
      <cc:Work
         rdf:about="">
        <dc:format>image/svg+xml</dc:format>
        <dc:type
           rdf:resource="http://purl.org/dc/dcmitype/StillImage" />
        <dc:title />
      </cc:Work>
    </rdf:RDF>
  </metadata>
  <g
     id="g4163">
    <path
       inkscape:connector-curvature="0"
       style="fill:url(#linearGradient24446);stroke-miterlimit:10"
       d="m 18.65877,-2.3e-4 c -10.31,0 -18.66,8.35 -18.66,18.66 0,10.3 8.35,18.65 18.66,18.65 10.3,0 18.65,-8.35 18.65,-18.65 0,-10.31 -8.35,-18.66 -18.65,-18.66"
       stroke-miterlimit="10"
       id="path23958" />
    <path
       style="fill:#ea503c;fill-opacity:1;stroke:#000000;stroke-width:1.5;stroke-miterlimit:10;stroke-dasharray:none;opacity:0.4"
       inkscape:connector-curvature="0"
       stroke-miterlimit="10"
       d="m 5.80877,12.39977 c 1.78,-2.53 4.93,-3.56 7.86,-3.98 3.99,-0.72 8.33,0.08 11.52,2.67 2.63,1.98 4.71,5.1 4.53,8.49 -0.29,2.27 -2.5,3.81 -4.66,4.01 -2.75,0.43 -5.54,0.07 -8.28,-0.26 -3.99,-0.68 -8.05,-2.16 -10.93,-5.12 -1.31,-1.63 -1.39,-4.17 -0.04,-5.81 z"
       id="path13071" />
    <path
       style="fill:#000000"
       inkscape:connector-curvature="0"
       d="m 18.94877,15.61977 c -0.2,0.28 -0.27,0.68 -0.02,1.12 2.15,3.77 3.63,7.76 4.91,11.89 0.34,1.09 1.1,1.29 1.52,0.64 0.65,-1 1.24,-2.06 1.9,-3.05 l 2.59,2.59 c 0.67,0.67 1.54,-0.22 1.81,-0.49 0.27,-0.26 1.16,-1.14 0.49,-1.81 -0.62,-0.6 -1.82,-1.82 -2.59,-2.58 0.99,-0.67 2.05,-1.26 3.05,-1.9 0.65,-0.42 0.45,-1.19 -0.64,-1.53 -4.13,-1.28 -8.12,-2.76 -11.89,-4.9 -0.44,-0.26 -0.84,-0.19 -1.13,0.02 z"
       id="path23937" />
    <path
       style="opacity:1;fill:none;fill-opacity:1;stroke:#000000;stroke-width:1.5;stroke-miterlimit:10;stroke-dasharray:none"
       inkscape:connector-curvature="0"
       stroke-miterlimit="10"
       d="m 5.80877,12.39977 c 1.78,-2.5299998 4.93,-3.5599998 7.86,-3.9799998 3.99,-0.72 8.33,0.08 11.52,2.6699998 2.63,1.98 4.71,5.1 4.53,8.49 -0.29,2.27 -2.5,3.81 -4.66,4.01 -2.75,0.43 -5.54,0.07 -8.28,-0.26 -3.99,-0.68 -8.05,-2.16 -10.93,-5.12 -1.31,-1.63 -1.39,-4.17 -0.04,-5.81 z"
       id="path13071-2" />
  </g>
</svg>
