<?xml version="1.0" encoding="UTF-8" standalone="no"?>
<!-- Created with Inkscape (http://www.inkscape.org/) -->
<svg id="svg7632" xmlns:rdf="http://www.w3.org/1999/02/22-rdf-syntax-ns#" xmlns="http://www.w3.org/2000/svg" height="37.312" width="37.312" version="1.1" xmlns:cc="http://creativecommons.org/ns#" xmlns:xlink="http://www.w3.org/1999/xlink" xmlns:dc="http://purl.org/dc/elements/1.1/">
 <defs id="defs7634">
  <linearGradient id="linearGradient6805" y2="112.47" gradientUnits="userSpaceOnUse" x2="-312.37" gradientTransform="translate(167.7247,99.651458)" y1="184.71" x1="-313.02">
   <stop id="stop22496-54-8" stop-color="#FFF" offset="0"/>
   <stop id="stop22498-4-61" stop-color="#FFF" stop-opacity="0" offset="1"/>
  </linearGradient>
 </defs>
 <metadata id="metadata7637">
  <rdf:RDF>
   <cc:Work rdf:about="">
    <dc:format>image/svg+xml</dc:format>
    <dc:type rdf:resource="http://purl.org/dc/dcmitype/StillImage"/>
    <dc:title/>
   </cc:Work>
  </rdf:RDF>
 </metadata>
 <g id="layer1" transform="translate(-395.62971,-510.84904)">
  <g id="g7589" transform="translate(559.25208,260.23635)">
   <path id="path6782" d="M-144.97,250.61c-10.3,0-18.65,8.36-18.65,18.66s8.35,18.65,18.65,18.65c10.31,0,18.66-8.35,18.66-18.65s-8.35-18.66-18.66-18.66" stroke-miterlimit="10" fill="url(#linearGradient6805)"/>
   <g id="g6816" transform="translate(36.931113,-86.139498)">
    <path id="path6711" opacity="0.4" d="M-193.24,352.47c-0.01-2.63,2.02-4.83,4.34-5.8,3.18-1.51,6.82-1.85,10.29-1.46,2.48,0.51,4.77,1.79,6.71,3.39,2.28,2,4.03,4.98,3.7,8.09-0.35,2.14-2.5,3.42-4.48,3.76-2.41,0.36-4.87,0.17-7.28-0.09-3.87-0.52-7.79-1.71-10.88-4.16-1.23-1.03-2.33-2.44-2.4-4.1" fill="#ea503c"/>
    <path id="path6705" opacity="0.4" fill="#ea503c" d="M-193.22,352.22c0-0.05-0.03-0.08-0.03-0.13v0.38c0-0.09,0.03-0.17,0.03-0.25z"/>
    <path id="path6695" opacity="0.4" fill="#ea503c" d="M-191.62,348.69c0.15,0.13,0.27,0.31,0.43,0.43,0.82,0.57,1.69,1.04,2.6,1.44,0.9,0.41,1.82,0.74,2.78,1,1.91,0.53,3.91,0.8,5.87,0.88,1.04,0.02,2.16,0.07,3.22-0.06,0.53-0.07,1.04-0.2,1.53-0.38,0.5-0.18,0.95-0.44,1.38-0.78,0.43-0.3,0.77-0.7,1-1.16,0.22-0.45,0.32-0.95,0.31-1.47,0-0.15-0.05-0.29-0.06-0.43-1.8-1.37-3.84-2.49-6.06-2.94-3.47-0.4-7.1-0.07-10.29,1.44-1.03,0.43-1.95,1.17-2.71,2.03z"/>
    <path id="path6713" fill="none" d="M-193.24,352.47c-0.01-2.63,2.02-4.83,4.34-5.8,3.18-1.51,6.82-1.85,10.29-1.46,2.48,0.51,4.77,1.79,6.71,3.39,2.28,2,4.03,4.98,3.7,8.09-0.35,2.14-2.5,3.42-4.48,3.76-2.41,0.36-4.87,0.17-7.28-0.09-3.87-0.52-7.79-1.71-10.88-4.16-1.23-1.03-2.33-2.44-2.4-4.1" stroke="#000"/>
    <path id="path6715" fill="none" stroke="#000" d="M-193.22,352.22c0-0.05-0.03-0.08-0.03-0.13v0.38c0-0.09,0.03-0.17,0.03-0.25z"/>
    <path id="path6717" fill="none" stroke="#000" d="M-191.62,348.69c0.15,0.13,0.27,0.31,0.43,0.43,0.82,0.57,1.69,1.04,2.6,1.44,0.9,0.41,1.82,0.74,2.78,1,1.91,0.53,3.91,0.8,5.87,0.88,1.04,0.02,2.16,0.07,3.22-0.06,0.53-0.07,1.04-0.2,1.53-0.38,0.5-0.18,0.95-0.44,1.38-0.78,0.43-0.3,0.77-0.7,1-1.16,0.22-0.45,0.32-0.95,0.31-1.47,0-0.15-0.05-0.29-0.06-0.43-1.8-1.37-3.84-2.49-6.06-2.94-3.47-0.4-7.1-0.07-10.29,1.44-1.03,0.43-1.95,1.17-2.71,2.03z"/>
   </g>
   <g id="g6921" fill="#000" transform="translate(0,-0.96283762)">
    <path id="path6784" style="baseline-shift:baseline;block-progression:tb;color:#000000;direction:ltr;text-indent:0;text-align:start;enable-background:accumulate;text-transform:none;" d="M-157.73,278.31-157.73,280.31-148.54,280.31-148.54,278.31z"/>
    <g id="g6855" fill-rule="nonzero" transform="translate(0.99215,-0.448641)">
     <path id="path6851" style="enable-background:accumulate;color:#000000;" d="M-434,311.25c0,1.1-0.9,2-2,2s-2-0.9-2-2,0.9-2,2-2,2,0.9,2,2z" transform="matrix(0.75,0,0,0.75,172.87153,49.641102)"/>
     <path id="path6853" style="enable-background:accumulate;color:#000000;" d="M-434,311.25c0,1.1-0.9,2-2,2s-2-0.9-2-2,0.9-2,2-2,2,0.9,2,2z" transform="matrix(0.75,0,0,0.75,172.87153,43.00302)"/>
    </g>
   </g>
  </g>
 </g>
</svg>
