<?xml version="1.0" encoding="UTF-8" standalone="no"?>
<!-- Created with Inkscape (http://www.inkscape.org/) -->

<svg
   xmlns:dc="http://purl.org/dc/elements/1.1/"
   xmlns:cc="http://creativecommons.org/ns#"
   xmlns:rdf="http://www.w3.org/1999/02/22-rdf-syntax-ns#"
   xmlns:svg="http://www.w3.org/2000/svg"
   xmlns="http://www.w3.org/2000/svg"
   xmlns:sodipodi="http://sodipodi.sourceforge.net/DTD/sodipodi-0.dtd"
   xmlns:inkscape="http://www.inkscape.org/namespaces/inkscape"
   id="svg7111"
   height="37.312"
   width="37.312"
   version="1.1"
   inkscape:version="0.91 r13725"
   sodipodi:docname="toggleHandles.svg">
  <sodipodi:namedview
     pagecolor="#ffffff"
     bordercolor="#666666"
     borderopacity="1"
     objecttolerance="10"
     gridtolerance="10"
     guidetolerance="10"
     inkscape:pageopacity="0"
     inkscape:pageshadow="2"
     inkscape:window-width="1454"
     inkscape:window-height="1007"
     id="namedview17"
     showgrid="false"
     inkscape:zoom="4.4724807"
     inkscape:cx="28.197208"
     inkscape:cy="12.331932"
     inkscape:window-x="0"
     inkscape:window-y="0"
     inkscape:window-maximized="0"
     inkscape:current-layer="svg7111" />
  <defs
     id="defs7113">
    <linearGradient
       id="linearGradient6889"
       y2="112.47"
       gradientUnits="userSpaceOnUse"
       x2="-312.37"
       gradientTransform="translate(331.34707,-150.96123)"
       y1="184.71"
       x1="-313.02">
      <stop
         id="stop22496-54-8"
         stop-color="#FFF"
         offset="0" />
      <stop
         id="stop22498-4-61"
         stop-color="#FFF"
         stop-opacity="0"
         offset="1" />
    </linearGradient>
  </defs>
  <metadata
     id="metadata7116">
    <rdf:RDF>
      <cc:Work
         rdf:about="">
        <dc:format>image/svg+xml</dc:format>
        <dc:type
           rdf:resource="http://purl.org/dc/dcmitype/StillImage" />
        <dc:title></dc:title>
      </cc:Work>
    </rdf:RDF>
  </metadata>
  <path
     id="path23958-4"
     stroke-miterlimit="10"
     d="m 18.66075,6.7e-4 c -10.31,0 -18.66,8.35 -18.66,18.66 0,10.3 8.35,18.65 18.66,18.65 10.3,0 18.65,-8.35 18.65,-18.65 0,-10.31 -8.35,-18.66 -18.65,-18.66"
     style="fill:url(#linearGradient6889);stroke-miterlimit:10"
     inkscape:connector-curvature="0" />
  <path
     style="opacity:0.4;fill:#ea503c;fill-opacity:1;stroke:#000000;stroke-width:1.5;stroke-miterlimit:10;stroke-dasharray:none"
     inkscape:connector-curvature="0"
     stroke-miterlimit="10"
     d="m 9.35834,12.33267 c 1.78,-2.53 4.93,-3.56 7.86,-3.98 3.98,-0.72 8.33,0.08 11.52,2.67 2.62,1.98 4.71,5.1 4.53,8.49 -0.29,2.27 -2.5,3.81 -4.66,4.01 -2.75,0.43 -5.54,0.07 -8.28,-0.26 -3.99,-0.68 -8.05,-2.16 -10.93,-5.12 -1.32,-1.63 -1.39,-4.17 -0.04,-5.81 z"
     id="path13071-0" />
  <path
     inkscape:connector-curvature="0"
     d="m 34.521539,4.0786975 c 0,1.0387222 -0.849863,1.8885855 -1.888585,1.8885855 -1.038722,0 -1.888586,-0.8498633 -1.888586,-1.8885855 0,-1.0387222 0.849864,-1.8885858 1.888586,-1.8885858 1.038722,0 1.888585,0.8498636 1.888585,1.8885858 z"
     style="color:#000000;fill:#000000;fill-rule:nonzero;enable-background:accumulate"
     id="path25248-6" />
  <path
     style="opacity:1;fill:none;fill-opacity:1;stroke:#000000;stroke-width:1.5;stroke-miterlimit:10;stroke-dasharray:none"
     inkscape:connector-curvature="0"
     stroke-miterlimit="10"
     d="m 9.35834,12.33267 c 1.78,-2.5300003 4.93,-3.5600003 7.86,-3.9800003 3.98,-0.72 8.33,0.08 11.52,2.6700003 2.62,1.98 4.71,5.1 4.53,8.489999 -0.29,2.27 -2.5,3.81 -4.66,4.01 -2.75,0.43 -5.54,0.07 -8.28,-0.26 -3.99,-0.68 -8.05,-2.16 -10.93,-5.12 -1.32,-1.629999 -1.39,-4.169999 -0.04,-5.809999 z"
     id="path13071-0-3" />
  <rect
     style="fill:#000000;fill-opacity:1;stroke:none;stroke-width:5;stroke-miterlimit:4;stroke-dasharray:none;stroke-opacity:1"
     id="rect4169-5"
     width="4.9189706"
     height="4.9189706"
     x="15.1605"
     y="6.1212564" />
  <path
     style="fill:none;fill-rule:evenodd;stroke:#000000;stroke-width:1.16810262px;stroke-linecap:butt;stroke-linejoin:miter;stroke-opacity:1"
     d="M 7.0099854,7.9739368 C 18.462135,10.968442 33.186655,3.7987012 33.186655,3.7987012 l 0.118446,-0.1439739 c 0.355339,-0.4319204 0,0 0,0"
     id="path4203"
     inkscape:connector-curvature="0"
     sodipodi:nodetypes="ccsc" />
  <g
     transform="translate(0.2795569,18.622106)"
     id="g4141">
    <path
       sodipodi:nodetypes="cc"
       inkscape:connector-curvature="0"
       id="path4231"
       d="M 3.3231102,11.253073 C 7.4785402,3.6411004 14.701689,5.9288264 17.427484,12.153447"
       style="fill:none;fill-rule:evenodd;stroke:#000000;stroke-width:0.92883492px;stroke-linecap:butt;stroke-linejoin:miter;stroke-opacity:1" />
    <path
       sodipodi:nodetypes="cc"
       inkscape:connector-curvature="0"
       id="path4235"
       d="m 3.0748722,10.511381 c 4.231254,5.006755 9.5001878,3.408575 14.4629338,0.927203"
       style="fill:none;fill-rule:evenodd;stroke:#000000;stroke-width:1.22932816px;stroke-linecap:butt;stroke-linejoin:miter;stroke-opacity:1" />
    <path
       sodipodi:nodetypes="csc"
       inkscape:connector-curvature="0"
       id="path4237"
       d="M 4.0001002,11.256919 C 4.5647372,10.313287 5.2877922,9.7562224 6.1311932,9.2227264 10.208939,6.6433354 13.810057,8.7465604 17.00627,11.942773"
       style="fill:none;fill-rule:evenodd;stroke:#000000;stroke-width:0.98346257;stroke-linecap:butt;stroke-linejoin:miter;stroke-miterlimit:4;stroke-dasharray:none;stroke-opacity:1" />
    <ellipse
       ry="2.2837169"
       rx="2.6238449"
       cy="11.067266"
       cx="10.338665"
       id="path4239"
       style="opacity:1;fill:#000000;fill-opacity:1;stroke:#000000;stroke-width:0.98346257;stroke-linejoin:round;stroke-miterlimit:4;stroke-dasharray:none;stroke-opacity:1" />
    <ellipse
       ry="0.76050198"
       rx="0.85768145"
       cy="10.824315"
       cx="10.411179"
       id="path4241"
       style="opacity:0.9;fill:#ffffff;fill-opacity:1;stroke:none;stroke-width:0.9856509;stroke-linejoin:round;stroke-miterlimit:4;stroke-dasharray:none;stroke-opacity:1" />
  </g>
  <path
     inkscape:connector-curvature="0"
     d="m 8.2126534,7.7469832 c 0,1.0387222 -0.849863,1.8885857 -1.888585,1.8885857 -1.038722,0 -1.888586,-0.8498635 -1.888586,-1.8885857 0,-1.0387222 0.849864,-1.8885858 1.888586,-1.8885858 1.038722,0 1.888585,0.8498636 1.888585,1.8885858 z"
     style="color:#000000;fill:#000000;fill-rule:nonzero;enable-background:accumulate"
     id="path25248-6-7" />
</svg>
