<?xml version="1.0" encoding="UTF-8" standalone="no"?>
<svg
   xmlns:dc="http://purl.org/dc/elements/1.1/"
   xmlns:cc="http://creativecommons.org/ns#"
   xmlns:rdf="http://www.w3.org/1999/02/22-rdf-syntax-ns#"
   xmlns:svg="http://www.w3.org/2000/svg"
   xmlns="http://www.w3.org/2000/svg"
   xmlns:sodipodi="http://sodipodi.sourceforge.net/DTD/sodipodi-0.dtd"
   xmlns:inkscape="http://www.inkscape.org/namespaces/inkscape"
   viewBox="0 0 1000 1000"
   id="svg2"
   version="1.1"
   inkscape:version="0.91 r13725"
   width="9.7399472e+10%"
   height="9.7399472e+10%"
   sodipodi:docname="copy.svg">
  <metadata
     id="metadata12">
    <rdf:RDF>
      <cc:Work
         rdf:about="">
        <dc:format>image/svg+xml</dc:format>
        <dc:type
           rdf:resource="http://purl.org/dc/dcmitype/StillImage" />
        <dc:title></dc:title>
      </cc:Work>
    </rdf:RDF>
  </metadata>
  <defs
     id="defs10" />
  <sodipodi:namedview
     pagecolor="#ffffff"
     bordercolor="#666666"
     borderopacity="1"
     objecttolerance="10"
     gridtolerance="10"
     guidetolerance="10"
     inkscape:pageopacity="0"
     inkscape:pageshadow="2"
     inkscape:window-width="1160"
     inkscape:window-height="714"
     id="namedview8"
     showgrid="true"
     inkscape:zoom="0.056568542"
     inkscape:cx="10"
     inkscape:cy="10"
     inkscape:window-x="0"
     inkscape:window-y="25"
     inkscape:window-maximized="0"
     inkscape:current-layer="svg2"
     fit-margin-top="0"
     fit-margin-left="0"
     fit-margin-right="0"
     fit-margin-bottom="0">
    <inkscape:grid
       type="xygrid"
       id="grid3334" />
  </sodipodi:namedview>
  <g
     transform="matrix(0.0988646,0,0,-0.0988646,390.61787,286.47389)"
     id="g4">
    <path
       d="m 768,-128 896,0 0,640 -416,0 q -40,0 -68,28 -28,28 -28,68 l 0,416 -384,0 0,-1152 z m 256,1440 0,64 q 0,13 -9.5,22.5 -9.5,9.5 -22.5,9.5 l -704,0 q -13,0 -22.5,-9.5 Q 256,1389 256,1376 l 0,-64 q 0,-13 9.5,-22.5 9.5,-9.5 22.5,-9.5 l 704,0 q 13,0 22.5,9.5 9.5,9.5 9.5,22.5 z m 256,-672 299,0 -299,299 0,-299 z m 512,-128 0,-672 q 0,-40 -28,-68 -28,-28 -68,-28 l -960,0 q -40,0 -68,28 -28,28 -28,68 L 640,0 96,0 Q 56,0 28,28 0,56 0,96 l 0,1344 q 0,40 28,68 28,28 68,28 l 1088,0 q 40,0 68,-28 28,-28 28,-68 l 0,-328 q 21,-13 36,-28 l 408,-408 q 28,-28 48,-76 20,-48 20,-88 z"
       id="path6"
       inkscape:connector-curvature="0"
       style="fill:currentColor" />
  </g>
</svg>
