<?xml version="1.0" encoding="UTF-8" standalone="no"?>
<!-- Created with Inkscape (http://www.inkscape.org/) -->
<svg id="svg7111" xmlns:rdf="http://www.w3.org/1999/02/22-rdf-syntax-ns#" xmlns="http://www.w3.org/2000/svg" height="37.312" width="37.312" version="1.1" xmlns:cc="http://creativecommons.org/ns#" xmlns:xlink="http://www.w3.org/1999/xlink" xmlns:dc="http://purl.org/dc/elements/1.1/">
 <defs id="defs7113">
  <linearGradient id="linearGradient6889" y2="112.47" gradientUnits="userSpaceOnUse" x2="-312.37" gradientTransform="translate(95.79632,52.0081)" y1="184.71" x1="-313.02">
   <stop id="stop22496-54-8" stop-color="#FFF" offset="0"/>
   <stop id="stop22498-4-61" stop-color="#FFF" stop-opacity="0" offset="1"/>
  </linearGradient>
 </defs>
 <metadata id="metadata7116">
  <rdf:RDF>
   <cc:Work rdf:about="">
    <dc:format>image/svg+xml</dc:format>
    <dc:type rdf:resource="http://purl.org/dc/dcmitype/StillImage"/>
    <dc:title/>
   </cc:Work>
  </rdf:RDF>
 </metadata>
 <g id="layer1" transform="translate(-356.344,-513.70618)">
  <g id="g7080" transform="translate(591.89475,310.73685)">
   <path id="path23958-4" fill="url(#linearGradient6889)" stroke-miterlimit="10" d="M-216.89,202.97c-10.31,0-18.66,8.35-18.66,18.66,0,10.3,8.35,18.65,18.66,18.65,10.3,0,18.65-8.35,18.65-18.65,0-10.31-8.35-18.66-18.65-18.66"/>
   <g id="g6891" transform="translate(1.0575878,0.2820036)">
    <path id="path13071-0" d="M-227.25,215.02c1.78-2.53,4.93-3.56,7.86-3.98,3.98-0.72,8.33,0.08,11.52,2.67,2.62,1.98,4.71,5.1,4.53,8.49-0.29,2.27-2.5,3.81-4.66,4.01-2.75,0.43-5.54,0.07-8.28-0.26-3.99-0.68-8.05-2.16-10.93-5.12-1.32-1.63-1.39-4.17-0.04-5.81z" stroke="#000" stroke-miterlimit="10" stroke-dasharray="none" stroke-width="1.5" fill="#e4a69e"/>
    <path id="path25248" style="enable-background:accumulate;color:#000000;" d="M-434,311.25c0,1.1-0.9,2-2,2s-2-0.9-2-2,0.9-2,2-2,2,0.9,2,2z" fill-rule="nonzero" transform="matrix(1.2209709,0,0,1.2209709,303.8433,-162.27718)" fill="#000"/>
    <path id="path25248-6" style="enable-background:accumulate;color:#000000;" d="M-434,311.25c0,1.1-0.9,2-2,2s-2-0.9-2-2,0.9-2,2-2,2,0.9,2,2z" fill-rule="nonzero" transform="matrix(1.2209709,0,0,1.2209709,315.33027,-168.69676)" fill="#000"/>
    <path id="path25248-8" style="enable-background:accumulate;color:#000000;" d="M-434,311.25c0,1.1-0.9,2-2,2s-2-0.9-2-2,0.9-2,2-2,2,0.9,2,2z" fill-rule="nonzero" transform="matrix(1.2209709,0,0,1.2209709,320.59331,-153.77719)" fill="#000"/>
   </g>
   <path id="path25226" d="M-224.06,227.26-226.06,227.26-226.06,230.67-229.66,230.67-229.66,232.67-226.06,232.67-226.06,236.07-224.06,236.07-224.06,232.67-220.47,232.67-220.47,230.67-224.06,230.67-224.06,227.26z" style="baseline-shift:baseline;block-progression:tb;color:#000000;direction:ltr;text-indent:0;text-align:start;enable-background:accumulate;text-transform:none;" fill="#000"/>
  </g>
 </g>
</svg>
