<?xml version="1.0" encoding="UTF-8" standalone="no"?>
<svg
   xmlns:dc="http://purl.org/dc/elements/1.1/"
   xmlns:cc="http://creativecommons.org/ns#"
   xmlns:rdf="http://www.w3.org/1999/02/22-rdf-syntax-ns#"
   xmlns:svg="http://www.w3.org/2000/svg"
   xmlns="http://www.w3.org/2000/svg"
   xmlns:sodipodi="http://sodipodi.sourceforge.net/DTD/sodipodi-0.dtd"
   xmlns:inkscape="http://www.inkscape.org/namespaces/inkscape"
   id="svg2"
   version="1.1"
   inkscape:version="0.91 r13725"
   sodipodi:docname="copy.svg"
   width="37.310001"
   height="37.310001">
  <metadata
     id="metadata10">
    <rdf:RDF>
      <cc:Work
         rdf:about="">
        <dc:format>image/svg+xml</dc:format>
        <dc:type
           rdf:resource="http://purl.org/dc/dcmitype/StillImage" />
        <dc:title />
      </cc:Work>
    </rdf:RDF>
  </metadata>
  <defs
     id="defs8">
    <linearGradient
       id="linearGradient25035"
       y2="112.47"
       gradientUnits="userSpaceOnUse"
       x2="-312.37"
       gradientTransform="translate(331.34653,-150.95999)"
       y1="184.71001"
       x1="-313.01999">
      <stop
         id="stop22496-54-6-4"
         stop-color="#FFF"
         offset="0" />
      <stop
         id="stop22498-4-8-1"
         stop-color="#FFF"
         stop-opacity="0"
         offset="1" />
    </linearGradient>
  </defs>
  <sodipodi:namedview
     pagecolor="#ffffff"
     bordercolor="#666666"
     borderopacity="1"
     objecttolerance="10"
     gridtolerance="10"
     guidetolerance="10"
     inkscape:pageopacity="0"
     inkscape:pageshadow="2"
     inkscape:window-width="1112"
     inkscape:window-height="723"
     id="namedview6"
     showgrid="false"
     inkscape:zoom="11.954524"
     inkscape:cx="20.479255"
     inkscape:cy="16.252205"
     inkscape:window-x="92"
     inkscape:window-y="23"
     inkscape:window-maximized="0"
     inkscape:current-layer="svg2"
     fit-margin-top="0"
     fit-margin-left="0"
     fit-margin-right="0"
     fit-margin-bottom="0" />
  <path
     id="path24366-1-4"
     d="M 18.66,0 C 8.35,0 0,8.35 0,18.66 c 0,10.3 8.35,18.65 18.66,18.65 10.3,0 18.65,-8.35 18.65,-18.65 C 37.31,8.35 28.96,0 18.66,0"
     stroke-miterlimit="10"
     style="fill:url(#linearGradient25035);stroke-miterlimit:10"
     inkscape:connector-curvature="0" />
  <path
     inkscape:connector-curvature="0"
     d="m 29.025208,11.63369 q 0.546168,0 0.928486,0.382318 0.382317,0.382316 0.382317,0.928485 l 0,16.603502 q 0,0.546168 -0.382317,0.928485 -0.382318,0.382317 -0.928486,0.382317 l -13.108027,0 q -0.546168,0 -0.928486,-0.382317 -0.382317,-0.382317 -0.382317,-0.928485 l 0,-3.932408 -7.427883,0 q -0.546168,0 -0.928484,-0.382318 -0.382318,-0.382317 -0.382318,-0.928486 l 0,-9.175619 q 0,-0.546167 0.273083,-1.201569 0.273085,-0.655402 0.655401,-1.037719 L 12.36709,7.3189631 q 0.382317,-0.382317 1.037719,-0.655402 0.655402,-0.273083 1.201569,-0.273083 l 5.680145,0 q 0.546168,0 0.928486,0.382317 0.382317,0.382318 0.382317,0.928486 l 0,4.4785769 q 0.928485,-0.546168 1.747736,-0.546168 l 5.680146,0 z m -7.427882,2.908344 -4.082605,4.082604 4.082605,0 0,-4.082604 z m -8.738685,-5.2432114 -4.082605,4.0826054 4.082605,0 0,-4.0826054 z m 2.676223,8.8342644 4.314725,-4.314726 0,-5.6801469 -5.243211,0 0,5.6801469 q 0,0.546168 -0.382318,0.928486 -0.382317,0.382317 -0.928485,0.382317 l -5.680145,0 0,8.738685 6.990948,0 0,-3.495474 q 0,-0.546168 0.273084,-1.201569 0.273084,-0.655401 0.655402,-1.037719 z m 13.053411,10.977973 0,-15.729632 -5.243213,0 0,5.680145 q 0,0.546167 -0.382316,0.928484 -0.382318,0.382318 -0.928486,0.382318 l -5.680145,0 0,8.738685 12.23416,0 z"
     id="path4-9" />
</svg>
