<?xml version="1.0" encoding="UTF-8" standalone="no"?>
<!-- Created with Inkscape (http://www.inkscape.org/) -->
<svg id="svg7275" xmlns:rdf="http://www.w3.org/1999/02/22-rdf-syntax-ns#" xmlns="http://www.w3.org/2000/svg" height="37.312" width="37.312" version="1.1" xmlns:cc="http://creativecommons.org/ns#" xmlns:xlink="http://www.w3.org/1999/xlink" xmlns:dc="http://purl.org/dc/elements/1.1/">
 <defs id="defs7277">
  <linearGradient id="linearGradient25035" y2="112.47" gradientUnits="userSpaceOnUse" x2="-312.37" gradientTransform="translate(37.126535,150.82001)" y1="184.71" x1="-313.02">
   <stop id="stop22496-54-6-4" stop-color="#FFF" offset="0"/>
   <stop id="stop22498-4-8-1" stop-color="#FFF" stop-opacity="0" offset="1"/>
  </linearGradient>
 </defs>
 <metadata id="metadata7280">
  <rdf:RDF>
   <cc:Work rdf:about="">
    <dc:format>image/svg+xml</dc:format>
    <dc:type rdf:resource="http://purl.org/dc/dcmitype/StillImage"/>
    <dc:title/>
   </cc:Work>
  </rdf:RDF>
 </metadata>
 <g id="layer1" transform="translate(-356.344,-513.70618)">
  <g id="g25027" transform="translate(650.56454,211.92493)">
   <path id="path24366-1-4" d="M-275.56,301.78c-10.31,0-18.66,8.35-18.66,18.66,0,10.3,8.35,18.65,18.66,18.65,10.3,0,18.65-8.35,18.65-18.65,0-10.31-8.35-18.66-18.65-18.66" stroke-miterlimit="10" fill="url(#linearGradient25035)"/>
   <g id="g25056" transform="translate(-0.53122073,1.4446208)">
    <g id="g24985" fill="#FFF" transform="translate(-728.23254,-55.229754)">
     <path id="path24987" d="M447.14,386.33h12.15v-4.51c-0.7-0.69-1.38-1.28-2.2-1.71-1.12-0.59-2.43-1.29-3.71-1.48-1.63-0.23-3.47-0.15-5.1,0.11-0.37,0.06-0.76,0.13-1.17,0.23,0.03,2.13,0.04,5.03,0.03,7.36z" stroke-miterlimit="10" fill="#e1a39b"/>
    </g>
    <path id="path10209-6" style="baseline-shift:baseline;block-progression:tb;color:#000000;direction:ltr;text-indent:0;text-align:start;enable-background:accumulate;text-transform:none;" fill="#000" d="M-281.16,315.16c-0.19,0-0.59,0.21-0.59,0.72v14.84c0,0.39,0.18,0.9,0.75,0.9h11.97c0.58,0,0.75-0.47,0.75-0.9v-14.84c0-0.49-0.38-0.72-0.75-0.72h-12.13zm0.88,1.5,2.5,0,0,5.87c-0.78,0.03-1.55,0.11-2.28,0.22v0.03c-0.07,0.01-0.15,0.02-0.22,0.03v-6.15zm4,0,2.37,0,0,6.18c-0.27-0.07-0.56-0.14-0.84-0.18-0.5-0.08-1.01-0.11-1.53-0.13v-5.87zm3.87,0,2.63,0,0,8.18c-0.32-0.23-0.64-0.43-1-0.62-0.5-0.27-1.04-0.58-1.63-0.84v-6.72zm-3.87,7.37c0.45,0.02,0.89,0.07,1.31,0.13,0.34,0.05,0.7,0.15,1.06,0.28v5.68h-2.37v-6.09zm-1.5,0.03,0,6.06-2.5,0,0-5.78c0.14-0.02,0.3-0.07,0.44-0.09,0.65-0.1,1.36-0.15,2.06-0.19zm5.37,1.03c0.31,0.15,0.62,0.29,0.91,0.44,0.61,0.32,1.15,0.78,1.72,1.31v3.28h-2.63v-5.03z"/>
    <path id="path10205-6" d="M-280.5,314.89c2.41-2.41,4.83-4.83,7.25-7.25,0.68-0.68-0.38-1.74-1.06-1.06-2.42,2.42-4.84,4.83-7.25,7.25-0.69,0.69,0.37,1.75,1.06,1.06z"/>
   </g>
  </g>
 </g>
</svg>
