<?xml version="1.0" encoding="UTF-8" standalone="no"?>
<!-- Created with Inkscape (http://www.inkscape.org/) -->

<svg
   xmlns:dc="http://purl.org/dc/elements/1.1/"
   xmlns:cc="http://creativecommons.org/ns#"
   xmlns:rdf="http://www.w3.org/1999/02/22-rdf-syntax-ns#"
   xmlns:svg="http://www.w3.org/2000/svg"
   xmlns="http://www.w3.org/2000/svg"
   xmlns:xlink="http://www.w3.org/1999/xlink"
   xmlns:sodipodi="http://sodipodi.sourceforge.net/DTD/sodipodi-0.dtd"
   xmlns:inkscape="http://www.inkscape.org/namespaces/inkscape"
   width="37.312"
   height="37.312"
   id="svg23751"
   version="1.1"
   inkscape:version="0.48.5 r10040"
   sodipodi:docname="New document 18">
  <defs
     id="defs23753">
    <linearGradient
       inkscape:collect="always"
       xlink:href="#linearGradient22494-7"
       id="linearGradient22828"
       gradientUnits="userSpaceOnUse"
       gradientTransform="translate(147.19966,7e-6)"
       x1="-313.01569"
       y1="184.71365"
       x2="-312.36646"
       y2="112.46646" />
    <linearGradient
       inkscape:collect="always"
       id="linearGradient22494-7">
      <stop
         style="stop-color:#ffffff;stop-opacity:1;"
         offset="0"
         id="stop22496-54" />
      <stop
         style="stop-color:#ffffff;stop-opacity:0;"
         offset="1"
         id="stop22498-4" />
    </linearGradient>
  </defs>
  <sodipodi:namedview
     id="base"
     pagecolor="#ffffff"
     bordercolor="#666666"
     borderopacity="1.0"
     inkscape:pageopacity="0.0"
     inkscape:pageshadow="2"
     inkscape:zoom="0.35"
     inkscape:cx="18.656"
     inkscape:cy="18.655997"
     inkscape:document-units="px"
     inkscape:current-layer="layer1"
     showgrid="false"
     fit-margin-top="0"
     fit-margin-left="0"
     fit-margin-right="0"
     fit-margin-bottom="0"
     inkscape:window-width="472"
     inkscape:window-height="442"
     inkscape:window-x="20"
     inkscape:window-y="20"
     inkscape:window-maximized="0" />
  <metadata
     id="metadata23756">
    <rdf:RDF>
      <cc:Work
         rdf:about="">
        <dc:format>image/svg+xml</dc:format>
        <dc:type
           rdf:resource="http://purl.org/dc/dcmitype/StillImage" />
        <dc:title></dc:title>
      </cc:Work>
    </rdf:RDF>
  </metadata>
  <g
     inkscape:label="Layer 1"
     inkscape:groupmode="layer"
     id="layer1"
     transform="translate(-356.344,-513.70618)">
    <g
       transform="translate(540.49141,362.74494)"
       id="g23724">
      <path
         d="M -165.49141,150.96124 C -175.79541,150.96124 -184.14741,159.31324 -184.14741,169.61724 -184.14741,179.92024 -175.79541,188.27324 -165.49141,188.27324 -155.18841,188.27324 -146.83541,179.91924 -146.83541,169.61724 -146.83441,159.31324 -155.18841,150.96124 -165.49141,150.96124"
         id="path22574"
         inkscape:connector-curvature="0"
         style="opacity:0.4;fill:none" />
      <path
         stroke-miterlimit="10"
         d="M -165.49141,150.96124 C -175.79641,150.96124 -184.14741,159.31424 -184.14741,169.61724 -184.14741,179.92024 -175.79541,188.27324 -165.49141,188.27324 -155.18841,188.27324 -146.83541,179.92024 -146.83541,169.61724 -146.83541,159.31424 -155.18941,150.96124 -165.49141,150.96124"
         id="path22826"
         inkscape:connector-curvature="0"
         style="fill:url(#linearGradient22828);fill-opacity:1;stroke:none" />
      <path
         id="path22598"
         d="M -165.81175,157.84742 C -166.00653,157.87399 -166.20062,157.93605 -166.4055,158.06617 -170.0125,160.35517 -173.35575,163.02317 -176.68675,165.69117 -178.19575,166.90017 -176.05575,169.01417 -174.56175,167.81617 -171.68535,165.51174 -168.79497,163.24914 -165.718,161.22242 -162.59206,163.26809 -159.66494,165.57402 -156.74925,167.90992 -155.25425,169.10792 -153.11425,166.99492 -154.62425,165.78492 -157.87302,163.182 -161.14775,160.59849 -164.6555,158.34742 -164.95029,158.01283 -165.34355,157.78355 -165.81175,157.84742 z"
         inkscape:connector-curvature="0" />
      <path
         stroke-miterlimit="10"
         d="M -157.66741,159.20024 H -160.08041 C -159.27541,159.80824 -158.47241,160.41024 -157.66741,161.00224 V 159.20024 z"
         id="path22606"
         inkscape:connector-curvature="0"
         style="fill:#000202;stroke:#000000;stroke-miterlimit:10" />
      <path
         inkscape:connector-curvature="0"
         id="path22614"
         d="M -165.875,163.84375 C -165.90425,163.84807 -165.93916,163.86849 -165.96875,163.875 -166.01824,163.88445 -166.07746,163.89094 -166.125,163.90625 -166.14594,163.91334 -166.16645,163.92926 -166.1875,163.9375 -166.24682,163.96081 -166.28829,163.9683 -166.34375,164 -166.39225,164.02546 -166.41995,164.06181 -166.46875,164.09375 -166.5218,164.13172 -166.57687,164.17375 -166.625,164.21875 -169.57748,166.17057 -172.33788,168.40373 -175.0625,170.65625 -175.55302,171.06228 -175.5625,171.51404 -175.5625,172 -175.56126,172.11619 -175.56251,172.36613 -175.5625,172.4375 L -175.5625,176.75 C -175.56234,178.12453 -174.43703,179.25 -173.0625,179.25 L -171.6875,179.25 -171.6875,175.875 -171.6875,173.875 C -171.70257,173.4927 -171.47228,173.10933 -171.0625,172.84375 -170.232,172.30525 -169.28638,172.00875 -168.3125,171.96875 -167.33862,171.92875 -166.363,172.1305 -165.5,172.625 -165.04444,172.88605 -164.83725,173.28802 -164.875,173.6875 L -164.875,175.6875 -164.875,179.25 -158.375,179.25 C -157.00047,179.25 -155.875,178.12453 -155.875,176.75 L -155.875,172.4375 -155.875,171.9375 C -155.875,171.50825 -155.87683,171.09413 -156.40625,170.65625 -159.15226,168.38325 -161.89442,166.11813 -164.875,164.15625 -164.90647,164.13554 -164.93723,164.11439 -164.96875,164.09375 -165.06571,164.02289 -165.1701,163.98028 -165.28125,163.9375 -165.34776,163.91147 -165.40353,163.88983 -165.46875,163.875 -165.50285,163.86806 -165.52756,163.84774 -165.5625,163.84375 -165.57324,163.84216 -165.58306,163.84505 -165.59375,163.84375 -165.68578,163.83577 -165.77838,163.82948 -165.875,163.84375 z M -168.28125,174.375 C -168.58819,174.3779 -168.89934,174.45351 -169.1875,174.5625 L -169.1875,179.25 -167.375,179.25 -167.375,174.5625 C -167.67159,174.44189 -167.97431,174.3721 -168.28125,174.375 z" />
    </g>
  </g>
</svg>
