<?xml version="1.0" encoding="UTF-8" standalone="no"?>
<!-- Created with Inkscape (http://www.inkscape.org/) -->

<svg
   xmlns:dc="http://purl.org/dc/elements/1.1/"
   xmlns:cc="http://creativecommons.org/ns#"
   xmlns:rdf="http://www.w3.org/1999/02/22-rdf-syntax-ns#"
   xmlns:svg="http://www.w3.org/2000/svg"
   xmlns="http://www.w3.org/2000/svg"
   xmlns:xlink="http://www.w3.org/1999/xlink"
   xmlns:sodipodi="http://sodipodi.sourceforge.net/DTD/sodipodi-0.dtd"
   xmlns:inkscape="http://www.inkscape.org/namespaces/inkscape"
   width="37.312"
   height="37.312"
   id="svg23676"
   version="1.1"
   inkscape:version="0.91 r13725"
   sodipodi:docname="minus.svg">
  <defs
     id="defs23678">
    <linearGradient
       inkscape:collect="always"
       xlink:href="#linearGradient22494-7"
       id="linearGradient22800"
       gradientUnits="userSpaceOnUse"
       gradientTransform="translate(687.69107,362.74495)"
       x1="-313.01569"
       y1="184.71365"
       x2="-312.36646"
       y2="112.46646" />
    <linearGradient
       inkscape:collect="always"
       id="linearGradient22494-7">
      <stop
         style="stop-color:#ffffff;stop-opacity:1;"
         offset="0"
         id="stop22496-54" />
      <stop
         style="stop-color:#ffffff;stop-opacity:0;"
         offset="1"
         id="stop22498-4" />
    </linearGradient>
  </defs>
  <sodipodi:namedview
     id="base"
     pagecolor="#ffffff"
     bordercolor="#666666"
     borderopacity="1.0"
     inkscape:pageopacity="0.0"
     inkscape:pageshadow="2"
     inkscape:zoom="6.4656076"
     inkscape:cx="18.656"
     inkscape:cy="18.655997"
     inkscape:document-units="px"
     inkscape:current-layer="layer1"
     showgrid="false"
     fit-margin-top="0"
     fit-margin-left="0"
     fit-margin-right="0"
     fit-margin-bottom="0"
     inkscape:window-width="948"
     inkscape:window-height="600"
     inkscape:window-x="977"
     inkscape:window-y="206"
     inkscape:window-maximized="0" />
  <metadata
     id="metadata23681">
    <rdf:RDF>
      <cc:Work
         rdf:about="">
        <dc:format>image/svg+xml</dc:format>
        <dc:type
           rdf:resource="http://purl.org/dc/dcmitype/StillImage" />
        <dc:title />
      </cc:Work>
    </rdf:RDF>
  </metadata>
  <g
     inkscape:label="Layer 1"
     inkscape:groupmode="layer"
     id="layer1"
     transform="translate(-356.344,-513.70618)">
    <path
       d="m 375,513.70618 c -10.305,0 -18.656,8.353 -18.656,18.656 0,10.303 8.352,18.656 18.656,18.656 10.303,0 18.656,-8.353 18.656,-18.656 0,-10.303 -8.353,-18.656 -18.656,-18.656"
       id="path21938"
       inkscape:connector-curvature="0"
       style="opacity:0.4;fill:none" />
    <path
       stroke-miterlimit="10"
       d="m 375,513.70618 c -10.305,0 -18.656,8.353 -18.656,18.656 0,10.303 8.352,18.656 18.656,18.656 10.303,0 18.656,-8.353 18.656,-18.656 0,-10.303 -8.354,-18.656 -18.656,-18.656"
       id="path22798"
       inkscape:connector-curvature="0"
       style="fill:url(#linearGradient22800);fill-opacity:1;stroke:none;stroke-miterlimit:10" />
    <path
       d="m 377.30769,530.4391 0,0.76924 q 0,0.15624 -0.11418,0.27044 -0.11418,0.11416 -0.27043,0.11416 l -6.92308,0 q -0.15625,0 -0.27043,-0.11416 -0.11419,-0.1142 -0.11419,-0.27044 l 0,-0.76924 q 0,-0.15624 0.11419,-0.27044 0.11418,-0.11416 0.27043,-0.11416 l 6.92308,0 q 0.15625,0 0.27043,0.11416 0.11418,0.1142 0.11418,0.27044 z m 1.53846,0.3846 q 0,-2.22352 -1.58053,-3.80408 -1.58052,-1.58052 -3.80408,-1.58052 -2.22356,0 -3.80409,1.58052 -1.58053,1.58056 -1.58053,3.80408 0,2.22356 1.58053,3.80412 1.58053,1.58052 3.80409,1.58052 2.22356,0 3.80408,-1.58052 1.58053,-1.58056 1.58053,-3.80412 z m 6.15385,10 q 0,0.63704 -0.45072,1.08776 -0.45072,0.45072 -1.08774,0.45072 -0.64904,0 -1.08173,-0.45672 l -4.1226,-4.1106 q -2.15144,1.4904 -4.79567,1.4904 -1.71875,0 -3.28726,-0.66708 -1.56851,-0.66704 -2.70433,-1.80288 -1.13581,-1.1358 -1.80288,-2.70432 Q 365,532.54246 365,530.8237 q 0,-1.71872 0.66707,-3.28724 0.66707,-1.56852 1.80288,-2.70432 1.13582,-1.13584 2.70433,-1.80288 1.56851,-0.66708 3.28726,-0.66708 1.71875,0 3.28726,0.66708 1.56851,0.66704 2.70432,1.80288 1.13582,1.1358 1.80289,2.70432 0.66707,1.56852 0.66707,3.28724 0,2.64424 -1.49039,4.79568 l 4.1226,4.1226 Q 385,540.1867 385,540.8237 Z"
       id="path4"
       inkscape:connector-curvature="0" />
  </g>
</svg>
