<?xml version="1.0" encoding="UTF-8" standalone="no"?>
<svg
   xmlns:dc="http://purl.org/dc/elements/1.1/"
   xmlns:cc="http://creativecommons.org/ns#"
   xmlns:rdf="http://www.w3.org/1999/02/22-rdf-syntax-ns#"
   xmlns:svg="http://www.w3.org/2000/svg"
   xmlns="http://www.w3.org/2000/svg"
   xmlns:sodipodi="http://sodipodi.sourceforge.net/DTD/sodipodi-0.dtd"
   xmlns:inkscape="http://www.inkscape.org/namespaces/inkscape"
   id="svg2"
   version="1.1"
   inkscape:version="0.91 r13725"
   sodipodi:docname="paste.svg"
   width="37.310001"
   height="37.310001">
  <metadata
     id="metadata10">
    <rdf:RDF>
      <cc:Work
         rdf:about="">
        <dc:format>image/svg+xml</dc:format>
        <dc:type
           rdf:resource="http://purl.org/dc/dcmitype/StillImage" />
        <dc:title />
      </cc:Work>
    </rdf:RDF>
  </metadata>
  <defs
     id="defs8">
    <linearGradient
       id="linearGradient25035"
       y2="112.47"
       gradientUnits="userSpaceOnUse"
       x2="-312.37"
       gradientTransform="translate(331.34653,-150.95999)"
       y1="184.71001"
       x1="-313.01999">
      <stop
         id="stop22496-54-6-4"
         stop-color="#FFF"
         offset="0" />
      <stop
         id="stop22498-4-8-1"
         stop-color="#FFF"
         stop-opacity="0"
         offset="1" />
    </linearGradient>
  </defs>
  <sodipodi:namedview
     pagecolor="#ffffff"
     bordercolor="#666666"
     borderopacity="1"
     objecttolerance="10"
     gridtolerance="10"
     guidetolerance="10"
     inkscape:pageopacity="0"
     inkscape:pageshadow="2"
     inkscape:window-width="1440"
     inkscape:window-height="807"
     id="namedview6"
     showgrid="false"
     inkscape:zoom="9.765625"
     inkscape:cx="25.722024"
     inkscape:cy="14.245403"
     inkscape:window-x="68"
     inkscape:window-y="20"
     inkscape:window-maximized="0"
     inkscape:current-layer="svg2"
     fit-margin-top="0"
     fit-margin-left="0"
     fit-margin-right="0"
     fit-margin-bottom="0" />
  <g
     id="g4138">
    <path
       inkscape:connector-curvature="0"
       style="fill:url(#linearGradient25035);stroke-miterlimit:10"
       stroke-miterlimit="10"
       d="M 18.66,0 C 8.35,0 0,8.35 0,18.66 c 0,10.3 8.35,18.65 18.66,18.65 10.3,0 18.65,-8.35 18.65,-18.65 C 37.31,8.35 28.96,0 18.66,0"
       id="path24366-1-4" />
    <path
       id="path5833"
       d="m 30.9224,28.407473 c -0.98,-1.11 -1.95,-2.06 -3.16,-2.72 -0.66,-0.36 -1.4,-0.76 -2.15,-1.09 -0.75,-0.33 -1.52,-0.61 -2.28,-0.72 -1.94,-0.29 -4.13,-0.19 -6.07,0.13 -0.61,0.09 -1.23,0.27 -1.9,0.46 l 0,4.16 c 0,0.67 0.48,1.09 1,1.09 l 13.37,0 c 0.99,0 1.19,-0.59 1.19,-1.31 z"
       inkscape:connector-curvature="0"
       style="fill:#ea503c;fill-opacity:1;opacity:0.4" />
    <path
       inkscape:connector-curvature="0"
       id="path4"
       style="fill:currentColor"
       d="m 16.864843,28.967364 12.531102,0 0,-8.593641 -5.818011,0 q -0.559425,0 -0.951022,-0.375971 -0.391597,-0.375977 -0.391597,-0.913065 l 0,-5.585869 -5.370472,0 0,15.468546 z m 3.580315,-19.3356918 0,-0.8593617 q 0,-0.1745579 -0.132862,-0.3021257 -0.132865,-0.1275551 -0.314678,-0.1275551 l -9.845866,0 q -0.1818125,0 -0.3146745,0.1275551 -0.132863,0.1275678 -0.132863,0.3021257 l 0,0.8593617 q 0,0.174558 0.132863,0.302125 0.132862,0.1275558 0.3146745,0.1275558 l 9.845866,0 q 0.181813,0 0.314678,-0.1275558 0.132862,-0.127567 0.132862,-0.302125 z m 3.580314,9.0233218 4.181698,0 -4.181698,-4.01483 0,4.01483 z m 7.160631,1.718729 0,9.023322 q 0,0.537107 -0.391597,0.913084 -0.391597,0.375971 -0.951021,0.375971 l -13.426182,0 q -0.559424,0 -0.95102,-0.375971 -0.391597,-0.375977 -0.391597,-0.913084 l 0,-2.148398 -7.6081705,0 q -0.559422,0 -0.95102,-0.375977 -0.391598,-0.37597 -0.391598,-0.913078 l 0,-18.0466558 q 0,-0.5370946 0.391598,-0.9130653 0.391598,-0.3759707 0.95102,-0.3759707 l 15.2163395,0 q 0.559424,0 0.951021,0.3759707 0.391596,0.3759707 0.391596,0.9130653 l 0,4.4042528 q 0.293698,0.174558 0.503483,0.375965 l 5.706127,5.478449 q 0.391597,0.375977 0.671308,1.020498 0.279713,0.644515 0.279713,1.181622 z" />
  </g>
</svg>
