<?xml version="1.0" encoding="UTF-8" standalone="no"?>
<!-- Created with Inkscape (http://www.inkscape.org/) -->

<svg
   xmlns:dc="http://purl.org/dc/elements/1.1/"
   xmlns:cc="http://creativecommons.org/ns#"
   xmlns:rdf="http://www.w3.org/1999/02/22-rdf-syntax-ns#"
   xmlns:svg="http://www.w3.org/2000/svg"
   xmlns="http://www.w3.org/2000/svg"
   xmlns:xlink="http://www.w3.org/1999/xlink"
   xmlns:sodipodi="http://sodipodi.sourceforge.net/DTD/sodipodi-0.dtd"
   xmlns:inkscape="http://www.inkscape.org/namespaces/inkscape"
   width="37.312"
   height="37.312"
   id="svg23607"
   version="1.1"
   inkscape:version="0.91 r13725"
   sodipodi:docname="plus.svg">
  <defs
     id="defs23609">
    <linearGradient
       gradientTransform="translate(687.69107,362.74494)"
       y2="112.46646"
       x2="-312.36646"
       y1="184.71365"
       x1="-313.01569"
       gradientUnits="userSpaceOnUse"
       id="linearGradient22779"
       xlink:href="#linearGradient22494-7"
       inkscape:collect="always" />
    <linearGradient
       inkscape:collect="always"
       id="linearGradient22494-7">
      <stop
         style="stop-color:#ffffff;stop-opacity:1;"
         offset="0"
         id="stop22496-54" />
      <stop
         style="stop-color:#ffffff;stop-opacity:0;"
         offset="1"
         id="stop22498-4" />
    </linearGradient>
  </defs>
  <sodipodi:namedview
     id="base"
     pagecolor="#ffffff"
     bordercolor="#666666"
     borderopacity="1.0"
     inkscape:pageopacity="0.0"
     inkscape:pageshadow="2"
     inkscape:zoom="6.4578736"
     inkscape:cx="22.527243"
     inkscape:cy="22.52724"
     inkscape:document-units="px"
     inkscape:current-layer="layer1"
     showgrid="false"
     fit-margin-top="0"
     fit-margin-left="0"
     fit-margin-right="0"
     fit-margin-bottom="0"
     inkscape:window-width="1509"
     inkscape:window-height="1017"
     inkscape:window-x="240"
     inkscape:window-y="50"
     inkscape:window-maximized="0" />
  <metadata
     id="metadata23612">
    <rdf:RDF>
      <cc:Work
         rdf:about="">
        <dc:format>image/svg+xml</dc:format>
        <dc:type
           rdf:resource="http://purl.org/dc/dcmitype/StillImage" />
        <dc:title />
      </cc:Work>
    </rdf:RDF>
  </metadata>
  <g
     inkscape:label="Layer 1"
     inkscape:groupmode="layer"
     id="layer1"
     transform="translate(-356.344,-513.70618)">
    <path
       style="fill:url(#linearGradient22779);fill-opacity:1;stroke:none;stroke-miterlimit:10"
       inkscape:connector-curvature="0"
       id="path21406-9"
       d="m 375,513.70618 c -10.305,0 -18.656,8.353 -18.656,18.656 0,10.303 8.352,18.656 18.656,18.656 10.303,0 18.656,-8.353 18.656,-18.656 0,-10.303 -8.354,-18.656 -18.656,-18.656"
       stroke-miterlimit="10" />
    <path
       d="m 377.3077,530.43908 0,0.76923 q 0,0.15628 -0.1142,0.27043 -0.11417,0.11415 -0.27043,0.11415 l -2.6923,0 0,2.69233 q 0,0.15623 -0.11418,0.27044 -0.11419,0.11414 -0.27043,0.11414 l -0.76923,0 q -0.15626,0 -0.27045,-0.11414 -0.11418,-0.11415 -0.11418,-0.27044 l 0,-2.69233 -2.6923,0 q -0.15626,0 -0.27043,-0.11415 -0.11419,-0.11414 -0.11419,-0.27043 l 0,-0.76923 q 0,-0.15623 0.11419,-0.27044 0.11417,-0.11414 0.27043,-0.11414 l 2.6923,0 0,-2.69227 q 0,-0.15627 0.11418,-0.27048 0.11419,-0.11415 0.27045,-0.11415 l 0.76923,0 q 0.15624,0 0.27043,0.11415 0.11418,0.11414 0.11418,0.27048 l 0,2.69227 2.6923,0 q 0.15626,0 0.27045,0.11414 0.11418,0.11415 0.11418,0.27044 z m 1.53846,0.38464 q 0,-2.22357 -1.58054,-3.8041 -1.58053,-1.58051 -3.80408,-1.58051 -2.22356,0 -3.80408,1.58051 -1.58054,1.58053 -1.58054,3.8041 0,2.22352 1.58054,3.80404 1.58052,1.58057 3.80408,1.58057 2.22355,0 3.80408,-1.58057 1.58054,-1.58052 1.58054,-3.80404 z m 6.15384,10 q 0,0.63698 -0.45072,1.08772 -0.45072,0.45074 -1.08774,0.45074 -0.64904,0 -1.08173,-0.45669 l -4.1226,-4.11062 q -2.15143,1.49038 -4.79567,1.49038 -1.71876,0 -3.28727,-0.66709 -1.5685,-0.66703 -2.70432,-1.80283 -1.13582,-1.13583 -1.80288,-2.70435 Q 365,532.54248 365,530.82372 q 0,-1.71872 0.66707,-3.28723 0.66706,-1.56856 1.80288,-2.70433 1.13582,-1.13581 2.70432,-1.80294 1.56851,-0.66704 3.28727,-0.66704 1.71875,0 3.28726,0.66704 1.56851,0.66713 2.70432,1.80294 1.13582,1.13577 1.80288,2.70433 0.66708,1.56851 0.66708,3.28723 0,2.64422 -1.49039,4.79564 l 4.12261,4.12264 Q 385,540.18672 385,540.82372 Z"
       id="path4"
       inkscape:connector-curvature="0" />
  </g>
</svg>
