<?xml version="1.0" encoding="UTF-8" standalone="no"?>
<!-- Created with Inkscape (http://www.inkscape.org/) -->
<svg id="svg6954" xmlns:rdf="http://www.w3.org/1999/02/22-rdf-syntax-ns#" xmlns="http://www.w3.org/2000/svg" height="37.312" width="37.312" version="1.1" xmlns:cc="http://creativecommons.org/ns#" xmlns:xlink="http://www.w3.org/1999/xlink" xmlns:dc="http://purl.org/dc/elements/1.1/">
 <defs id="defs6956">
  <linearGradient id="linearGradient24446" y2="112.47" gradientUnits="userSpaceOnUse" x2="-312.37" gradientTransform="translate(-1.5717,48.709001)" y1="184.71" x1="-313.02">
   <stop id="stop22496-54" stop-color="#FFF" offset="0"/>
   <stop id="stop22498-4" stop-color="#FFF" stop-opacity="0" offset="1"/>
  </linearGradient>
 </defs>
 <metadata id="metadata6959">
  <rdf:RDF>
   <cc:Work rdf:about="">
    <dc:format>image/svg+xml</dc:format>
    <dc:type rdf:resource="http://purl.org/dc/dcmitype/StillImage"/>
    <dc:title/>
   </cc:Work>
  </rdf:RDF>
 </metadata>
 <g id="layer1" transform="translate(-455.62971,-279.42047)">
  <g id="g6931" transform="translate(788.54848,79.750238)">
   <path id="path23958" fill="url(#linearGradient24446)" stroke-miterlimit="10" d="M-314.26,199.67c-10.31,0-18.66,8.35-18.66,18.66,0,10.3,8.35,18.65,18.66,18.65,10.3,0,18.65-8.35,18.65-18.65,0-10.31-8.35-18.66-18.65-18.66"/>
   <path id="path13071" d="M-327.11,212.07c1.78-2.53,4.93-3.56,7.86-3.98,3.99-0.72,8.33,0.08,11.52,2.67,2.63,1.98,4.71,5.1,4.53,8.49-0.29,2.27-2.5,3.81-4.66,4.01-2.75,0.43-5.54,0.07-8.28-0.26-3.99-0.68-8.05-2.16-10.93-5.12-1.31-1.63-1.39-4.17-0.04-5.81z" fill-opacity="0.4" stroke="#000" stroke-dasharray="none" stroke-miterlimit="10" stroke-width="1.5" fill="#eb503c"/>
   <path id="path23937" fill="#000" d="M-313.97,215.29c-0.2,0.28-0.27,0.68-0.02,1.12,2.15,3.77,3.63,7.76,4.91,11.89,0.34,1.09,1.1,1.29,1.52,0.64,0.65-1,1.24-2.06,1.9-3.05l2.59,2.59c0.67,0.67,1.54-0.22,1.81-0.49,0.27-0.26,1.16-1.14,0.49-1.81-0.62-0.6-1.82-1.82-2.59-2.58,0.99-0.67,2.05-1.26,3.05-1.9,0.65-0.42,0.45-1.19-0.64-1.53-4.13-1.28-8.12-2.76-11.89-4.9-0.44-0.26-0.84-0.19-1.13,0.02z"/>
  </g>
 </g>
</svg>
