<?xml version="1.0" encoding="UTF-8" standalone="no"?>
<!-- Created with Inkscape (http://www.inkscape.org/) -->

<svg
   xmlns:dc="http://purl.org/dc/elements/1.1/"
   xmlns:cc="http://creativecommons.org/ns#"
   xmlns:rdf="http://www.w3.org/1999/02/22-rdf-syntax-ns#"
   xmlns:svg="http://www.w3.org/2000/svg"
   xmlns="http://www.w3.org/2000/svg"
   xmlns:sodipodi="http://sodipodi.sourceforge.net/DTD/sodipodi-0.dtd"
   xmlns:inkscape="http://www.inkscape.org/namespaces/inkscape"
   id="svg7275"
   height="37.310001"
   width="37.310001"
   version="1.1"
   inkscape:version="0.91 r13725"
   sodipodi:docname="simplify.svg">
  <sodipodi:namedview
     pagecolor="#ffffff"
     bordercolor="#666666"
     borderopacity="1"
     objecttolerance="10"
     gridtolerance="10"
     guidetolerance="10"
     inkscape:pageopacity="0"
     inkscape:pageshadow="2"
     inkscape:window-width="1183"
     inkscape:window-height="820"
     id="namedview16"
     showgrid="false"
     inkscape:zoom="4.4724807"
     inkscape:cx="2.5741695"
     inkscape:cy="-1.7990239"
     inkscape:window-x="73"
     inkscape:window-y="0"
     inkscape:window-maximized="0"
     inkscape:current-layer="svg7275"
     fit-margin-top="0"
     fit-margin-left="0"
     fit-margin-right="0"
     fit-margin-bottom="0" />
  <defs
     id="defs7277">
    <linearGradient
       id="linearGradient25035"
       y2="112.47"
       gradientUnits="userSpaceOnUse"
       x2="-312.37"
       gradientTransform="translate(331.34653,-150.95999)"
       y1="184.71001"
       x1="-313.01999">
      <stop
         id="stop22496-54-6-4"
         stop-color="#FFF"
         offset="0" />
      <stop
         id="stop22498-4-8-1"
         stop-color="#FFF"
         stop-opacity="0"
         offset="1" />
    </linearGradient>
  </defs>
  <metadata
     id="metadata7280">
    <rdf:RDF>
      <cc:Work
         rdf:about="">
        <dc:format>image/svg+xml</dc:format>
        <dc:type
           rdf:resource="http://purl.org/dc/dcmitype/StillImage" />
        <dc:title />
      </cc:Work>
    </rdf:RDF>
  </metadata>
  <g
     id="g4139">
    <path
       inkscape:connector-curvature="0"
       style="fill:url(#linearGradient25035);stroke-miterlimit:10"
       stroke-miterlimit="10"
       d="M 18.66,0 C 8.3500001,0 0,8.35 0,18.66 c 0,10.3 8.3500001,18.65 18.66,18.65 10.3,0 18.65,-8.35 18.65,-18.65 C 37.31,8.35 28.96,0 18.66,0"
       id="path24366-1-4" />
    <path
       inkscape:connector-curvature="0"
       d="m 8.0615224,15.115548 c 0.027469,-0.309979 0.023044,-0.621379 0.019898,-0.932093 -0.020576,-0.30438 0.051447,-0.600234 0.1279592,-0.893493 0.040886,-0.219839 0.1376058,-0.424435 0.2401512,-0.624511 0.061965,-0.145735 0.1637491,-0.262364 0.2854969,-0.367925 0.6475604,-0.465667 1.2765493,-0.874147 2.0706073,-1.010552 0.149771,-0.06294 0.309597,-0.10354 0.473149,-0.118305 0.181642,-0.02502 0.331218,0.0388 0.480802,0.128067 0.143993,0.104145 0.259836,0.234545 0.369417,0.368733 0.100891,0.12494 0.168356,0.272277 0.22213,0.419489 0.03656,0.168931 0.108369,0.327603 0.146605,0.495999 0.04324,0.243541 0.101289,0.483642 0.134339,0.728743 0.02932,0.241714 0.03957,0.484679 0.04176,0.727707 0.01942,0.224802 0.07401,0.445239 0.09691,0.66969 0.0075,0.182299 0.03186,0.357973 0.07524,0.535482 0.03181,0.20472 0.130816,0.391213 0.24129,0.568432 0.105453,0.116294 0.242211,0.22484 0.404329,0.261812 0.199163,0.03382 0.402465,0.03241 0.604171,0.03332 0.193665,0.0067 0.374472,0.0035 0.559405,-0.05005 0.590417,-0.320188 -0.594153,0.322684 -1.354236,0.708877 -0.03845,0.01953 0.0701,-0.04898 0.103024,-0.07583 0.111385,-0.0908 0.202739,-0.19516 0.294174,-0.302694 0.196762,-0.237156 0.333494,-0.503511 0.444333,-0.782659 0.1349,-0.377134 0.276078,-0.750776 0.391176,-1.133647 0.112292,-0.383059 0.167201,-0.777208 0.258111,-1.164693 0.07891,-0.431518 0.212849,-0.848905 0.367074,-1.261726 0.136411,-0.429026 0.307717,-0.843304 0.506762,-1.250103 0.180844,-0.352579 0.348968,-0.711705 0.537795,-1.0605408 0.166449,-0.2300272 0.358504,-0.4466079 0.558807,-0.6523384 0.623545,-0.4823668 1.332049,-0.9085693 2.109394,-1.1373774 0.168915,-0.03882 0.342496,-0.041902 0.515444,-0.038295 0.228927,-0.00177 0.447355,0.1136615 0.622942,0.2417478 0.200719,0.150467 0.335455,0.3558802 0.467355,0.5576881 0.142854,0.2322592 0.201106,0.4917503 0.266011,0.7486272 0.08163,0.2520358 0.106913,0.5139704 0.15422,0.7719805 0.06207,0.223961 0.08105,0.454636 0.121603,0.681872 0.04345,0.254608 0.119582,0.502517 0.176183,0.754621 0.02604,0.251593 0.107611,0.492804 0.179134,0.735248 0.100927,0.294541 0.179771,0.592426 0.302115,0.880368 0.118259,0.278516 0.25561,0.550344 0.452562,0.788274 0.126661,0.138512 0.230794,0.291405 0.431833,0.332965 0.229178,0.03103 0.462047,0.02833 0.693144,0.02924 0.282165,0.01148 0.558598,0.0068 0.824347,-0.08774 0.655831,-0.340399 -0.850467,0.455902 -1.282027,0.67327 -0.04168,0.021 0.07574,-0.05336 0.109556,-0.0842 0.118308,-0.107846 0.195699,-0.238678 0.27698,-0.370801 0.134991,-0.215925 0.295183,-0.418561 0.475077,-0.604077 0.144968,-0.175097 0.275331,-0.359833 0.421513,-0.534171 0.569811,-0.701396 0.765623,-0.603948 1.976936,-1.254709 0.19425,-0.09955 0.390257,-0.170728 0.607569,-0.20797 0.174223,-0.01407 0.349691,-0.0127 0.524467,-0.011 0.188107,0.0028 0.372908,0.06307 0.536574,0.146486 0.164747,0.05669 0.314428,0.146631 0.471873,0.218801 0.231498,0.05395 0.358975,0.0994 0.549097,0.240188 0,0 -1.500532,0.881182 -1.500532,0.881182 l 0,0 c -0.166371,-0.104455 -0.353945,-0.142744 -0.537006,-0.214903 -0.156553,-0.07671 -0.313327,-0.153704 -0.477205,-0.216305 -0.150321,-0.06648 -0.318083,-0.09097 -0.483907,-0.08368 -0.168384,0.0026 -0.339043,0.0013 -0.503087,0.04169 -0.200582,0.05127 -0.383161,0.147 -0.568075,0.233416 3.299679,-1.798537 1.624411,-0.963485 1.244201,-0.664841 -0.09042,0.07102 -0.129224,0.175725 -0.217715,0.248555 -0.151004,0.169512 -0.287744,0.349782 -0.414422,0.534697 -0.16383,0.197357 -0.366383,0.366617 -0.50575,0.583152 -0.473528,0.811899 -0.842393,1.090576 -2.104311,1.446411 -0.281149,0.05483 -0.563787,0.04828 -0.85009,0.04648 -0.24912,-0.0012 -0.504364,0.0059 -0.744086,-0.06688 -0.206798,-0.09311 -0.338584,-0.249474 -0.468487,-0.421886 -0.201575,-0.253012 -0.33786,-0.539252 -0.460063,-0.831826 -0.134358,-0.289232 -0.218893,-0.590117 -0.330121,-0.886822 -0.07961,-0.245333 -0.152306,-0.492803 -0.185405,-0.748127 -0.04998,-0.253549 -0.130627,-0.499881 -0.181803,-0.753158 -0.05084,-0.225847 -0.05353,-0.459562 -0.119492,-0.683509 -0.05449,-0.2544 -0.05736,-0.517718 -0.141058,-0.767617 C 19.130739,9.9878028 19.081099,9.7442055 18.945803,9.5260239 18.830787,9.3380395 18.701359,9.1598169 18.513614,9.0272117 18.341412,8.9214413 18.157481,8.8596434 17.948425,8.8786943 c -0.162712,0.00945 -0.325881,0.020901 -0.47838,0.079931 -0.539775,0.2062189 -1.424438,0.7379602 1.232273,-0.6837326 0.03336,-0.017856 -0.06468,0.038813 -0.09701,0.058217 -0.140558,0.076099 -0.06952,0.035604 -0.212813,0.1219381 -0.222701,0.1826157 -0.38785,0.4177163 -0.590523,0.6186119 -0.234337,0.3230447 -0.365068,0.7103382 -0.564096,1.0531113 -0.195991,0.406148 -0.397808,0.807555 -0.52056,1.240411 -0.152665,0.405255 -0.294785,0.813856 -0.363127,1.239528 -0.09617,0.38987 -0.150217,0.786873 -0.259415,1.173798 -0.111553,0.384622 -0.240908,0.76125 -0.373833,1.139693 -0.108198,0.288328 -0.206309,0.573318 -0.407206,0.821745 -0.504931,0.637905 -1.163409,1.149695 -2.075447,1.31509 -0.192554,0.02722 -0.387879,0.01747 -0.582076,0.01582 -0.215773,-0.0056 -0.435657,-0.01459 -0.642236,-0.07761 -0.185188,-0.08134 -0.348346,-0.206261 -0.462314,-0.36534 -0.110142,-0.192564 -0.233914,-0.387312 -0.272924,-0.60496 -0.04619,-0.185267 -0.08555,-0.366397 -0.07817,-0.558284 -0.02374,-0.229217 -0.06046,-0.456272 -0.101334,-0.683374 -0.0027,-0.238305 -0.0026,-0.477049 -0.02711,-0.714521 -0.02953,-0.239806 -0.08735,-0.473047 -0.140012,-0.708688 -0.03865,-0.162199 -0.11284,-0.312986 -0.141195,-0.477315 -0.04727,-0.129952 -0.112459,-0.257065 -0.191977,-0.372313 -0.09918,-0.116236 -0.202368,-0.233408 -0.339737,-0.312425 -0.131292,-0.06476 -0.2666175,-0.06318 -0.409629,-0.03255 -0.1563259,0.03497 -0.3067486,0.08761 -0.4637259,0.119451 -0.1458006,0.03057 -0.3491031,0.119763 -0.2862121,0.0849 2.812749,-1.559031 1.716393,-1.028652 1.295323,-0.679178 -0.142131,0.06544 -0.240727,0.166864 -0.326585,0.287833 -0.092155,0.201563 -0.2350759,0.383744 -0.2716816,0.605783 -0.077422,0.283971 -0.1748601,0.565332 -0.1570474,0.862791 -0.00305,0.30442 -0.00837,0.609662 0.019899,0.913285 0,0 -1.5980228,0.755201 -1.5980228,0.755201 z"
       id="path4400"
       style="opacity:1;fill:#000000;fill-opacity:1;stroke:#000000;stroke-width:0.38701957;stroke-linejoin:round;stroke-miterlimit:4;stroke-dasharray:none;stroke-opacity:1" />
    <path
       inkscape:connector-curvature="0"
       d="m 8.1391537,24.404916 c 0.020372,-0.312033 0.023271,-0.625019 0.023779,-0.937567 0.00186,-0.365916 -0.024647,-0.732598 0.071682,-1.090166 0.1157746,-0.327664 0.3005893,-0.621544 0.5595322,-0.867774 0.8224985,-0.611302 1.7722891,-1.052456 2.6825441,-1.535097 0.363457,-0.110473 0.741331,-0.176257 1.11325,-0.258966 0.385464,-0.09124 0.781688,-0.103164 1.176849,-0.114638 0.382568,-0.0045 0.765149,-0.01097 1.14776,-0.0091 0.370436,5.86e-4 0.733712,-0.01988 1.094428,0.06706 0.38471,0.108317 0.769502,0.224672 1.141911,0.365663 0.533554,0.178766 1.069925,0.355095 1.590112,0.565042 0.536831,0.241672 1.084415,0.460667 1.621748,0.701247 0.563153,0.262005 1.131851,0.511349 1.71337,0.736012 0.474662,0.193373 0.957894,0.362473 1.467769,0.45297 0.445815,0.06447 0.897808,0.06713 1.347844,0.07066 0.339841,-0.0026 0.679683,-0.0057 1.019527,-0.0085 0.26989,0.0043 0.541481,-0.03137 0.798341,-0.109214 0.177069,-0.06701 0.374811,-0.06664 0.553063,-0.128353 0.09133,-0.03162 0.176328,-0.07723 0.265571,-0.113615 -0.226427,0.06915 0.605008,-0.286925 0.388944,-0.169846 -2.695648,1.4607 -1.888341,1.045821 -1.350187,0.685612 0.168894,-0.120515 0.344523,-0.233284 0.502544,-0.366148 0.133707,-0.0929 0.249727,-0.203709 0.376017,-0.304809 0,0 1.816765,-0.660361 1.816765,-0.660361 l 0,0 c -0.153854,0.07256 -0.255998,0.189042 -0.383624,0.289881 -0.174017,0.117995 -0.322998,0.265576 -0.503949,0.376568 -0.729227,0.50519 -1.537634,0.908941 -2.364305,1.259801 -0.270864,0.100099 -0.55634,0.149449 -0.836357,0.222728 -0.272132,0.05088 -0.546087,0.08826 -0.82475,0.07118 -0.334602,-3.04e-4 -0.669305,0.0014 -1.003821,-0.0059 -0.454376,-0.0075 -0.909374,-0.02899 -1.357185,-0.10606 -0.51215,-0.10649 -0.994788,-0.293795 -1.473584,-0.490906 -0.578478,-0.232552 -1.141835,-0.49493 -1.712054,-0.744193 -0.542692,-0.227498 -1.081776,-0.462114 -1.623089,-0.692388 -0.526599,-0.199371 -1.059822,-0.384232 -1.60012,-0.549331 -0.379974,-0.117052 -0.758652,-0.241479 -1.147202,-0.331731 -0.354605,-0.05458 -0.714717,-0.03239 -1.073008,-0.03527 -0.377742,8.54e-4 -0.755682,-0.0071 -1.133233,0.0081 -0.388616,0.01677 -0.776436,0.05271 -1.154316,0.142824 -0.367451,0.08288 -0.746938,0.144224 -1.0905144,0.295834 2.9037614,-1.575961 1.2209114,-0.687714 0.5900804,-0.249841 -0.279401,0.204791 -0.476262,0.469728 -0.5943385,0.782927 -0.157952,0.32635 -0.1054097,0.694279 -0.111742,1.043659 4.96e-4,0.305047 0.00291,0.610597 0.023779,0.915091 0,0 -1.7498313,0.826943 -1.7498313,0.826943 z"
       id="path4402"
       style="opacity:1;fill:#000000;fill-opacity:1;stroke:#000000;stroke-width:0.42378548;stroke-linejoin:round;stroke-miterlimit:4;stroke-dasharray:none;stroke-opacity:1" />
    <path
       inkscape:connector-curvature="0"
       d="m 12.810158,27.62809 c 0.660703,0.05692 1.324107,0.07648 1.986616,0.103627 1.172131,0.05631 2.344354,0.09267 3.517727,0.08657 1.040096,0.0052 2.078708,-0.02193 3.117696,-0.05649 0.753265,-0.0015 1.503675,-0.05765 2.25554,-0.08918 0.573442,-0.01125 1.145315,-0.006 1.714245,-0.07846 0.381647,-0.04487 0.761689,-0.07522 1.125732,-0.193155 0,0 -1.535604,1.035962 -1.535604,1.035962 l 0,0 c -0.371059,0.08936 -0.751217,0.11439 -1.131275,0.158652 -0.567697,0.05141 -1.136896,0.04733 -1.706874,0.05768 -0.739035,0.02551 -1.477384,0.06402 -2.217367,0.06248 -1.023279,0.02294 -2.046161,0.03175 -3.069925,0.02043 -1.187817,-0.0019 -2.374413,-0.0358 -3.561886,-0.06585 -0.703652,-0.01556 -1.407575,-0.03753 -2.111361,-0.02517 0,0 1.616736,-1.017117 1.616736,-1.017117 z"
       id="path4404"
       style="opacity:1;fill:#000000;fill-opacity:1;stroke:#000000;stroke-width:0.67805684;stroke-linejoin:round;stroke-miterlimit:4;stroke-dasharray:none;stroke-opacity:1" />
  </g>
</svg>
