<?xml version="1.0" encoding="UTF-8" standalone="no"?>
<!-- Created with Inkscape (http://www.inkscape.org/) -->

<svg
   xmlns:dc="http://purl.org/dc/elements/1.1/"
   xmlns:cc="http://creativecommons.org/ns#"
   xmlns:rdf="http://www.w3.org/1999/02/22-rdf-syntax-ns#"
   xmlns:svg="http://www.w3.org/2000/svg"
   xmlns="http://www.w3.org/2000/svg"
   xmlns:sodipodi="http://sodipodi.sourceforge.net/DTD/sodipodi-0.dtd"
   xmlns:inkscape="http://www.inkscape.org/namespaces/inkscape"
   id="svg7537"
   height="37.312"
   width="37.312"
   version="1.1"
   inkscape:version="0.91 r13725"
   sodipodi:docname="subtract.svg">
  <sodipodi:namedview
     pagecolor="#ffffff"
     bordercolor="#666666"
     borderopacity="1"
     objecttolerance="10"
     gridtolerance="10"
     guidetolerance="10"
     inkscape:pageopacity="0"
     inkscape:pageshadow="2"
     inkscape:window-width="1148"
     inkscape:window-height="690"
     id="namedview15"
     showgrid="false"
     inkscape:zoom="6.3250428"
     inkscape:cx="18.656"
     inkscape:cy="18.656"
     inkscape:window-x="0"
     inkscape:window-y="0"
     inkscape:window-maximized="0"
     inkscape:current-layer="svg7537" />
  <defs
     id="defs7539">
    <linearGradient
       id="linearGradient6814"
       y2="112.47"
       gradientUnits="userSpaceOnUse"
       x2="-312.37"
       gradientTransform="translate(331.34707,-150.96123)"
       y1="184.71"
       x1="-313.02">
      <stop
         id="stop22496-54-8"
         stop-color="#FFF"
         offset="0" />
      <stop
         id="stop22498-4-61"
         stop-color="#FFF"
         stop-opacity="0"
         offset="1" />
    </linearGradient>
  </defs>
  <metadata
     id="metadata7542">
    <rdf:RDF>
      <cc:Work
         rdf:about="">
        <dc:format>image/svg+xml</dc:format>
        <dc:type
           rdf:resource="http://purl.org/dc/dcmitype/StillImage" />
        <dc:title />
      </cc:Work>
    </rdf:RDF>
  </metadata>
  <g
     id="g4156">
    <path
       inkscape:connector-curvature="0"
       style="fill:url(#linearGradient6814);stroke-miterlimit:10"
       d="m 18.65418,-0.00227 c -10.3,0 -18.65,8.36 -18.65,18.66 0,10.3 8.35,18.65 18.65,18.65 10.3,0 18.66,-8.35 18.66,-18.65 0,-10.3 -8.36,-18.66 -18.66,-18.66"
       stroke-miterlimit="10"
       id="path6764" />
    <path
       id="path6681"
       d="m 26.99549,11.88472 c 0.01,0.16 0.03,0.32 0.03,0.47 0.03,1.04 -0.46,2.04 -1.31,2.63 -1.72,1.38 -4.05,1.26 -6.13,1.22 -3.93,-0.17 -7.97,-1.05 -11.25,-3.32 -0.18,-0.13 -0.35,-0.28 -0.53,-0.43 -0.87,0.99 -1.45,2.21 -1.5,3.56 0.13,1.6 1.19,2.94 2.38,3.94 3.09,2.45 7,3.64 10.87,4.15 2.41,0.26 4.87,0.46 7.28,0.1 1.98,-0.33 4.15,-1.61 4.5,-3.75 0.33,-3.12 -1.44,-6.1 -3.72,-8.1 -0.2,-0.16 -0.41,-0.31 -0.62,-0.47 z m -20.69,4.13 c 0,-0.05 -0.03,-0.1 -0.03,-0.16 l 0,0.38 c 0,-0.08 0.03,-0.15 0.03,-0.22 z"
       inkscape:connector-curvature="0"
       style="opacity:0.4;fill:#ea503c" />
    <path
       id="path6689"
       d="m 26.99549,11.88472 c 0.01,0.16 0.03,0.32 0.03,0.47 0.03,1.04 -0.46,2.04 -1.31,2.63 -1.72,1.38 -4.05,1.26 -6.13,1.22 -3.93,-0.17 -7.97,-1.05 -11.25,-3.32 -0.18,-0.13 -0.35,-0.28 -0.53,-0.43 -0.87,0.99 -1.45,2.21 -1.5,3.56 0.13,1.6 1.19,2.94 2.38,3.94 3.09,2.45 7,3.64 10.87,4.15 2.41,0.26 4.87,0.46 7.28,0.1 1.98,-0.33 4.15,-1.61 4.5,-3.75 0.33,-3.12 -1.44,-6.1 -3.72,-8.1 -0.2,-0.16 -0.41,-0.31 -0.62,-0.47 z m -20.69,4.13 c 0,-0.05 -0.03,-0.1 -0.03,-0.16 l 0,0.38 c 0,-0.08 0.03,-0.15 0.03,-0.22 z"
       inkscape:connector-curvature="0"
       style="fill:none;stroke:#000000" />
    <path
       inkscape:connector-curvature="0"
       d="m 5.89418,27.69773 0,2 9.19,0 0,-2 z"
       style="color:#000000;text-indent:0;text-align:start;text-transform:none;direction:ltr;block-progression:tb;baseline-shift:baseline;fill:#000000;enable-background:accumulate"
       id="path6766" />
  </g>
</svg>
