<?xml version="1.0" encoding="UTF-8" standalone="no"?>
<!-- Created with Inkscape (http://www.inkscape.org/) -->

<svg
   xmlns:dc="http://purl.org/dc/elements/1.1/"
   xmlns:cc="http://creativecommons.org/ns#"
   xmlns:rdf="http://www.w3.org/1999/02/22-rdf-syntax-ns#"
   xmlns:svg="http://www.w3.org/2000/svg"
   xmlns="http://www.w3.org/2000/svg"
   xmlns:sodipodi="http://sodipodi.sourceforge.net/DTD/sodipodi-0.dtd"
   xmlns:inkscape="http://www.inkscape.org/namespaces/inkscape"
   id="svg7111"
   height="37.312"
   width="37.312"
   version="1.1"
   inkscape:version="0.91 r13725"
   sodipodi:docname="toggleRegion2.svg">
  <sodipodi:namedview
     pagecolor="#ffffff"
     bordercolor="#666666"
     borderopacity="1"
     objecttolerance="10"
     gridtolerance="10"
     guidetolerance="10"
     inkscape:pageopacity="0"
     inkscape:pageshadow="2"
     inkscape:window-width="1008"
     inkscape:window-height="681"
     id="namedview17"
     showgrid="false"
     inkscape:zoom="1.1181202"
     inkscape:cx="31.935469"
     inkscape:cy="8.2437598"
     inkscape:window-x="0"
     inkscape:window-y="0"
     inkscape:window-maximized="0"
     inkscape:current-layer="svg7111"
     showguides="false">
    <sodipodi:guide
       position="33.043254,59.130034"
       orientation="0,1"
       id="guide4192" />
  </sodipodi:namedview>
  <defs
     id="defs7113">
    <linearGradient
       id="linearGradient6889"
       y2="112.47"
       gradientUnits="userSpaceOnUse"
       x2="-312.37"
       gradientTransform="translate(331.34707,-150.96123)"
       y1="184.71"
       x1="-313.02">
      <stop
         id="stop22496-54-8"
         stop-color="#FFF"
         offset="0" />
      <stop
         id="stop22498-4-61"
         stop-color="#FFF"
         stop-opacity="0"
         offset="1" />
    </linearGradient>
  </defs>
  <metadata
     id="metadata7116">
    <rdf:RDF>
      <cc:Work
         rdf:about="">
        <dc:format>image/svg+xml</dc:format>
        <dc:type
           rdf:resource="http://purl.org/dc/dcmitype/StillImage" />
        <dc:title></dc:title>
      </cc:Work>
    </rdf:RDF>
  </metadata>
  <path
     id="path23958-4"
     stroke-miterlimit="10"
     d="m 18.66075,6.7e-4 c -10.31,0 -18.66,8.35 -18.66,18.66 0,10.3 8.35,18.65 18.66,18.65 10.3,0 18.65,-8.35 18.65,-18.65 0,-10.31 -8.35,-18.66 -18.65,-18.66"
     style="fill:url(#linearGradient6889);stroke-miterlimit:10"
     inkscape:connector-curvature="0" />
  <path
     style="opacity:1;fill:none;fill-opacity:1;stroke:#000000;stroke-width:1.5;stroke-miterlimit:10;stroke-dasharray:none"
     inkscape:connector-curvature="0"
     stroke-miterlimit="10"
     d="M 9.0974587,11.961144 C 10.877459,9.4311443 14.027458,8.4011443 16.957458,7.9811443 c 3.98,-0.72 8.33,0.08 11.52,2.6699997 2.62,1.98 4.71,5.1 4.53,8.489999 -0.29,2.27 -2.5,3.81 -4.66,4.01 -2.75,0.43 -5.54,0.07 -8.28,-0.26 -3.99,-0.68 -8.05,-2.16 -10.9299993,-5.12 -1.32,-1.629999 -1.39,-4.169999 -0.04,-5.809999 z"
     id="path13071-0-3" />
  <path
     style="opacity:0.4;fill:#ea503c;fill-opacity:1;stroke:#000000;stroke-width:1.5;stroke-miterlimit:10;stroke-dasharray:none"
     inkscape:connector-curvature="0"
     stroke-miterlimit="10"
     d="M 9.0974587,11.961144 C 10.877459,9.4311443 14.027458,8.4011443 16.957458,7.9811443 c 3.98,-0.7199997 8.33,0.08 11.52,2.6699997 2.62,1.98 4.71,5.1 4.53,8.49 -0.29,2.27 -2.5,3.81 -4.66,4.01 -2.75,0.43 -5.54,0.07 -8.28,-0.26 -3.99,-0.68 -8.05,-2.16 -10.9299993,-5.12 -1.32,-1.63 -1.39,-4.17 -0.04,-5.81 z"
     id="path13071-0" />
  <path
     style="fill:none;fill-rule:evenodd;stroke:#000000;stroke-width:0.75556302px;stroke-linecap:butt;stroke-linejoin:miter;stroke-opacity:1"
     d="M 5.4921634,28.95129 C 10.418383,23.077601 14.338867,24.483859 18.056677,29.729172"
     id="path4231"
     inkscape:connector-curvature="0"
     sodipodi:nodetypes="cc" />
  <path
     style="fill:none;fill-rule:evenodd;stroke:#000000;stroke-width:1px;stroke-linecap:butt;stroke-linejoin:miter;stroke-opacity:1"
     d="m 5.6916611,28.300204 c 3.4419235,4.072757 8.0274059,3.102036 12.0643629,1.083558"
     id="path4235"
     inkscape:connector-curvature="0"
     sodipodi:nodetypes="cc" />
  <path
     style="fill:none;fill-rule:evenodd;stroke:#000000;stroke-width:0.80000001;stroke-linecap:butt;stroke-linejoin:miter;stroke-miterlimit:4;stroke-dasharray:none;stroke-opacity:1"
     d="m 5.9973928,28.45425 c 0.4593048,-0.7676 1.3657652,-1.084336 2.0518315,-1.42737 3.5105927,-1.755296 7.2012577,-0.114519 9.8012247,2.485448"
     id="path4237"
     inkscape:connector-curvature="0"
     sodipodi:nodetypes="csc" />
  <ellipse
     style="opacity:1;fill:#000000;fill-opacity:1;stroke:#000000;stroke-width:0.80000001;stroke-linejoin:round;stroke-miterlimit:4;stroke-dasharray:none;stroke-opacity:1"
     id="path4239"
     cx="11.857627"
     cy="28.655933"
     rx="2.1343729"
     ry="1.857695" />
  <ellipse
     style="opacity:0.9;fill:#ffffff;fill-opacity:1;stroke:none;stroke-width:0.9856509;stroke-linejoin:round;stroke-miterlimit:4;stroke-dasharray:none;stroke-opacity:1"
     id="path4241"
     cx="12.173831"
     cy="28.458305"
     rx="0.69768304"
     ry="0.6186322" />
</svg>
